<svg id="Group_57538" data-name="Group 57538" xmlns="http://www.w3.org/2000/svg" width="112" height="50.491" viewBox="0 0 112 50.491">
  <g id="Group_57841" data-name="Group 57841">
    <g id="Group_57537" data-name="Group 57537" transform="translate(17.999)">
      <g id="Group_57533" data-name="Group 57533" transform="translate(11.012)">
        <path id="Path_70287" data-name="Path 70287" d="M154.885,104.271V150.5l-6.478,4.271V109.423" transform="translate(-148.374 -104.271)" fill="#2b59b3"/>
        <path id="Path_70282" data-name="Path 70282" d="M199.573,142.309v17.2l-5.944,3.948V147.335l5.944-5.026" transform="translate(-173.462 -126.544)" fill="#2b59b3"/>
        <path id="Path_70283" data-name="Path 70283" d="M202.5,207.455l-2.42-1.592-.1-.063-4.256-2.79-1.758-1.157-1.509-.994L189.6,198.98l-1.736-1.137-4.382-2.873-1.962-1.283-.209.146-7.192,4.712-1.779,1.177-4.36,2.853-1.738,1.137-3.039,2-1.321.87-1.323.868h-5.9l2.652-1.738,2.956-1.942,1.612-1.054,4.36-2.853,1.738-1.157,4.36-2.853,1.779-1.157,7.192-4.714.209-.143,1.962,1.28L187.865,194l1.736,1.134,4.022,2.382v-3.7l6.355.022v8.123l.1.063,8.289,5.436" transform="translate(-154.664 -154.521)" fill="#2b59b3"/>
        <path id="Path_70288" data-name="Path 70288" d="M6.24,41.384,1.569,44.922,0,0,5.267,1.714" transform="matrix(0.999, 0.035, -0.035, 0.999, 8.325, 0.051)" fill="#68b441"/>
        <path id="Path_70284" data-name="Path 70284" d="M187.812,117v31.1l-3.718,2.705V113.387l3.718,1.654" transform="translate(-169.362 -110.332)" fill="#68b441"/>
        <path id="Path_70285" data-name="Path 70285" d="M212.872,161.7l-4.7-2.667V140.961l4.7,2.326" transform="translate(-180.34 -126.053)" fill="#68b441"/>
        <path id="Path_70286" data-name="Path 70286" d="M221.591,167.617l-3.923-2.707V146.439l4.267,2.43" transform="translate(-183.526 -128.437)" fill="#68b441"/>
        <g id="Group_57030" data-name="Group 57030" transform="translate(10.783 44.129)">
          <path id="Path_69107" data-name="Path 69107" d="M144.4,111.4c-1.247-1.721-4.01-2.9-5.845-2.336a10.441,10.441,0,0,1,6.285,4.8c-2.519-.319-5.16.664-7.263-.614-2.055-1.23-3.6-3.813-5.625-5.412,3.3.91,8.975-6,12.472,3.566Zm12.252-2.7a4.2,4.2,0,0,1,2.861-.885c-1.37.3-1.932.713-3.179,2.164,3.79,1.205,4.206-1.377,6.481-2.41C160.468,106.013,157.583,105.865,156.653,108.694Zm-15.235-3a3.745,3.745,0,0,0-1.712-2.779c-.636-.541-.147-.05-.514-.492a3.04,3.04,0,0,1,2.275,1.77c.171-4.427-3.277-2.558-5.38-3.148,1.59,5.336,3.5,2.878,5.331,4.623Zm15.724,6.936-2.689-.3c2.226-2.017,4.646-1.008,5.551,1.747-1.517.172-1.737.885-3.009.86-1.174,0-2.322-.836-3.594-1.377.978-.934,2.47-.811,3.717-.959Zm-6.358-3.665a5.471,5.471,0,0,1,2.862-3.714,3.94,3.94,0,0,0-3.081,2.264c.587-4.821,2.958-3.714,6.138-3.714-.709,1.4-1.223,3.2-2.421,4.058-1.175.836-2.446.492-3.473,1.131Zm-2.275-12.347c-.024,1.549.881,3.714,1.125,5.583.318,2.387-1.639,3.641-2.274,5.781-1.126-2.14-1.566-5.436-.587-7.035-1.737,2.239-1.223,3.985-1.077,5.535C142.371,102.594,144.866,99.347,148.509,96.617Zm0,0" transform="translate(-131.953 -96.617)" fill="#6dbd45" fill-rule="evenodd"/>
          <g id="Group_54937" data-name="Group 54937" transform="translate(6.514 8.583)">
            <path id="Path_69106" data-name="Path 69106" d="M151.016,144.16c1.125-4.7,2.348-8.683-.049-13.38a28.977,28.977,0,0,0-2.25-3.37,10.178,10.178,0,0,1,5.233,5.017c.44-.811.954-1.647,1.541-2.583.147,1.895-.563,2.239-.881,4.255a28.666,28.666,0,0,1,1.174,6.543c.147,1.77.123,2.853.245,3.492,6.163.049,5.024.467,5.024.467s-.247.638-7.705.638-8.078-.638-8.078-.638-.612-.418,5.722-.467Zm5.282-5.879-.391-2.681c1.736-2.017,3.716-2.706,6.7-3.738C160.993,134.223,160.088,132.65,156.3,138.281Zm0,0" transform="translate(-145.253 -127.41)" fill="#6dbd45" fill-rule="evenodd"/>
            <path id="Path_69109" data-name="Path 69109" d="M163.424,194.645h-3.668c-4.647.05-4.556.37-4.556.616,0,.27.79.32,6.243.32s7.063-.074,7.063-.32C168.5,195.038,167.923,194.695,163.424,194.645Zm0,0" transform="translate(-153.357 -176.479)" fill="#6dbd45" fill-rule="evenodd"/>
            <path id="Path_71133" data-name="Path 71133" d="M160.873,194.645h-2.531c-3.206.035-3.143.255-3.143.425,0,.186.545.221,4.307.221s4.872-.051,4.872-.221C164.378,194.916,163.976,194.679,160.873,194.645Zm0,0" transform="translate(-151.112 -175.209)" fill="#6dbd45" fill-rule="evenodd"/>
          </g>
        </g>
      </g>
      <path id="Union_2" data-name="Union 2" d="M.238,31.049c-.288-2.423-.893-10.062,2.4-13.592q.139-.149.287-.288c4.305-4.039,8.341-4.145,11.409-6.676.575-.47,1.062-.063,1.064.789A5.353,5.353,0,0,1,13.31,14.96a11.471,11.471,0,0,1-4.224,2.209.516.516,0,0,0-.2.345c-.01.577,1.827.83,5.02-.327l.216-.08h0l.122-.046c4.008-1.534,10.089-6.78,12.3-14.852l.008-.034c.017-.076.036-.148.057-.216l.012-.038.013-.039a2.006,2.006,0,0,1,.177-.4l0,0q.023-.037.046-.071c.51-.733,1.282-.093,1.174,2.023a12.752,12.752,0,0,1-.412,2.487C26.387,10.736,24.289,16.736,17.293,21.8c-3.915,2.831-5.623,5.223-6.2,8.055a11.5,11.5,0,0,0-.176,1.2ZM20.147,2.394a1.644,1.644,0,0,1,1.4-1.853c1.358.016.973,1.875.856,2.664a18.58,18.58,0,0,1-3.923,9.227A51.659,51.659,0,0,0,20.147,2.394ZM23.616.413A.962.962,0,0,1,24.5,0c.71.036,1.4.848.926,3.16-.833,4.063-5.676,9.149-5.676,9.149C23.071,7.759,23.046,1.214,23.616.413Z" transform="translate(46.393 46.214)" fill="#f4ad7e"/>
      <path id="Union_3" data-name="Union 3" d="M17.129,31.049a11.51,11.51,0,0,0-.177-1.2c-.576-2.832-2.284-5.224-6.2-8.055C3.757,16.736,1.659,10.736.422,5.92A13.549,13.549,0,0,1,.034,3.773C-.16,1.6.511.783,1.037,1.242a1.8,1.8,0,0,1,.461.966A23.562,23.562,0,0,0,2.755,5.7C5.51,11.792,10.4,15.76,13.794,17.06c3.11,1.19,5.022,1.084,5.321.6.086-.14.038-.311-.156-.492a11.471,11.471,0,0,1-4.224-2.209,5.555,5.555,0,0,1-2.08-3.514c-.064-.962.448-1.452,1.058-.953,2.708,2.235,6.171,2.579,9.907,5.408a18.6,18.6,0,0,1,1.5,1.268q.169.159.326.33c2.122,2.318,2.6,6.359,2.6,9.556a34.931,34.931,0,0,1-.238,3.993ZM5.645,3.205c-.117-.79-.5-2.649.855-2.664A1.644,1.644,0,0,1,7.9,2.394,51.693,51.693,0,0,0,9.567,12.432,18.584,18.584,0,0,1,5.645,3.205ZM2.617,3.161C2.142.85,2.833.037,3.543,0A.961.961,0,0,1,4.43.413c.57.8.545,7.345,3.863,11.9C8.293,12.31,3.449,7.225,2.617,3.161Z" transform="translate(0 46.214)" fill="#f4ad7e"/>
    </g>
    <text id="HOMESOUL" transform="translate(0 96.491)" fill="#2b2a29" font-size="18" font-family="Poppins-SemiBold, Poppins" font-weight="600" letter-spacing="0.1em"><tspan x="0" y="0">HOMESOUL</tspan></text>
  </g>
</svg>
