<svg xmlns="http://www.w3.org/2000/svg" width="41.339" height="41.359" viewBox="0 0 41.339 41.359">
  <g id="Group_59461" data-name="Group 59461" transform="translate(-27 -16.326)">
    <path id="Path_72223" data-name="Path 72223" d="M763.345,426h-17.33C738.488,426,734,430.488,734,438.015v17.309c0,7.548,4.488,12.036,12.015,12.036h17.309c7.527,0,12.015-4.487,12.015-12.015v-17.33C775.36,430.488,770.872,426,763.345,426Z" transform="translate(-707 -409.674)" fill="#1eaf67"/>
    <path id="Path_72224" data-name="Path 72224" d="M760.481,433.852H739.8a1.551,1.551,0,1,1,0-3.1h20.68a1.551,1.551,0,1,1,0,3.1Z" transform="translate(-702.461 -404.6)" fill="#2c5ab4"/>
    <path id="Path_72225" data-name="Path 72225" d="M760.481,438.352H739.8a1.551,1.551,0,1,1,0-3.1h20.68a1.551,1.551,0,1,1,0,3.1Z" transform="translate(-702.461 -399.795)" fill="#2c5ab4"/>
    <path id="Path_72226" data-name="Path 72226" d="M760.481,442.852H739.8a1.551,1.551,0,1,1,0-3.1h20.68a1.551,1.551,0,1,1,0,3.1Z" transform="translate(-702.461 -394.988)" fill="#2c5ab4"/>
  </g>
</svg>
