<svg xmlns="http://www.w3.org/2000/svg" xmlns:xlink="http://www.w3.org/1999/xlink" width="247.633" height="203.307" viewBox="0 0 247.633 203.307">
  <defs>
    <clipPath id="clip-path">
      <rect id="Rectangle_25212" data-name="Rectangle 25212" width="247.633" height="203.307" fill="none"/>
    </clipPath>
  </defs>
  <g id="Group_58788" data-name="Group 58788" clip-path="url(#clip-path)">
    <path id="Path_71732" data-name="Path 71732" d="M355.453,1223.7c16.436-7.878,28.293-26.021,30.254-46.289s-6.044-41.969-20.423-55.367c12.344-7.207,23.892-18.252,27.177-33.623,4.253-19.9-7.489-42.2-24.17-51.862s-36.721-8.218-53.357-.354c.244-14.038-10.027-27.92-22.42-30.3,8.006-10.034,4.108-26.927-3.45-38.265-14.44-21.658-41-32.161-63.244-25.012,3.949-25.608-11.732-54.256-34.187-62.461s-48.5,5.193-56.79,29.215c-12.494-8.377-30.507,1.137-32.111,16.963-6.342-7.694-16.811-10.626-25.155-7.045-4.383-14.763-20.3-22.264-33.713-20.409-16.064,2.222-29.755,15.1-36.1,31.645s-10.819,43.09-5.187,60.641Z" transform="translate(-145.704 -877.748)" fill="#3a6034"/>
    <path id="Path_71733" data-name="Path 71733" d="M178.18,884.877a169.155,169.155,0,0,0,1.258,30.72c2.426,17.242,8.368,33.935,18.8,47.451,9.99,12.95,23.641,21.523,38.6,22.677,14.3,1.1,28.421-4.061,40.189-12.255a121.877,121.877,0,0,0,22.248-20.72c-.823-.635-1.657-1.253-2.506-1.842-14.7,16.809-31.927,30.743-54,31.759a45.954,45.954,0,0,1-20.448-3.674,54.763,54.763,0,0,1-18.423-13.648c-10.865-11.965-17.626-27.738-20.731-44.087a160.151,160.151,0,0,1-2.112-38.068c-.973.53-1.934,1.085-2.87,1.687" transform="translate(-169.807 -877.718)" fill="#588251"/>
    <path id="Path_71734" data-name="Path 71734" d="M243.726,925.161a26.572,26.572,0,0,0,13.884,2.626c-.121-1.033-.277-2.064-.453-3.09a26.558,26.558,0,0,1-9.182-1.052c-4.948-1.554-9.791-5.4-11.387-11.164-1.44-5.2-.034-10.715,2.443-14.982a25.177,25.177,0,0,1,3.077-4.19q-1-1.112-2.046-2.163a29.716,29.716,0,0,0-2.6,3.313,23.934,23.934,0,0,0-4,16.618,19.46,19.46,0,0,0,10.26,14.085" transform="translate(-177.287 -877.673)" fill="#588251"/>
    <path id="Path_71735" data-name="Path 71735" d="M350.287,1052.613a26.164,26.164,0,0,0,10.989-.686,35.419,35.419,0,0,0,18.573-12.491A47.718,47.718,0,0,0,386,1029.144q-1.722.09-3.438.281c-4.051,8.2-10.142,14.873-18.34,18.2a27.763,27.763,0,0,1-9.818,2.1c-1.523.034-3.45.192-4.9-.518-1.852-.908-2.161-3.709-2.359-5.672-.833-8.234,2.34-15.981,5.733-22.8.763-1.535,1.568-3.037,2.392-4.525q-.939-1.3-1.986-2.486c-.814,1.445-1.609,2.9-2.366,4.39-3.744,7.35-7.276,15.743-6.626,24.666.322,4.415,1.515,9.036,5.99,9.831" transform="translate(-192.317 -876.98)" fill="#588251"/>
    <path id="Path_71736" data-name="Path 71736" d="M408.5,1031.585c-1.076,6.387.374,13.029,3.043,18.908,6.437,14.18,19.39,22.1,28.848,33.356a51.819,51.819,0,0,1,5.951,8.607c.419-1.209.78-2.45,1.091-3.718-7.6-12.38-19.714-19.853-28.362-31.179-4.331-5.672-7.784-12.816-8.118-20.251a22.751,22.751,0,0,1,.66-6.536c-.934-.251-1.872-.473-2.814-.67-.112.487-.214.98-.3,1.481" transform="translate(-200.974 -876.888)" fill="#588251"/>
    <path id="Path_71737" data-name="Path 71737" d="M327.425,1175.436c-.82.588-1.65,1.161-2.48,1.734l2.782,1.833a189.032,189.032,0,0,0,20.67-16.9c7.842-7.395,15.552-15.462,21.775-24.648,5.234-7.726,9.728-17.026,9.356-27.288-.371-10.222-5.85-18.881-13.181-24.833-8.22-6.672-17.943-9.445-27.582-11.516-10.133-2.176-20.741-3.76-29.958-9.717-7.409-4.787-14.409-12.568-15.588-22.406-.7-5.852.605-11.581,2.327-16.928a89.949,89.949,0,0,1,7.394-16.691c7.631-13.483,18.024-24.258,29.582-33.307q-.634-1.46-1.352-2.868a121.942,121.942,0,0,0-24.885,25.455c-6.633,9.32-12.239,20.13-14.955,31.9a34.686,34.686,0,0,0-.252,16.048,32.7,32.7,0,0,0,6.291,12.455c6.238,7.839,14.9,12.448,23.656,15.1,10.6,3.207,21.634,4.026,32.048,8.195,8.344,3.342,16.822,9.29,21.113,18.413,4.477,9.518,2.431,20.01-1.854,28.577-4.841,9.679-12.1,17.694-19.268,25.149a185.491,185.491,0,0,1-25.638,22.24" transform="translate(-185.008 -877.217)" fill="#588251"/>
    <path id="Path_71738" data-name="Path 71738" d="M259.176,1104.161c-1.088-17.211,1.548-34.516-.218-51.675-.816-7.923-2.3-16.883-7.176-22.894-2.27-2.8-5.455-4.675-8.823-4.333-3.439.349-6.43,2.558-8.92,5.217-5.813,6.207-8.565,15.331-9.755,24.19a146.891,146.891,0,0,0-.7,27.3,190.471,190.471,0,0,0,3.981,29.858c.586,2.716,1.228,5.451,1.963,8.149l5,3.293c-1.061-3.158-1.906-6.431-2.661-9.679a184.338,184.338,0,0,1-4.6-49.959c.4-8.421,1.647-17.24,5.522-24.522,3.29-6.182,10.4-13.381,16.135-6.635,4.623,5.439,5.8,14.554,6.42,21.834,1.329,15.642-.862,31.343-.11,47.008.595,12.384,2.55,24.882,2.6,37.316l3.716,2.449c.166-12.3-1.6-24.632-2.378-36.913" transform="translate(-175.939 -876.915)" fill="#588251"/>
    <path id="Path_71739" data-name="Path 71739" d="M184.891,1087.749a251.865,251.865,0,0,1-6.811-26.046c-1.533-8.238-2.134-16.875-.4-25.14,1.833-8.76,6.039-16.7,6.426-25.871.345-8.175-2.789-15.71-9.369-19.191s-14.55-3.391-21.361-.863c-7.387,2.742-13.239,8.682-19.292,14.055a228.678,228.678,0,0,1-19.56,15.543,216.37,216.37,0,0,1-29.011,17.334l4.11,2.708a218.085,218.085,0,0,0,19.419-11.232,225.209,225.209,0,0,0,19.242-14.015c6.2-5.032,11.907-10.934,18.259-15.69,6.157-4.608,13.336-7.028,20.675-5.809,3.711.617,7.539,2.126,10.123,5.434,2.233,2.86,3.016,6.737,3.017,10.513,0,8.923-4.283,16.849-6.184,25.283-1.763,7.829-1.565,15.989-.425,23.914,1.371,9.536,4.105,18.746,6.8,27.863q2.552,8.645,5.36,17.183l5.17,3.407q-3.259-9.615-6.181-19.381" transform="translate(-157.283 -877.121)" fill="#588251"/>
  </g>
</svg>
