<svg xmlns="http://www.w3.org/2000/svg" xmlns:xlink="http://www.w3.org/1999/xlink" width="207.832" height="268.522" viewBox="0 0 207.832 268.522">
  <defs>
    <clipPath id="clip-path">
      <rect id="Rectangle_25213" data-name="Rectangle 25213" width="207.832" height="268.522" fill="none"/>
    </clipPath>
  </defs>
  <g id="Group_58789" data-name="Group 58789" clip-path="url(#clip-path)">
    <path id="Path_71740" data-name="Path 71740" d="M1834.693,1201.626c3.575,22.613,17.806,41.8,36.308,48.958s40.643,2.035,56.49-13.065c3.891,17.281,11.555,34.439,25.172,42.143,17.625,9.971,41.2.262,54.077-18.616s16.158-44.565,12.642-67.428c13.071,3.548,28.423-6.244,33.511-21.375,7.536,12.445,24.233,11.411,36.58,4.463,23.586-13.272,39.536-44.452,37.983-74.247,23.036,10.9,53.444-2.325,66.3-28.843s6.334-62.565-14.218-78.594c10.717-13.876,5.974-38.861-8.455-44.543,8.658-6.248,13.816-18.819,12.392-30.2,14.816-2.14,25.5-20.547,26.863-37.946,1.628-20.837-7.254-41.131-21.264-52.979s-37.8-23.631-55.511-20.556Z" transform="translate(-1991.069 -1010.495)" fill="#3a6034"/>
    <path id="Path_71741" data-name="Path 71741" d="M1958.509,934.332a121.508,121.508,0,0,0-29.019-5.5c-16.683-.909-33.664,2.759-48.711,12.833a73.081,73.081,0,0,0-30.113,43.608c-4.331,17.838-2.76,36.9,2.187,53.677a161.908,161.908,0,0,0,14.244,32.93c.784-.9,1.554-1.807,2.3-2.746-12.328-22.476-21.384-47.488-17.241-75.654a75.152,75.152,0,0,1,8.153-25.025,67.371,67.371,0,0,1,17.013-20.159,74.09,74.09,0,0,1,46.012-16.058c12.331-.122,24.38,2.37,36.088,6.11-.271-1.353-.57-2.7-.916-4.021" transform="translate(-1751.592 -919.819)" fill="#588251"/>
    <path id="Path_71742" data-name="Path 71742" d="M1876.2,994.417c-3.166,5.044-4.8,10.96-5.659,16.961.994.084,1.993.125,3,.14a44.383,44.383,0,0,1,3.1-11.374c2.594-5.9,7.309-11.144,13.066-11.831,5.2-.622,10.028,2.43,13.448,6.548a28.712,28.712,0,0,1,3.208,4.859q1.272-1.006,2.5-2.09a34.813,34.813,0,0,0-2.5-4.056c-3.605-4.959-8.813-8.671-14.62-8.889-6.117-.23-11.867,3.883-15.539,9.732" transform="translate(-1720.399 -915.743)" fill="#588251"/>
    <path id="Path_71743" data-name="Path 71743" d="M2031.984,871.127a45.077,45.077,0,0,0-1.895,14.061,52.12,52.12,0,0,0,7.4,26.382,49.9,49.9,0,0,0,8.2,10.157q.314-2.2.533-4.414a46.44,46.44,0,0,1-12.791-27.4,47.564,47.564,0,0,1,.3-12.909c.318-1.935.616-4.408,1.613-6.074,1.277-2.133,3.967-1.876,5.848-1.675,7.894.845,14.4,6.649,20,12.514,1.259,1.319,2.478,2.685,3.68,4.071a31.985,31.985,0,0,0,2.782-1.939c-1.164-1.363-2.344-2.706-3.559-4.006-6.011-6.432-13.045-12.838-21.538-14.075-4.2-.611-8.8-.168-10.576,5.311" transform="translate(-2017.133 -706.21)" fill="#588251"/>
    <path id="Path_71744" data-name="Path 71744" d="M2126.063,814.977c-5.725-2.835-12.27-2.532-18.385-.512-14.745,4.872-25.138,19.434-37.85,28.8a47.9,47.9,0,0,1-9.422,5.544,34.685,34.685,0,0,0,3.225,2.238c13.331-6.762,23.114-20.362,35.7-28.69,6.3-4.171,13.781-6.893,20.812-5.6a17.077,17.077,0,0,1,5.96,2.343q.676-1.686,1.275-3.407c-.43-.254-.867-.5-1.317-.719" transform="translate(-2103.068 -582.527)" fill="#588251"/>
    <path id="Path_71745" data-name="Path 71745" d="M1984.049,898.718c-.361-1.174-.7-2.356-1.05-3.538l-2.356,3.1a263.13,263.13,0,0,0,11.035,30.051c5.105,11.628,10.87,23.245,18.025,33.239,6.018,8.4,13.677,16.236,23.361,18.133,9.645,1.889,19.006-3.046,26.263-10.949,8.137-8.86,12.973-20.523,17.134-32.24,4.373-12.319,8.3-25.376,16-35.662,6.186-8.269,15.077-15.331,24.549-14.554,5.635.463,10.692,3.437,15.295,6.849a84.379,84.379,0,0,1,13.9,13.206c10.848,12.765,18.526,28.4,24.321,45.112q1.514-.465,3-1.05c-4.6-13.39-10.386-26.1-18.063-37.359-7.186-10.542-16-20.129-26.385-26.281-4.572-2.709-9.646-4.448-14.949-4.022a27.159,27.159,0,0,0-13.1,5.086c-8.769,6.084-15.077,15.977-19.577,26.448-5.443,12.666-8.757,26.444-15.057,38.656-5.051,9.787-12.57,19.141-22.091,22.464-9.934,3.469-19.273-1.54-26.3-8.938-7.934-8.358-13.754-19.4-19.073-30.181a253.212,253.212,0,0,1-14.883-37.569" transform="translate(-2080.25 -781.764)" fill="#588251"/>
    <path id="Path_71746" data-name="Path 71746" d="M2052.525,1051.661c16.346,2.595,31.92,9.922,48.375,11.646,7.6.8,16.32.984,23.065-3.8a14.431,14.431,0,0,0,6.088-10.164c.467-4.431-.909-8.725-2.821-12.489-4.463-8.787-12.361-14.375-20.372-17.924a107.126,107.126,0,0,0-25.367-7.186,136.282,136.282,0,0,0-28.841-1.85c-2.675.115-5.38.3-8.073.6l-4.231,5.561a77.785,77.785,0,0,1,9.666-1.133,132.081,132.081,0,0,1,47.78,5.71c7.783,2.449,15.742,6.062,21.658,12.644,5.022,5.588,10.114,16.247,2.482,21.946-6.152,4.594-14.949,3.982-21.9,3.085-14.934-1.928-29.111-8.322-43.936-10.985-11.717-2.1-23.856-2.515-35.5-5.314l-3.147,4.137c11.46,3.047,23.405,3.655,35.069,5.507" transform="translate(-2068.699 -993.207)" fill="#588251"/>
    <path id="Path_71747" data-name="Path 71747" d="M1980.3,1184.57c8.593-1.266,17.255-2.566,25.93-2.608,8.058-.039,16.272,1.194,23.6,5.289,7.77,4.34,14.229,11.495,22.711,14.1,7.566,2.323,15.335.1,20.108-7.427s6.529-17.627,5.736-26.828c-.86-9.979-5.063-18.752-8.692-27.653q-5.646-13.848-10.022-28.334a331.085,331.085,0,0,1-9.517-40.7l-3.48,4.575q2.463,13.735,6.022,27.161,3.739,14.029,8.667,27.579c3.276,9,7.479,17.588,10.461,26.723,2.888,8.853,3.5,18.494.662,27.5-1.434,4.552-3.728,9.049-7.417,11.554-3.19,2.165-7,2.262-10.528,1.392-8.344-2.054-14.768-9.306-22.218-13.656-6.914-4.038-14.59-5.669-22.266-6.056-9.232-.466-18.478.869-27.625,2.171q-8.673,1.234-17.3,2.817l-4.379,5.756q9.745-1.907,19.55-3.349" transform="translate(-1968.099 -1192.666)" fill="#588251"/>
  </g>
</svg>
