<svg xmlns="http://www.w3.org/2000/svg" width="8.979" height="8.975" viewBox="0 0 8.979 8.975">
  <path id="Path_1566" data-name="Path 1566" d="M741.983,235a3.4,3.4,0,0,0-5.651,3.411l-2.11,2.11a.9.9,0,0,0-.22.669l.135.979a.847.847,0,0,0,.673.673l.979.135a.872.872,0,0,0,.669-.224l.368-.368a.222.222,0,0,0,0-.319l-.871-.871a.336.336,0,0,1,.476-.476l.875.875a.225.225,0,0,0,.314,0l.952-.947A3.4,3.4,0,0,0,741.983,235Zm-2.374,3.492a1.122,1.122,0,1,1,1.122-1.122A1.123,1.123,0,0,1,739.608,238.493Z" transform="translate(-733.996 -234.008)" fill="#aeadad"/>
</svg>
