<svg xmlns="http://www.w3.org/2000/svg" width="57.906" height="63.845" viewBox="0 0 57.906 63.845">
  <g id="Group_59449" data-name="Group 59449" transform="translate(-1308.094 -426.078)">
    <path id="Path_735" data-name="Path 735" d="M401.239,244.035a25.6,25.6,0,0,0-6.512-.734,9.137,9.137,0,0,0-6.672,2.234,2.06,2.06,0,0,0-.287.255l-3.033,3.224a6.8,6.8,0,0,1-9.7-.032L372,245.791a2.06,2.06,0,0,0-.287-.255,9.137,9.137,0,0,0-6.672-2.234,25.6,25.6,0,0,0-6.512.734c-7.6,2.043-7.6,8.076-7.6,13.375v2.969c0,8.012,0,17.078,17.078,17.078h23.75c11.332,0,17.078-5.746,17.078-17.078V257.41C408.836,252.111,408.836,246.078,401.239,244.035Zm-13.918,21.93H372.445a2.235,2.235,0,0,1,0-4.469h14.875a2.235,2.235,0,0,1,0,4.469Z" transform="translate(957.164 212.467)" fill="#1eaf67"/>
    <path id="Path_736" data-name="Path 736" d="M367.562,241.342l2.075,2.075a2.144,2.144,0,0,0,3.033-3.032l-5.746-5.746a2.727,2.727,0,0,0-.7-.479,2.222,2.222,0,0,0-.8-.16,2.549,2.549,0,0,0-.83.16,2.2,2.2,0,0,0-.638.415c-.032.032-.032.032-.064.032l-5.746,5.778a2.144,2.144,0,0,0,3.033,3.032l2.075-2.075v5.427h4.309Z" transform="translate(971.617 192.078)" fill="#2c5ab4"/>
    <path id="Path_737" data-name="Path 737" d="M398.82,251.151a2.065,2.065,0,0,0-.415-.128h-.032a29.7,29.7,0,0,0-7.725-.894c-4.916,0-7.246,1.436-9.353,3.032a8.257,8.257,0,0,0-1.085.958l-3.033,3.224a1.962,1.962,0,0,1-1.373.511,1.938,1.938,0,0,1-1.373-.543l-3.128-3.288a5.188,5.188,0,0,0-.8-.7,13.739,13.739,0,0,0-9.545-3.192,30.12,30.12,0,0,0-7.757.894,2.065,2.065,0,0,0-.415.128c.032-6.352.67-13.151,14.109-13.151h6.767v9.832a2.139,2.139,0,0,0,4.277,0V238h6.767C398.15,238,398.788,244.8,398.82,251.151Z" transform="translate(961.239 200.847)" fill="#2c5ab4"/>
  </g>
</svg>
