<svg xmlns="http://www.w3.org/2000/svg" width="22.553" height="22.553" viewBox="0 0 22.553 22.553">
  <g id="Group_57938" data-name="Group 57938" transform="translate(1 1)">
    <path id="Path_12702" data-name="Path 12702" d="M690.235,304.7v-4.665c0-1.449-.658-2.035-2.292-2.035h-4.152c-1.634,0-2.292.586-2.292,2.035v4.655c0,1.459.658,2.035,2.292,2.035h4.152C689.577,306.735,690.235,306.149,690.235,304.7Z" transform="translate(-669.682 -298)" fill="none" stroke="#fff" stroke-linecap="round" stroke-linejoin="round" stroke-width="2"/>
    <path id="Path_12703" data-name="Path 12703" d="M690.235,315.943v-4.152c0-1.634-.658-2.292-2.292-2.292h-4.152c-1.634,0-2.292.658-2.292,2.292v4.152c0,1.634.658,2.292,2.292,2.292h4.152C689.577,318.235,690.235,317.577,690.235,315.943Z" transform="translate(-669.682 -297.682)" fill="none" stroke="#fff" stroke-linecap="round" stroke-linejoin="round" stroke-width="2"/>
    <path id="Path_12704" data-name="Path 12704" d="M678.735,304.7v-4.665c0-1.449-.658-2.035-2.292-2.035h-4.152c-1.634,0-2.292.586-2.292,2.035v4.655c0,1.459.658,2.035,2.292,2.035h4.152C678.077,306.735,678.735,306.149,678.735,304.7Z" transform="translate(-670 -298)" fill="none" stroke="#fff" stroke-linecap="round" stroke-linejoin="round" stroke-width="2"/>
    <path id="Path_12705" data-name="Path 12705" d="M678.735,315.943v-4.152c0-1.634-.658-2.292-2.292-2.292h-4.152c-1.634,0-2.292.658-2.292,2.292v4.152c0,1.634.658,2.292,2.292,2.292h4.152C678.077,318.235,678.735,317.577,678.735,315.943Z" transform="translate(-670 -297.682)" fill="none" stroke="#fff" stroke-linecap="round" stroke-linejoin="round" stroke-width="2"/>
  </g>
</svg>
