<svg xmlns="http://www.w3.org/2000/svg" xmlns:xlink="http://www.w3.org/1999/xlink" width="167.169" height="164.763" viewBox="0 0 167.169 164.763">
  <defs>
    <clipPath id="clip-path">
      <rect id="Rectangle_25342" data-name="Rectangle 25342" width="164.599" height="164.763" fill="#e3eedd"/>
    </clipPath>
    <clipPath id="clip-path-2">
      <rect id="Rectangle_25439" data-name="Rectangle 25439" width="154.414" height="137.425" transform="translate(0 0)" fill="none"/>
    </clipPath>
  </defs>
  <g id="Group_59459" data-name="Group 59459" transform="translate(-1345 -422.574)">
    <g id="Group_59442" data-name="Group 59442" transform="translate(1345 422.574)">
      <g id="Group_59243" data-name="Group 59243" clip-path="url(#clip-path)">
        <path id="Path_72058" data-name="Path 72058" d="M39.059,9.906C33.6,17.861,40,30.758,31.9,36.74c-7.882,5.824-17.565-3.722-24.993,1.291C-4.109,45.467-2.1,79.5,14.014,100.637,18.859,107,22.907,109.469,24.7,116.66c3.85,15.44-9.681,24.625-7.106,32.262,5.8,17.195,94.966,31.623,130.744-20.053,16.71-24.135,19.21-58.986,4.28-85.455C125.641-4.416,51.3-7.943,39.059,9.906" transform="translate(0 -0.003)" fill="#e3eedd"/>
      </g>
    </g>
    <g id="Group_59441" data-name="Group 59441" transform="translate(1357.756 449.908)">
      <g id="Group_59440" data-name="Group 59440" transform="translate(0 0.003)" clip-path="url(#clip-path-2)">
        <path id="Path_72176" data-name="Path 72176" d="M186.585,161.681l-.4-.136.485-1.411-4.247-1.46-.46-.158-1.9-.654-.461-.159-3.377-1.161h0l.372-1.083a1.4,1.4,0,0,0-.869-1.78l-.173-.059a1.4,1.4,0,0,0-1.78.869l-.372,1.083h0l-3.52-1.21.372-1.083a1.4,1.4,0,0,0-.869-1.78l-.173-.059a1.4,1.4,0,0,0-1.78.869l-.372,1.083-3.263-1.122.372-1.083a1.4,1.4,0,0,0-.869-1.78l-.173-.059a1.4,1.4,0,0,0-1.78.869l-.372,1.083h0l-3.377-1.162h0l.372-1.083a1.4,1.4,0,0,0-.869-1.78l-.173-.059a1.4,1.4,0,0,0-1.78.869l-.372,1.083h0l-3.236-1.113.372-1.083a1.4,1.4,0,0,0-.869-1.78l-.173-.059a1.4,1.4,0,0,0-1.78.869l-.372,1.083h0l-3.263-1.122.372-1.083a1.4,1.4,0,0,0-.869-1.78l-.173-.059a1.4,1.4,0,0,0-1.78.869l-.372,1.083-2.3-.791-1.7-.585.343-1a1.532,1.532,0,0,0,.06-.229,1.493,1.493,0,0,0-2.882-.741l-.343,1-3.262-1.122.342-1a1.541,1.541,0,0,0,.06-.23,1.492,1.492,0,0,0-2.881-.741l-.342,1-3.379-1.162.343-1a1.531,1.531,0,0,0,.06-.229,1.492,1.492,0,0,0-2.881-.741l-.03.088-1.329-11.864a12.647,12.647,0,0,0,7.086-4.1,12.785,12.785,0,0,0,1.865-2.809,12.638,12.638,0,0,0,1.289-5.464,5,5,0,0,1,4.964-1.076,12.66,12.66,0,0,0,3.428,5.167,12.828,12.828,0,0,0,2.671,1.871,12.71,12.71,0,1,0-6.776-10.229,8.008,8.008,0,0,0-4.708.92,12.735,12.735,0,0,0-12.638-9.463l-1.045-9.328L96.578,93.612l-.533-4.759-17.05,1.911L78.819,89.2a2.9,2.9,0,1,0-5.766.646l.175,1.565-17.05,1.911.533,4.759-22.075,2.473L47.278,213.425l76.66-8.59,15.244,5.243L166.7,219.54a1.018,1.018,0,0,0,1.293-.631l19.227-55.935a1.018,1.018,0,0,0-.631-1.293M148.034,98.4a9.722,9.722,0,1,1-7.818,11.674q-.045-.206-.082-.416a9.737,9.737,0,0,1,7.9-11.258M75.766,88a1.326,1.326,0,1,1-1.17,1.466A1.326,1.326,0,0,1,75.766,88m53.857,23.5q.063.357.1.713a9.741,9.741,0,0,1-7.538,10.453l-2.152-19.214a9.74,9.74,0,0,1,9.592,8.049" transform="translate(-32.858 -82.171)" fill="#1b9c91"/>
        <rect id="Rectangle_25435" data-name="Rectangle 25435" width="84.541" height="113.578" transform="translate(0 13.932) rotate(-6.39)" fill="#fff"/>
        <path id="Path_72177" data-name="Path 72177" d="M442.315,4.148l-.175-1.565a2.9,2.9,0,1,0-5.766.646l.175,1.565L419.5,6.7l1.183,10.565L460.548,12.8,459.365,2.237Zm-2.933-.124a1.326,1.326,0,1,1,1.17-1.466,1.326,1.326,0,0,1-1.17,1.466" transform="translate(-397.957 -0.004)" fill="#2e2e2c"/>
        <path id="Path_72178" data-name="Path 72178" d="M186.856,436.823l-.017-.151a1.166,1.166,0,0,1,1.029-1.289l37.148-4.162a1.166,1.166,0,0,1,1.289,1.029l.017.151a1.166,1.166,0,0,1-1.029,1.289l-37.148,4.163a1.166,1.166,0,0,1-1.289-1.029" transform="translate(-177.238 -409.07)" fill="#a3bac4"/>
        <path id="Path_72179" data-name="Path 72179" d="M202.421,519.388l-.017-.151a1.167,1.167,0,0,1,1.029-1.289l64.4-7.216a1.166,1.166,0,0,1,1.289,1.029l.017.151a1.166,1.166,0,0,1-1.029,1.289l-64.4,7.216a1.166,1.166,0,0,1-1.289-1.029" transform="translate(-192.004 -484.498)" fill="#a3bac4"/>
        <path id="Path_72180" data-name="Path 72180" d="M216.855,648.268l-.017-.151a1.166,1.166,0,0,1,1.029-1.289l64.4-7.216a1.166,1.166,0,0,1,1.289,1.029l.017.151a1.167,1.167,0,0,1-1.029,1.289l-64.4,7.216a1.166,1.166,0,0,1-1.289-1.029" transform="translate(-205.696 -606.76)" fill="#a3bac4"/>
        <path id="Path_72181" data-name="Path 72181" d="M545.964,840.24l-.017-.151a1.166,1.166,0,0,1,1.029-1.289l23.509-2.634a1.166,1.166,0,0,1,1.289,1.029l.017.151a1.166,1.166,0,0,1-1.029,1.289l-23.509,2.634a1.166,1.166,0,0,1-1.289-1.029" transform="translate(-517.905 -793.221)" fill="#a3bac4"/>
        <path id="Path_72182" data-name="Path 72182" d="M561.528,927.859l-.017-.151a1.166,1.166,0,0,1,1.029-1.289L610.86,921a1.166,1.166,0,0,1,1.289,1.029l.017.151a1.166,1.166,0,0,1-1.029,1.289l-48.319,5.414a1.166,1.166,0,0,1-1.289-1.029" transform="translate(-532.67 -873.703)" fill="#a3bac4"/>
        <path id="Path_72183" data-name="Path 72183" d="M592.022,1251.492l-.017-.151a1.166,1.166,0,0,1,1.029-1.289l23.509-2.634a1.166,1.166,0,0,1,1.289,1.029l.017.151a1.166,1.166,0,0,1-1.029,1.289l-23.509,2.634a1.166,1.166,0,0,1-1.289-1.029" transform="translate(-561.598 -1183.355)" fill="#a3bac4"/>
        <path id="Path_72184" data-name="Path 72184" d="M607.587,1339.111l-.017-.151a1.167,1.167,0,0,1,1.029-1.289l48.319-5.414a1.166,1.166,0,0,1,1.289,1.029l.017.151a1.167,1.167,0,0,1-1.029,1.289l-48.319,5.414a1.166,1.166,0,0,1-1.289-1.029" transform="translate(-576.364 -1263.837)" fill="#a3bac4"/>
        <path id="Path_72185" data-name="Path 72185" d="M641.383,1692.239l-.017-.151a1.167,1.167,0,0,1,1.029-1.289l23.509-2.634a1.166,1.166,0,0,1,1.289,1.029l.017.151a1.167,1.167,0,0,1-1.029,1.289l-23.509,2.634a1.166,1.166,0,0,1-1.289-1.029" transform="translate(-608.425 -1601.469)" fill="#a3bac4"/>
        <path id="Path_72186" data-name="Path 72186" d="M656.948,1779.858l-.017-.151a1.166,1.166,0,0,1,1.029-1.289L706.28,1773a1.166,1.166,0,0,1,1.289,1.029l.017.151a1.166,1.166,0,0,1-1.029,1.289l-48.319,5.414a1.166,1.166,0,0,1-1.289-1.029" transform="translate(-623.19 -1681.951)" fill="#a3bac4"/>
        <rect id="Rectangle_25436" data-name="Rectangle 25436" width="9.629" height="10.078" transform="matrix(0.994, -0.111, 0.111, 0.994, 11.831, 47.51)" fill="#d0dd63"/>
        <rect id="Rectangle_25437" data-name="Rectangle 25437" width="9.629" height="10.078" transform="translate(14.183 68.514) rotate(-6.39)" fill="#feb50e"/>
        <rect id="Rectangle_25438" data-name="Rectangle 25438" width="9.629" height="10.078" transform="matrix(0.994, -0.111, 0.111, 0.994, 16.708, 91.056)" fill="#fd1a48"/>
        <path id="Path_72187" data-name="Path 72187" d="M1138.153,966.319l-19.227,55.935a1.018,1.018,0,0,1-1.293.631l-27.514-9.463-50.51-17.37a1.018,1.018,0,0,1-.631-1.293l.37-1.077,18.857-54.858a1.016,1.016,0,0,1,1.292-.631l1.755.6.725.249,2.55.877.725.25,2.083.716.725.249,2.549.877.726.25,2.058.707.725.25,2.549.876.725.25,2.2.757.726.249,2.55.877.725.249,2.118.728.692.238,2.55.877.693.238,1.6.551,1.253.431.725.249,2.55.877.726.249,2.084.717.725.249,2.551.878.725.249,2.058.707.725.25,2.55.877.726.249,2.2.756.725.249,2.55.877.725.249,2.116.728.693.238,2.55.877.693.238,2.375.817.725.249,2.55.877.725.249,2.2.756.725.249,2.55.877.725.25,3.657,1.258.4.136a1.018,1.018,0,0,1,.631,1.293" transform="translate(-985.573 -889.963)" fill="#585858"/>
        <path id="Path_72188" data-name="Path 72188" d="M1120.388,923.7l-.485,1.411-19.188,55.82-27.779-9.554-50.81-17.474-1.358-.467,19.673-57.232,4.664,1.6.46.158,1.9.654.459.158,3.263,1.122.46.158,1.9.654.46.158,3.236,1.113.46.158,1.9.654.461.159,3.379,1.162.46.158,1.9.654.461.158,3.262,1.122.8.273,1.232.424.794.273,1.7.585,2.3.791.46.158,1.9.654.461.158,3.263,1.122.46.159,1.9.653.46.159,3.237,1.113.461.159,1.9.654.46.158,3.377,1.162.46.158,1.9.654.461.158,3.263,1.122.8.274,1.232.423.794.274,3.52,1.21.461.158,1.9.654.461.159,3.377,1.161.461.159,1.9.654.46.158Z" transform="translate(-968.35 -850.18)" fill="#fff"/>
        <path id="Path_72189" data-name="Path 72189" d="M1491.3,890.155a1.549,1.549,0,0,1-.06.23l-.343,1-.114.334-.163.473a1.492,1.492,0,0,1-2.894-.319,1.461,1.461,0,0,1,.012-.422,1.543,1.543,0,0,1,.06-.229l.163-.474.114-.333.343-1a1.492,1.492,0,0,1,2.881.74" transform="translate(-1411.318 -842.787)" fill="#585858"/>
        <path id="Path_72190" data-name="Path 72190" d="M1468.247,931.473a2.155,2.155,0,1,1,1.337,2.739,2.155,2.155,0,0,1-1.337-2.739" transform="translate(-1392.74 -882.261)" fill="#585858"/>
        <path id="Path_72191" data-name="Path 72191" d="M1586.733,972.222a2.155,2.155,0,1,1,1.337,2.739,2.155,2.155,0,0,1-1.337-2.739" transform="translate(-1505.141 -920.917)" fill="#585858"/>
        <path id="Path_72192" data-name="Path 72192" d="M1704.712,1012.8a2.155,2.155,0,1,1,1.337,2.739,2.155,2.155,0,0,1-1.337-2.739" transform="translate(-1617.062 -959.408)" fill="#585858"/>
        <path id="Path_72193" data-name="Path 72193" d="M1825.437,1054.315a2.155,2.155,0,1,1,1.337,2.739,2.155,2.155,0,0,1-1.337-2.739" transform="translate(-1731.588 -998.795)" fill="#585858"/>
        <path id="Path_72194" data-name="Path 72194" d="M1942.986,1097.789a2.155,2.155,0,1,1,1.337,2.739,2.155,2.155,0,0,1-1.337-2.739" transform="translate(-1843.101 -1040.037)" fill="#585858"/>
        <path id="Path_72195" data-name="Path 72195" d="M1609.778,930.913a1.541,1.541,0,0,1-.06.229l-.343,1-.115.333-.163.475a1.492,1.492,0,0,1-1.9.925,1.492,1.492,0,0,1-1-1.245,1.457,1.457,0,0,1,.013-.422,1.53,1.53,0,0,1,.06-.229l.163-.474.115-.333.342-1a1.493,1.493,0,0,1,2.882.741" transform="translate(-1523.716 -881.451)" fill="#585858"/>
        <path id="Path_72196" data-name="Path 72196" d="M1727.763,971.485a1.541,1.541,0,0,1-.06.229l-.343,1-.114.333-.163.474a1.493,1.493,0,0,1-1.9.926,1.494,1.494,0,0,1-1-1.245,1.467,1.467,0,0,1,.013-.423,1.507,1.507,0,0,1,.06-.229l.163-.475.114-.332.343-1a1.492,1.492,0,0,1,2.881.74" transform="translate(-1635.643 -919.94)" fill="#585858"/>
        <path id="Path_72197" data-name="Path 72197" d="M1727.763,971.485a1.541,1.541,0,0,1-.06.229l-.343,1-.114.333-.163.474a1.493,1.493,0,0,1-1.9.926,1.494,1.494,0,0,1-1-1.245,1.467,1.467,0,0,1,.013-.423,1.507,1.507,0,0,1,.06-.229l.163-.475.114-.332.343-1a1.492,1.492,0,0,1,2.881.74" transform="translate(-1635.643 -919.94)" fill="#585858"/>
        <path id="Path_72198" data-name="Path 72198" d="M1848.487,1013a1.539,1.539,0,0,1-.06.23l-.342,1-.115.333-.163.474a1.492,1.492,0,0,1-2.893-.318,1.461,1.461,0,0,1,.013-.422,1.512,1.512,0,0,1,.06-.229l.163-.475.115-.332.342-1a1.492,1.492,0,0,1,2.881.741" transform="translate(-1750.167 -959.32)" fill="#585858"/>
        <path id="Path_72199" data-name="Path 72199" d="M1966.97,1053.752a1.523,1.523,0,0,1-.06.229l-.343,1-.163.473-.115.333a1.492,1.492,0,0,1-2.894-.318,1.461,1.461,0,0,1,.013-.422,1.539,1.539,0,0,1,.059-.229l.115-.334.162-.472.343-1a1.493,1.493,0,0,1,2.882.741" transform="translate(-1862.565 -997.983)" fill="#585858"/>
        <path id="Path_72200" data-name="Path 72200" d="M2095.83,1100.127l.679-1.976a1.4,1.4,0,0,1,1.78-.869l.173.059a1.4,1.4,0,0,1,.869,1.78l-.679,1.976a1.4,1.4,0,0,1-1.78.869l-.173-.059a1.4,1.4,0,0,1-.869-1.78" transform="translate(-1988.135 -1040.863)" fill="#585858"/>
        <path id="Path_72201" data-name="Path 72201" d="M2076.764,1140.749a2.155,2.155,0,1,1,1.337,2.739,2.155,2.155,0,0,1-1.337-2.739" transform="translate(-1970.009 -1080.79)" fill="#585858"/>
        <path id="Path_72202" data-name="Path 72202" d="M2195.25,1181.5a2.155,2.155,0,1,1,1.337,2.739,2.155,2.155,0,0,1-1.337-2.739" transform="translate(-2082.411 -1119.447)" fill="#585858"/>
        <path id="Path_72203" data-name="Path 72203" d="M2313.23,1222.073a2.155,2.155,0,1,1,1.337,2.739,2.155,2.155,0,0,1-1.337-2.739" transform="translate(-2194.332 -1157.938)" fill="#585858"/>
        <path id="Path_72204" data-name="Path 72204" d="M2433.954,1263.591a2.155,2.155,0,1,1,1.337,2.739,2.155,2.155,0,0,1-1.337-2.739" transform="translate(-2308.857 -1197.324)" fill="#585858"/>
        <path id="Path_72205" data-name="Path 72205" d="M2551.5,1307.066a2.155,2.155,0,1,1,1.337,2.739,2.155,2.155,0,0,1-1.337-2.739" transform="translate(-2420.37 -1238.567)" fill="#585858"/>
        <path id="Path_72206" data-name="Path 72206" d="M2214.316,1140.876l.679-1.976a1.4,1.4,0,0,1,1.78-.869l.173.059a1.4,1.4,0,0,1,.869,1.78l-.679,1.976a1.4,1.4,0,0,1-1.78.869l-.173-.059a1.4,1.4,0,0,1-.869-1.78" transform="translate(-2100.537 -1079.519)" fill="#585858"/>
        <path id="Path_72207" data-name="Path 72207" d="M2332.3,1181.45l.679-1.976a1.4,1.4,0,0,1,1.78-.869l.173.059a1.4,1.4,0,0,1,.869,1.78l-.679,1.976a1.4,1.4,0,0,1-1.78.869l-.173-.059a1.4,1.4,0,0,1-.869-1.78" transform="translate(-2212.458 -1118.01)" fill="#585858"/>
        <path id="Path_72208" data-name="Path 72208" d="M2332.3,1181.45l.679-1.976a1.4,1.4,0,0,1,1.78-.869l.173.059a1.4,1.4,0,0,1,.869,1.78l-.679,1.976a1.4,1.4,0,0,1-1.78.869l-.173-.059a1.4,1.4,0,0,1-.869-1.78" transform="translate(-2212.458 -1118.01)" fill="#585858"/>
        <path id="Path_72209" data-name="Path 72209" d="M2453.02,1222.969l.679-1.976a1.4,1.4,0,0,1,1.78-.869l.173.059a1.4,1.4,0,0,1,.869,1.78l-.679,1.976a1.4,1.4,0,0,1-1.78.869l-.173-.059a1.4,1.4,0,0,1-.869-1.78" transform="translate(-2326.983 -1157.397)" fill="#585858"/>
        <path id="Path_72210" data-name="Path 72210" d="M2571.506,1263.718l.679-1.976a1.4,1.4,0,0,1,1.78-.869l.173.059a1.4,1.4,0,0,1,.869,1.78l-.679,1.976a1.4,1.4,0,0,1-1.78.869l-.173-.059a1.4,1.4,0,0,1-.869-1.78" transform="translate(-2439.385 -1196.053)" fill="#585858"/>
        <path id="Path_72211" data-name="Path 72211" d="M2675.939,1346.813a2.155,2.155,0,1,1,1.337,2.739,2.155,2.155,0,0,1-1.337-2.739" transform="translate(-2538.416 -1276.273)" fill="#585858"/>
        <path id="Path_72212" data-name="Path 72212" d="M2796.664,1388.332a2.155,2.155,0,1,1,1.337,2.739,2.155,2.155,0,0,1-1.337-2.739" transform="translate(-2652.942 -1315.66)" fill="#585858"/>
        <path id="Path_72213" data-name="Path 72213" d="M2695.005,1306.19l.679-1.976a1.4,1.4,0,0,1,1.78-.869l.173.06a1.4,1.4,0,0,1,.869,1.78l-.679,1.976a1.4,1.4,0,0,1-1.78.869l-.173-.059a1.4,1.4,0,0,1-.869-1.78" transform="translate(-2556.542 -1236.345)" fill="#585858"/>
        <path id="Path_72214" data-name="Path 72214" d="M2695.005,1306.19l.679-1.976a1.4,1.4,0,0,1,1.78-.869l.173.06a1.4,1.4,0,0,1,.869,1.78l-.679,1.976a1.4,1.4,0,0,1-1.78.869l-.173-.059a1.4,1.4,0,0,1-.869-1.78" transform="translate(-2556.542 -1236.345)" fill="#585858"/>
        <path id="Path_72215" data-name="Path 72215" d="M2815.73,1347.709l.679-1.976a1.4,1.4,0,0,1,1.78-.869l.173.059a1.4,1.4,0,0,1,.869,1.78l-.679,1.976a1.4,1.4,0,0,1-1.78.869l-.173-.059a1.4,1.4,0,0,1-.869-1.78" transform="translate(-2671.068 -1275.732)" fill="#585858"/>
        <path id="Path_72216" data-name="Path 72216" d="M1472.548,339.324a9.765,9.765,0,1,1,11.3,7.936,9.767,9.767,0,0,1-11.3-7.936" transform="translate(-1396.791 -311.034)" fill="#b0d99d"/>
        <path id="Path_72217" data-name="Path 72217" d="M2054.972,237.294a9.765,9.765,0,1,1,11.3,7.936,9.767,9.767,0,0,1-11.3-7.936" transform="translate(-1949.307 -214.243)" fill="#b0d99d"/>
        <path id="Path_72218" data-name="Path 72218" d="M1455.882,168.558a12.731,12.731,0,0,0-10.476,13.553,8.007,8.007,0,0,0-4.708.92,12.662,12.662,0,1,0,.422,3.347,5,5,0,0,1,4.964-1.076,12.662,12.662,0,0,0,3.427,5.167,12.832,12.832,0,0,0,2.671,1.871,12.71,12.71,0,1,0,3.7-23.782m-17.8,16.755a9.725,9.725,0,1,1-.1-.713q.062.357.1.713m21.667,5.348a9.737,9.737,0,0,1-11.173-7.486c-.03-.138-.058-.276-.082-.416a9.724,9.724,0,1,1,11.255,7.9" transform="translate(-1343 -159.721)" fill="#2e2e2c"/>
        <path id="Path_72219" data-name="Path 72219" d="M1501.629,376.74a.9.9,0,0,1-1.031-.7,12.305,12.305,0,0,1-.035-4,9.267,9.267,0,0,1,4.323-6.726.9.9,0,0,1,.939,1.527,7.419,7.419,0,0,0-3.481,5.416,10.681,10.681,0,0,0,.01,3.418.9.9,0,0,1-.7,1.058l-.027.005" transform="translate(-1423.372 -346.431)" fill="#fff"/>
        <path id="Path_72220" data-name="Path 72220" d="M2094.923,272.806a.9.9,0,0,1-1.031-.7,12.312,12.312,0,0,1-.035-4,9.266,9.266,0,0,1,4.323-6.726.9.9,0,0,1,.939,1.527,7.42,7.42,0,0,0-3.481,5.416,10.687,10.687,0,0,0,.01,3.418.9.9,0,0,1-.7,1.058l-.027.005" transform="translate(-1986.2 -247.834)" fill="#fff"/>
      </g>
    </g>
  </g>
</svg>
