<svg xmlns="http://www.w3.org/2000/svg" width="368.601" height="141.913" viewBox="0 0 368.601 141.913">
  <g id="Group_58975" data-name="Group 58975" transform="translate(-719.263 -173.547)">
    <path id="Path_71918" data-name="Path 71918" d="M5320.541,25.723A25.734,25.734,0,0,1,5346.284,0V25.723Z" transform="translate(-4321.113 181.746)" fill="#f4b220" fill-rule="evenodd"/>
    <path id="Path_71919" data-name="Path 71919" d="M5918.24,583.2h20.779a20.869,20.869,0,0,1-7.206,15.737Z" transform="translate(-4887.339 -370.741)" fill="#f0687b" fill-rule="evenodd"/>
    <path id="Path_71920" data-name="Path 71920" d="M5927.357,108.393c-.765-.281-.382-.127,0,0m.025.025a25.739,25.739,0,0,1,16.6,24.037H5918.24Z" transform="translate(-4887.339 79.214)" fill="#6564ac" fill-rule="evenodd"/>
    <path id="Path_71921" data-name="Path 71921" d="M5914.541,158.573l-7.41,19.505V157.173a20.611,20.611,0,0,1,7.41,1.4" transform="translate(-4876.814 32.853)" fill="#f7a271" fill-rule="evenodd"/>
    <path id="Path_71922" data-name="Path 71922" d="M5441.052,617.141a25.712,25.712,0,0,1-25.718-25.718h25.718l16.806,19.48a25.617,25.617,0,0,1-16.806,6.239" transform="translate(-4410.914 -378.53)" fill="#6bc06f" fill-rule="evenodd"/>
    <path id="Path_71923" data-name="Path 71923" d="M1065.552,25.08a16.984,16.984,0,1,0,16.984,16.985,16.964,16.964,0,0,0-16.984-16.985m0,5.22a11.764,11.764,0,1,0,11.764,11.764A11.769,11.769,0,0,0,1065.552,30.3m0-7.563a19.314,19.314,0,1,0,19.3,19.327,19.333,19.333,0,0,0-19.3-19.327m0,12.935,2.241,4.176,4.482.713-3.285,3.412.714,4.481-4.278-2.063-4.023,2.063.637-4.711-3.208-3.183,4.66-.866Z" transform="translate(-271.87 160.21)" fill="#6bc06f" fill-rule="evenodd"/>
    <path id="Path_71924" data-name="Path 71924" d="M852.216,645.762a8.4,8.4,0,1,0,8.4,8.4,8.4,8.4,0,0,0-8.4-8.4m0,2.6a5.818,5.818,0,1,0,5.806,5.806,5.808,5.808,0,0,0-5.806-5.806m0-3.743a9.549,9.549,0,1,0,9.549,9.549,9.558,9.558,0,0,0-9.549-9.549m0,6.391,1.095,2.063,2.215.356-1.6,1.706.331,2.215L852.14,656.3l-1.986,1.044.305-2.343-1.579-1.579,2.317-.433Z" transform="translate(-79.007 -428.923)" fill="#6bc06f" fill-rule="evenodd"/>
    <path id="Path_71925" data-name="Path 71925" d="M3054.28,262.875l11.942-11.968,11.968-11.942L3066.222,227l-11.942-11.968L3042.312,227l-11.967,11.968,11.967,11.942Zm21.593-32.008,5.5-5.475,5.475-5.5-5.475-5.5-5.5-5.475-5.5,5.475-5.475,5.5,5.475,5.5Zm18.31-8.327,3.234-3.234,3.234-3.234-3.234-3.259-3.234-3.234-3.26,3.234-3.233,3.259,3.233,3.234Zm-5.374,14.234,3.361-3.361,3.335-3.336-3.335-3.361-3.361-3.361-3.336,3.361-3.361,3.361,3.361,3.336Zm-11.458,26.05,4.38-4.354,4.354-4.38-4.354-4.355-4.38-4.354L3073,249.736l-4.354,4.355,4.354,4.38Z" transform="translate(-2151.512 -16.167)" fill="#f7a271" fill-rule="evenodd"/>
    <path id="Path_71926" data-name="Path 71926" d="M134.2,629.473h-20.8L98.9,701.738h13.063l2.47-13.113h17.443l2.444,13.113h14.361Zm-11.1,12.808,6.85,36.54h-13.7Zm62.565,59.457h14.591V629.473H187.592v43.263l-14.616-43.263H155.152v72.266h12.783V649.411Zm56.351-72.266H221.2l-14.489,72.266h13.064l2.444-13.113h17.468l2.445,13.113H256.5Zm-11.1,12.808,6.85,36.54h-13.7Zm32.186,59.457H300.7V691.426H277.3V629.473H263.092Zm49.119,0H326.42V677.8l17.978-48.33H330.826l-10.872,32.95L309.1,629.473h-14.87l17.977,48.33Zm35.165-54.925c0,20.651,27.782,23.452,27.782,38.3,0,5.169-2.852,7.028-7.359,7.028-4.533,0-7.385-1.86-7.385-7.028v-5.144H346.97V684.4c0,11.56,7.257,18.18,21.211,18.18s21.186-6.62,21.186-18.18c0-20.652-27.781-23.427-27.781-38.3,0-5.169,2.572-7.13,7.1-7.13s7.1,1.961,7.1,7.13v3h13.445v-2.292c0-11.56-7.1-18.155-20.931-18.155s-20.931,6.6-20.931,18.155m50.139,54.925H411.75V629.473H397.515Zm22.765-54.925c0,20.651,27.781,23.452,27.781,38.3,0,5.169-2.852,7.028-7.359,7.028-4.532,0-7.384-1.86-7.384-7.028v-5.144H419.873V684.4c0,11.56,7.257,18.18,21.211,18.18s21.211-6.62,21.211-18.18c0-20.652-27.806-23.427-27.806-38.3,0-5.169,2.6-7.13,7.1-7.13,4.532,0,7.1,1.961,7.1,7.13v3h13.445v-2.292c0-11.56-7.1-18.155-20.931-18.155s-20.931,6.6-20.931,18.155" transform="translate(625.569 -413.805)" fill="#b0d99d" fill-rule="evenodd"/>
    <path id="Path_71927" data-name="Path 71927" d="M1651.587,1286.685h5.577v-6.723h-5.577Zm6.035.916H1650.7v-8.529h7.385v8.529Z" transform="translate(-844.512 -1029.969)" fill="#216a4d"/>
    <path id="Path_71928" data-name="Path 71928" d="M1534.309,1172.614h-6.927v-14.921h7.384v14.921Zm-6.035-.916h5.6v-13.114h-5.6Z" transform="translate(-727.692 -914.982)" fill="#f4b220"/>
    <path id="Path_71929" data-name="Path 71929" d="M1404.962,1011.813h5.6V989.838h-5.6Zm6.036.916h-6.927V988.921h7.384v23.808Z" transform="translate(-610.873 -755.097)" fill="#e84c40"/>
    <path id="Path_71930" data-name="Path 71930" d="M1287.684,861.55h-6.926V829.34h7.385V861.55Zm-6.035-.916h5.6v-30.4h-5.6Z" transform="translate(-494.053 -603.919)" fill="#019565"/>
    <path id="Path_71931" data-name="Path 71931" d="M1158.345,667.771h5.6V626.647h-5.6Zm6.06.916h-6.951V625.756h7.384v42.931Z" transform="translate(-377.242 -411.055)" fill="#d7526d"/>
    <path id="Path_71932" data-name="Path 71932" d="M1426.764,580.08c-5.6-2.394-13.241-4.023-17.85-16.2l3.234-.637-8.073-6.162-2.419,9.65,2.928-1.4c5.424,10.593,15.2,13.063,22.179,14.744" transform="translate(-608.585 -346.001)" fill="#d7526d" fill-rule="evenodd"/>
    <path id="Path_71933" data-name="Path 71933" d="M620.381,1372.881a4.545,4.545,0,1,0,4.533,4.558,4.548,4.548,0,0,0-4.533-4.558m6.111,16.348a2.928,2.928,0,1,1,2.928-2.928,2.928,2.928,0,0,1-2.928,2.928m-4.278,6.748a2.292,2.292,0,1,1,2.292-2.291,2.3,2.3,0,0,1-2.292,2.291" transform="translate(135.843 -1118.839)" fill="#019565" fill-rule="evenodd"/>
    <path id="Path_71934" data-name="Path 71934" d="M114.829,1193.907a8.666,8.666,0,0,1-8.53,7.41H92.243a1.283,1.283,0,0,1-.331-.025,8.664,8.664,0,0,1-4.838-1.986v-1.681l.051.051a7.424,7.424,0,0,0,4.863,2.394,7.536,7.536,0,0,0,1.095-.178h.025l.051-.026a.733.733,0,0,0,.23-.051h.025l.051-.025a1.892,1.892,0,0,1,.2-.077h.025l.051-.025h.026l.051-.025h.025l.051-.026h.026l.051-.025H94l.051-.026h.025l.025-.025h.051l.025-.026.026-.025h.051l.026-.026.051-.026h.025l.026-.025h.051l.026-.025.051-.026h.025l.025-.026.051-.025h.025l.128-.076.051-.027h.026l.026-.025.051-.025.026-.026h.025l.051-.025.025-.026c.076-.026.127-.077.2-.1v-.026h.026l.025-.025c.178-.128.356-.23.509-.357l.026-.026.051-.025c.127-.1.229-.178.357-.281v-.026l.153-.152h.025l.051-.051.051-.05.051-.051.051-.051.051-.051H96.7l.026-.051.025-.026.025-.05.076-.051.051-.051.051-.051v-.026l.051-.051.051-.051.025-.051.026-.026.025-.052h.026l.026-.05.051-.051v-.026l.051-.051.051-.051v-.026l.051-.051.026-.051v-.025l.051-.051.051-.051v-.026l.025-.051h.026l.025-.052v-.026l.051-.051.025-.076.051-.051.026-.077h.025l.026-.051v-.026l.051-.051.026-.077.025-.051.025-.026.025-.051.025-.076.051-.076.026-.052v-.025l.025-.051.051-.076.026-.076.025-.077.026-.05v-.026l.025-.051.051-.077.025-.076.026-.076.025-.077.025-.076.025-.077.026-.076.025-.076v-.076h.026v-.076l.026-.076.026-.078.025-.127v-.026l.025-.076.025-.076v-.076l.026-.077.025-.076v-.077l.025-.076v-.076l.076-.535h1.324v-22.23H85.138v9.574H83.916v-10.8h17.391v23.453h13.623Zm-26.992-18.614h9.855v1.12H87.837Zm0,14.158h9.855v1.12H87.837Zm0-4.736h9.855v1.146H87.837Zm0-4.711h9.855v1.12H87.837Zm23.3,18.283a7.275,7.275,0,0,0,2.343-3.845H99.805v.076l-.025.1-.026.076-.025.077-.025.077v.1l-.026.076-.025.077-.025.076-.026.076-.025.076-.025.076-.051.179-.026.076-.051.076-.025.076-.025.076-.025.076-.025.076-.051.076-.026.077-.025.077-.051.076-.026.077-.051.076-.025.051v.025l-.026.051-.025.025-.026.052-.051.076-.025.076-.051.076-.026.077-.051.051v.026l-.051.051-.025.076-.051.076-.051.052v.026l-.025.051h-.025l-.025.076-.051.052v.025l-.051.051-.051.077-.051.05v.026l-.051.051-.025.051-.026.025-.025.051h-.026l-.025.051-.026.025-.025.051h-.026l-.025.051-.026.025-.051.051-.051.051v.026l-.051.051-.051.052-.051.076-.051.051-.025.026-.026.025-.025.026-.025.051H97.59l-.051.051v.025l-.051.026v.025l-.051.051h-.025l-.051.051-.051.05v.026l-.051.025-.026.026-.025.025-.025.026-.051.051-.051.051h-.025v.026c-.2.154-.407.332-.636.484a5.725,5.725,0,0,1-.636.432H106.3a7.414,7.414,0,0,0,4.838-1.808" transform="translate(639.766 -926.42)" fill="#4d4d4d"/>
    <path id="Path_71935" data-name="Path 71935" d="M.319,1393.967l3.056,4.558a.612.612,0,0,0,.84.178.589.589,0,0,0,.179-.178l3.055-4.558a.623.623,0,0,0,.127-.381v-18.156a.619.619,0,0,0-.611-.611H.8c-1.324,0-.611,16.806-.611,18.767v.153l.026.026v.05H.243v.052c.026.025.026.051.051.051v.025Zm3.565,3.132-1.961-2.9h3.9Zm-2.47-21.058h4.94v16.933H1.414Z" transform="translate(719.263 -1120.674)" fill="#019565"/>
    <path id="Path_71936" data-name="Path 71936" d="M1207.461,1858.218a14.314,14.314,0,1,1,10.771-1.935,14.284,14.284,0,0,1-10.771,1.935m-7.843-7a12.9,12.9,0,1,0-1.757-9.727,12.924,12.924,0,0,0,1.757,9.727" transform="translate(-413.931 -1551.796)" fill="#25c77e"/>
    <path id="Path_71937" data-name="Path 71937" d="M1291.612,1911.45l-1.554,1.554a5.266,5.266,0,0,1,.484,1.019,7.146,7.146,0,0,1,.357,1.043h2.674v3.9h-2.725a7.138,7.138,0,0,1-.357,1.044,10.518,10.518,0,0,1-.484.943l1.6,1.629.331.331-.331.333-2.113,2.087-.331.331-.305-.331-1.655-1.63c-.306.178-.611.331-.942.485-.331.127-.662.229-1.019.331v2.776h-3.922v-2.776c-.331-.1-.662-.2-.993-.331-.331-.154-.662-.306-.968-.485l-1.63,1.63-.331.331-.331-.331-2.113-2.087-.331-.333.331-.331,1.63-1.6c-.178-.331-.356-.635-.509-.967-.127-.331-.255-.687-.356-1.044h-2.7v-3.9h2.674a7,7,0,0,1,.331-1.043c.152-.356.3-.688.484-1.019l-1.553-1.554-.331-.331.331-.305,2.113-2.114.331-.331.331.331,1.528,1.528a6.188,6.188,0,0,1,.993-.51,5.84,5.84,0,0,1,1.069-.356v-2.624h3.922v2.624a4.784,4.784,0,0,1,1.069.356,5.54,5.54,0,0,1,1.019.51l1.527-1.528.305-.331.331.331,2.113,2.114.331.305Zm-2.47,1.171,1.477-1.5-1.452-1.426-1.451,1.452-.255.255-.331-.2a8.6,8.6,0,0,0-1.171-.637,7.335,7.335,0,0,0-1.274-.382l-.356-.076v-2.445h-2.063v2.445l-.382.076a7.06,7.06,0,0,0-1.248.382,8.954,8.954,0,0,0-1.2.637l-.306.2-.28-.255-1.452-1.452-1.451,1.426,1.477,1.5.28.255-.2.306a5.739,5.739,0,0,0-.611,1.171,9.214,9.214,0,0,0-.382,1.274l-.076.356h-2.5v2.063h2.547l.077.357a4.9,4.9,0,0,0,.382,1.223,8.17,8.17,0,0,0,.611,1.145l.229.306-.28.281-1.553,1.552,1.451,1.452,1.579-1.58.255-.254.305.2a6.087,6.087,0,0,0,1.146.586,9.226,9.226,0,0,0,1.2.382l.382.076v2.6h2.063v-2.6l.356-.076a8.5,8.5,0,0,0,1.223-.382,6.76,6.76,0,0,0,1.12-.586l.331-.2.255.254,1.553,1.58,1.452-1.452-1.528-1.552-.28-.281.2-.306a6.215,6.215,0,0,0,.637-1.145,8.583,8.583,0,0,0,.382-1.223l.076-.357h2.521v-2.062h-2.5l-.077-.356a6.671,6.671,0,0,0-.355-1.274,10.269,10.269,0,0,0-.612-1.171l-.2-.306Zm-5.857-.458a4.671,4.671,0,0,1,3.361,1.4,4.757,4.757,0,0,1,1.4,3.362,4.781,4.781,0,0,1-4.762,4.762,4.76,4.76,0,0,1-3.361-1.4,4.671,4.671,0,0,1-1.4-3.362,4.782,4.782,0,0,1,4.762-4.762m2.725,2.063a3.894,3.894,0,0,0-2.725-1.12,3.825,3.825,0,0,0-3.819,3.82,3.9,3.9,0,0,0,1.12,2.725,3.834,3.834,0,0,0,2.7,1.119,3.824,3.824,0,0,0,3.845-3.844,3.832,3.832,0,0,0-1.12-2.7" transform="translate(-486.727 -1624.586)" fill="#d7526d"/>
    <path id="Path_71938" data-name="Path 71938" d="M1131.654,2169.842h-.815l.05,5.093h.816Zm14.361-9.727.281-.764,3.616,1.452-.305.764Zm-8.963,8.632.764-.305,1.5,3.564-.764.331Zm9.931-11.662.128-.815,2.521.459-.153.814Zm-2.521,5.805.433-.688,2.139,1.4-.433.688Zm-4.507,4.38.662-.458,1.451,2.088-.688.458Zm-5.882,2.317.79-.153.534,2.5-.815.153Zm13.114.255.561-.585-.535-.509-.56.586Zm-4.736-4.582.585-.587,3.642,3.54-.561.585Zm-26.05-4.966-.331-.764-3.59,1.5.331.738Zm9.04,8.53-.764-.306-1.452,3.591.738.305Zm-10.058-11.561-.153-.788-2.5.484.153.79Zm2.6,5.781-.458-.661-2.113,1.4.458.688Zm4.558,4.329-.688-.459-1.4,2.115.662.457Zm5.907,2.266-.814-.178-.484,2.521.789.153Zm-13.114.408-.586-.586.535-.535.586.586Zm16.373,6.391h-.816v-.738l.816-.025Zm-11.714-11.051-.56-.561-3.616,3.59.56.56Z" transform="translate(-334.636 -1860.978)" fill="#25c77e" fill-rule="evenodd"/>
    <path id="Path_71939" data-name="Path 71939" d="M1777.592,1348.594a.675.675,0,1,1,0-1.35h39.52a.68.68,0,0,1,.687.662v48.05a.684.684,0,0,1-.687.687h-9.88a.675.675,0,1,1,0-1.349h9.217v-46.7Z" transform="translate(-964.074 -1094.552)" fill="#4d4d4d"/>
    <path id="Path_71940" data-name="Path 71940" d="M408.395,1752.893a.886.886,0,0,1,.891-.891.9.9,0,0,1,.891.891v1.808a.9.9,0,0,1-.891.891.886.886,0,0,1-.891-.891Zm36.362,15.736a.908.908,0,0,1,.917.891.892.892,0,0,1-.917.892h-1.783a.891.891,0,0,1-.916-.892.908.908,0,0,1,.916-.891Zm-7.181,0a.9.9,0,0,1,.891.891.886.886,0,0,1-.891.892h-1.808a.886.886,0,0,1-.891-.892.9.9,0,0,1,.891-.891Zm-7.181,0a.9.9,0,0,1,.891.891.886.886,0,0,1-.891.892h-1.808a.886.886,0,0,1-.891-.892.9.9,0,0,1,.891-.891Zm-7.181,0a.9.9,0,0,1,.891.891.886.886,0,0,1-.891.892h-1.808a.87.87,0,0,1-.891-.892.886.886,0,0,1,.891-.891Zm-7.206,0a.908.908,0,0,1,.917.891.892.892,0,0,1-.917.892h-1.783a.892.892,0,0,1-.917-.892.908.908,0,0,1,.917-.891Zm-5.832.434a.907.907,0,0,1-.891.916.892.892,0,0,1-.891-.916v-1.783a.891.891,0,0,1,.891-.916.907.907,0,0,1,.891.916Zm0-7.182a.885.885,0,0,1-.891.892.871.871,0,0,1-.891-.892v-1.807a.886.886,0,0,1,.891-.891.9.9,0,0,1,.891.891Z" transform="translate(332.373 -1477.996)" fill="#25c77e"/>
    <path id="Path_71941" data-name="Path 71941" d="M1463.425,1642.975a.9.9,0,0,1-1.808,0v-1.808a.9.9,0,0,1,1.808,0Zm106.387-10.415a.9.9,0,0,1,0,1.808H1568a.9.9,0,0,1,0-1.808Zm-7.205,0a.9.9,0,1,1,0,1.808h-1.783a.9.9,0,0,1,0-1.808Zm-7.18,0a.9.9,0,0,1,0,1.808h-1.783a.9.9,0,1,1,0-1.808Zm-7.181,0a.9.9,0,0,1,0,1.808h-1.808a.9.9,0,0,1,0-1.808Zm-7.182,0a.9.9,0,0,1,0,1.808h-1.807a.9.9,0,0,1,0-1.808Zm-7.205,0a.9.9,0,1,1,0,1.808h-1.782a.9.9,0,0,1,0-1.808Zm-7.181,0a.9.9,0,1,1,0,1.808h-1.783a.9.9,0,1,1,0-1.808Zm-7.181,0a.9.9,0,0,1,0,1.808h-1.807a.9.9,0,0,1,0-1.808Zm-7.18,0a.9.9,0,0,1,0,1.808h-1.808a.9.9,0,0,1,0-1.808Zm-7.181,0a.9.9,0,0,1,0,1.808h-1.808a.9.9,0,0,1,0-1.808Zm-7.206,0a.9.9,0,1,1,0,1.808h-1.783a.9.9,0,1,1,0-1.808Zm-7.181,0a.9.9,0,0,1,0,1.808h-1.808a.9.9,0,0,1,0-1.808Zm-7.181,0a.9.9,0,0,1,0,1.808h-1.808a.9.9,0,0,1,0-1.808Zm-7.181,0a.9.9,0,0,1,0,1.808h-1.808a.9.9,0,0,1,0-1.808Zm-7.206,0a.9.9,0,1,1,0,1.808H1467.4a.9.9,0,1,1,0-1.808Zm-7.563,1.426a.9.9,0,0,1,1.808,0v1.808a.9.9,0,0,1-1.808,0Z" transform="translate(-665.388 -1364.845)" fill="#25c77e"/>
    <path id="Path_71942" data-name="Path 71942" d="M3536.059,1241.5H3515v27.4h14.947v1.146h-15.507a.6.6,0,0,1-.408-.178.541.541,0,0,1-.152-.408v-28.035c-.051,0-.077,0-.1-.025a1.44,1.44,0,0,1-.458-.306,1.134,1.134,0,0,1-.281-.432,1.331,1.331,0,0,1-.1-.535v-1.2a1.142,1.142,0,0,1,.1-.509,1.056,1.056,0,0,1,.281-.459,1.446,1.446,0,0,1,.458-.3,1.652,1.652,0,0,1,.535-.1h7.512a3.561,3.561,0,0,1,.28-1.172,3.465,3.465,0,0,1,2.011-2.012,3.712,3.712,0,0,1,2.826,0,3.9,3.9,0,0,1,1.222.79,3.783,3.783,0,0,1,1.07,2.394h7.512a1.664,1.664,0,0,1,.535.1,1.44,1.44,0,0,1,.458.3,1.063,1.063,0,0,1,.281.459,1.135,1.135,0,0,1,.1.509v1.2a1.322,1.322,0,0,1-.1.535,1.143,1.143,0,0,1-.281.432,1.434,1.434,0,0,1-.458.306c-.026.025-.052.025-.1.025v12.935h-1.121Zm-6.112,18.869H3517.7v1.323h12.248Zm-.662-5.145H3517.7v1.35h11.586Zm4.075-5.118H3517.7v1.325h15.661Zm0-5.119H3517.7v1.325h15.661Zm3.259-4.633h.229c.025-.026.051-.026.076-.051s.051-.052.051-.078a.151.151,0,0,0,.026-.1v-1.2a.091.091,0,0,0-.026-.076c0-.025-.026-.051-.051-.076s-.051-.051-.076-.051c-.026-.025-.051-.025-.1-.025h-8.378v-.077a.672.672,0,0,1-.153-.127.548.548,0,0,1-.127-.433v-.051l.025-.077v-.152a2.529,2.529,0,0,0-.2-.968,2.422,2.422,0,0,0-.561-.841,2.449,2.449,0,0,0-.839-.56,2.461,2.461,0,0,0-1.962,0,2.723,2.723,0,0,0-.84.56,2.432,2.432,0,0,0-.56.841,2.533,2.533,0,0,0-.2.968.279.279,0,0,0,.025.152v.2a.52.52,0,0,1-.153.382v.026a.624.624,0,0,1-.407.153h-8.1c-.051,0-.076,0-.1.025-.026,0-.051.025-.078.051a.18.18,0,0,0-.076.152v1.2a.158.158,0,0,0,.025.1c0,.026.026.052.051.078s.052.025.078.051h22.408Zm-11.078-3.209a.756.756,0,0,0-.254.051.457.457,0,0,0-.178.128l-.025.025a.393.393,0,0,0-.152.2.732.732,0,0,0-.052.229.742.742,0,0,0,.052.254.39.39,0,0,0,.152.2.6.6,0,0,0,.2.153.753.753,0,0,0,.254.051.735.735,0,0,0,.229-.051.6.6,0,0,0,.2-.153.39.39,0,0,0,.152-.2.731.731,0,0,0,.051-.254.718.718,0,0,0-.051-.229.393.393,0,0,0-.152-.2.4.4,0,0,0-.2-.152.738.738,0,0,0-.229-.051m-1.044-.79a1.616,1.616,0,0,1,.358-.2,1.511,1.511,0,0,1,.687-.153,1.484,1.484,0,0,1,.663.153,1.541,1.541,0,0,1,.586.382,1.558,1.558,0,0,1,.382.585,1.478,1.478,0,0,1,.127.663,1.521,1.521,0,0,1-.127.688,1.791,1.791,0,0,1-.382.585,2.336,2.336,0,0,1-.586.383,1.919,1.919,0,0,1-.663.128,1.946,1.946,0,0,1-.687-.128,2.34,2.34,0,0,1-.586-.383,1.789,1.789,0,0,1-.381-.585,1.508,1.508,0,0,1-.127-.687,1.465,1.465,0,0,1,.127-.663,1.557,1.557,0,0,1,.381-.585l.2-.2Z" transform="translate(-2608.693 -987.357)" fill="#4d4d4d"/>
    <path id="Path_71943" data-name="Path 71943" d="M3833.71,1536.2h-25.667v33.409h21.236v-4.023h.1a.5.5,0,0,1,.1-.153.823.823,0,0,1,.483-.2l3.742-.05Zm-3.284,22.994h-19.1v1.629h19.1Zm0-6.264h-19.1v1.63h19.1Zm0-6.238h-19.1v1.6h19.1Zm0-6.265h-19.1v1.6h19.1Zm2.291,26.152-2.037.026v2.012Zm2.317-.433c0,.051-.052.1-.077.153h-.025v.025l-.026.025-.026.027-4.4,4.4-.026.025-.025.026h-.025v.026h-.026v.026h-.051v.025h-.052v.026h-.025a.5.5,0,0,1-.279.051h-22.612a.712.712,0,0,1-.509-.2.7.7,0,0,1-.2-.483v-34.2a.189.189,0,0,1-.1-.052,1.521,1.521,0,0,1-.535-.357,1.579,1.579,0,0,1-.382-.535,1.9,1.9,0,0,1-.128-.637v-1.452a1.913,1.913,0,0,1,.128-.661,1.5,1.5,0,0,1,.356-.535h.026a1.513,1.513,0,0,1,.535-.357,1.357,1.357,0,0,1,.636-.127h9.168a4.826,4.826,0,0,1,1.323-2.928,4.518,4.518,0,0,1,6.418,0,4.511,4.511,0,0,1,1.3,2.928h9.193a1.365,1.365,0,0,1,.637.127,1.5,1.5,0,0,1,.534.357,2.046,2.046,0,0,1,.383.535,1.912,1.912,0,0,1,.126.661v1.452a1.9,1.9,0,0,1-.126.637,2.051,2.051,0,0,1-.383.535,1.512,1.512,0,0,1-.534.357c-.051.026-.077.052-.127.052v29.944l-.025.026v.051h-.027Zm-.611-31.346h.153a.151.151,0,0,0,.1-.026.193.193,0,0,0,.1-.051.194.194,0,0,0,.052-.1.152.152,0,0,0,.026-.1v-1.452a.188.188,0,0,0-.026-.127.194.194,0,0,0-.052-.1c-.025-.026-.076-.026-.1-.051a.154.154,0,0,0-.1-.025h-10.236v-.1a.54.54,0,0,1-.2-.153.7.7,0,0,1-.127-.51v-.331a3.25,3.25,0,0,0-.229-1.222,3.419,3.419,0,0,0-.688-1.019,3.189,3.189,0,0,0-4.431,0,2.876,2.876,0,0,0-.687,1.044,3.016,3.016,0,0,0-.23,1.2v.408a.7.7,0,0,1-.2.483.649.649,0,0,1-.483.2h-9.88a.154.154,0,0,0-.1.025c-.051.026-.076.026-.1.051v.026a.25.25,0,0,0-.077.2v1.452a.15.15,0,0,0,.026.1.2.2,0,0,0,.05.1.134.134,0,0,0,.1.051.151.151,0,0,0,.1.026h27.246Zm-13.546-3.921a1.3,1.3,0,0,0-.307.051,1.245,1.245,0,0,0-.229.153l-.025.025a.932.932,0,0,0-.178.256.956.956,0,0,0-.051.3.921.921,0,0,0,.051.28.643.643,0,0,0,.178.255.582.582,0,0,0,.255.178.938.938,0,0,0,.612,0,.784.784,0,0,0,.255-.178.43.43,0,0,0,.152-.255.511.511,0,0,0,.077-.28.541.541,0,0,0-.077-.3.867.867,0,0,0-.152-.256,1.636,1.636,0,0,0-.255-.178,1.305,1.305,0,0,0-.3-.051m-1.275-.968a1.5,1.5,0,0,1,.434-.254,2.243,2.243,0,0,1,.841-.178,2.22,2.22,0,0,1,.813.178,2.281,2.281,0,0,1,.714.458,2.737,2.737,0,0,1,.484.713,2.241,2.241,0,0,1,.153.841,2.2,2.2,0,0,1-.153.815,2.373,2.373,0,0,1-.484.713,1.919,1.919,0,0,1-.714.458,1.819,1.819,0,0,1-.813.178,1.855,1.855,0,0,1-.841-.178,2.047,2.047,0,0,1-.688-.458h-.025a2.314,2.314,0,0,1-.459-.713,2.211,2.211,0,0,1-.152-.815,2.071,2.071,0,0,1,.636-1.553l.229-.229Z" transform="translate(-2885.846 -1264.971)" fill="#216a4d"/>
    <path id="Path_71944" data-name="Path 71944" d="M2235.127,487.587h.917v-5.729h-.917Zm-16.17,10.822-.356.866-4.048-1.656.356-.84Zm10.109-9.625-.865.356-1.656-4.049.841-.357Zm-11.229,13.037-.179.891-2.8-.535.178-.891Zm2.877-6.519-.509.764-2.395-1.579.51-.764Zm5.092-4.889-.764.509-1.6-2.368.763-.509Zm6.62-2.572-.917.178-.561-2.8.892-.178Zm-14.742-.357-.637.662.586.586.661-.662Zm5.27,5.169-.637.662-4.074-4,.636-.662Zm29.258,5.755.332.866,4.047-1.656-.33-.84Zm-10.109-9.625.84.356,1.681-4.049-.866-.357Zm11.2,13.037.179.891,2.8-.535-.178-.891Zm-2.852-6.519.509.764,2.367-1.579-.509-.764Zm-5.093-4.889.739.509,1.6-2.368-.763-.509Zm-6.621-2.572.891.178.562-2.8-.891-.178Zm14.718-.357.637.662-.586.586-.637-.662Zm-18.334-7.282h.917v.815h-.917Zm13.063,12.452.637.662,4.1-4-.662-.662Z" transform="translate(-1378.678 -273.167)" fill="#f96445" fill-rule="evenodd"/>
    <path id="Path_71945" data-name="Path 71945" d="M2354.457,693.519l14.9,8.607a1.854,1.854,0,0,1,.662,2.52l-1.833,3.209a1.869,1.869,0,0,1-2.546.688l-14.9-8.607a15.576,15.576,0,1,1,3.718-6.417m-25.489-10.44a12.133,12.133,0,1,1,4.456,16.578,12.124,12.124,0,0,1-4.456-16.578" transform="translate(-1482.245 -456.334)" fill="#f96445" fill-rule="evenodd"/>
    <path id="Path_71946" data-name="Path 71946" d="M2093.477,364.8a.9.9,0,0,1,0,1.808h-1.783a.9.9,0,1,1,0-1.808Zm155.506-36.922a.886.886,0,0,1,.892.891.9.9,0,0,1-.892.891h-1.806a.9.9,0,0,1-.892-.891.885.885,0,0,1,.892-.891Zm-7.18,0a.886.886,0,0,1,.891.891.9.9,0,0,1-.891.891H2240a.9.9,0,0,1-.892-.891.886.886,0,0,1,.892-.891Zm-7.206,0a.892.892,0,0,1,.917.891.908.908,0,0,1-.917.891h-1.783a.885.885,0,0,1-.891-.891.87.87,0,0,1,.891-.891Zm-7.181,0a.871.871,0,0,1,.892.891.887.887,0,0,1-.892.891h-1.782a.908.908,0,0,1-.917-.891.892.892,0,0,1,.917-.891Zm-7.181,0a.885.885,0,0,1,.891.891.9.9,0,0,1-.891.891h-1.807a.9.9,0,0,1-.892-.891.886.886,0,0,1,.892-.891Zm-7.18,0a.886.886,0,0,1,.891.891.9.9,0,0,1-.891.891h-1.808a.9.9,0,0,1-.891-.891.885.885,0,0,1,.891-.891Zm-7.207,0a.892.892,0,0,1,.917.891.908.908,0,0,1-.917.891h-1.782a.886.886,0,0,1-.892-.891.871.871,0,0,1,.892-.891Zm-7.18,0a.87.87,0,0,1,.891.891.886.886,0,0,1-.891.891h-1.782a.908.908,0,0,1-.917-.891.892.892,0,0,1,.917-.891Zm-7.181,0a.886.886,0,0,1,.892.891.9.9,0,0,1-.892.891h-1.808a.9.9,0,0,1-.891-.891.886.886,0,0,1,.891-.891Zm-7.181,0a.886.886,0,0,1,.891.891.9.9,0,0,1-.891.891H2182.5a.9.9,0,0,1-.891-.891.886.886,0,0,1,.891-.891Zm-7.206,0a.892.892,0,0,1,.917.891.908.908,0,0,1-.917.891h-1.783a.886.886,0,0,1-.891-.891.87.87,0,0,1,.891-.891Zm-7.181,0a.891.891,0,0,1,.916.891.907.907,0,0,1-.916.891h-1.783a.907.907,0,0,1-.916-.891.891.891,0,0,1,.916-.891Zm-7.181,0a.886.886,0,0,1,.892.891.9.9,0,0,1-.892.891h-1.808a.9.9,0,0,1-.891-.891.885.885,0,0,1,.891-.891Zm-7.181,0a.886.886,0,0,1,.891.891.9.9,0,0,1-.891.891h-1.807a.9.9,0,0,1-.892-.891.886.886,0,0,1,.892-.891Zm-7.181,0a.886.886,0,0,1,.892.891.9.9,0,0,1-.892.891h-1.807a.9.9,0,0,1-.892-.891.885.885,0,0,1,.892-.891Zm-7.206,0a.892.892,0,0,1,.917.891.908.908,0,0,1-.917.891h-1.782a.908.908,0,0,1-.917-.891.892.892,0,0,1,.917-.891Zm-7.181,0a.871.871,0,0,1,.891.891.886.886,0,0,1-.891.891h-1.783a.907.907,0,0,1-.916-.891.891.891,0,0,1,.916-.891Zm-7.181,0a.887.887,0,0,1,.892.891.9.9,0,0,1-.892.891H2125a.9.9,0,0,1-.891-.891.885.885,0,0,1,.891-.891Zm-7.181,0a.886.886,0,0,1,.892.891.9.9,0,0,1-.892.891h-1.809a.9.9,0,0,1-.891-.891.886.886,0,0,1,.891-.891Zm-7.206,0a.892.892,0,0,1,.917.891.908.908,0,0,1-.917.891h-1.783a.885.885,0,0,1-.891-.891.87.87,0,0,1,.891-.891Zm-7.18,0a.871.871,0,0,1,.892.891.886.886,0,0,1-.892.891h-1.783a.909.909,0,0,1-.918-.891.893.893,0,0,1,.918-.891Zm-7.181,0a.885.885,0,0,1,.891.891.9.9,0,0,1-.891.891h-1.808a.9.9,0,0,1-.891-.891.886.886,0,0,1,.891-.891Zm-7.181,0a.886.886,0,0,1,.891.891.9.9,0,0,1-.891.891h-1.808a.9.9,0,0,1-.891-.891.885.885,0,0,1,.891-.891Zm-7.207,0a.892.892,0,0,1,.917.891.908.908,0,0,1-.917.891h-1.782a.885.885,0,0,1-.891-.891.87.87,0,0,1,.891-.891Zm-3.565,5.4a.886.886,0,0,1,.892-.891.87.87,0,0,1,.891.891v1.782a.892.892,0,0,1-.891.917.908.908,0,0,1-.892-.917Zm0,7.181a.9.9,0,0,1,.892-.891.886.886,0,0,1,.891.891v1.808a.886.886,0,0,1-.891.891.9.9,0,0,1-.892-.891Zm0,7.181a.9.9,0,0,1,.892-.891.886.886,0,0,1,.891.891v1.808a.886.886,0,0,1-.891.891.9.9,0,0,1-.892-.891Zm0,7.206a.908.908,0,0,1,.892-.917.892.892,0,0,1,.891.917v1.782a.87.87,0,0,1-.891.892.886.886,0,0,1-.892-.892Zm0,7.181a.908.908,0,0,1,.892-.917.892.892,0,0,1,.891.917V363.8a.892.892,0,0,1-.891.917.908.908,0,0,1-.892-.917Zm4.38,4.583a.9.9,0,0,1,0-1.808h1.808a.9.9,0,0,1,0,1.808Z" transform="translate(-1251.312 -128.858)" fill="#f96445"/>
    <path id="Path_71947" data-name="Path 71947" d="M1951.994,1785.041h-.611l.025-3.871.611.025Zm10.873,7.384.229.585,2.751-1.095-.23-.586Zm-6.774-6.545.56.23,1.147-2.7-.561-.254Zm7.513,8.862.126.611,1.884-.356-.1-.611Zm-1.911-4.431.357.535,1.6-1.07-.332-.51Zm-3.412-3.31.51.356,1.095-1.6-.51-.356Zm-4.456-1.758.611.128.383-1.91-.586-.127Zm9.956-.2.433.458-.407.381-.434-.432Zm-3.59,3.488.433.434,2.776-2.674-.433-.459Zm-19.786,3.769-.229.56-2.725-1.12.229-.56Zm6.875-6.469-.56.23-1.121-2.725.56-.255Zm-7.614,8.76-.127.611-1.91-.382.128-.611Zm1.935-4.405-.331.534-1.6-1.1.331-.508Zm3.463-3.26-.509.331-1.069-1.6.509-.331Zm4.482-1.706-.611.1-.356-1.885.611-.128Zm-9.93-.306-.433.433.382.407.433-.458Zm12.4-4.863h-.611v.561h.611Zm-8.862,8.378-.432.433-2.75-2.725.433-.433Z" transform="translate(-1116.169 -1504.568)" fill="#25c77e" fill-rule="evenodd"/>
    <path id="Path_71948" data-name="Path 71948" d="M2068.828,1979.275H2082.2a.817.817,0,0,1,.815.79v19.887a.838.838,0,0,1-.815.815h-13.369a.838.838,0,0,1-.815-.815v-19.887a.816.816,0,0,1,.815-.79m11.459,4.711v-.509a.39.39,0,0,1,.178-.306.647.647,0,0,1,.408-.127.622.622,0,0,1,.382.127.391.391,0,0,1,.179.306v.509c-.027,0-.051.026-.077.026s-.051-.026-.077-.026v-.483a.354.354,0,0,0-.127-.254.508.508,0,0,0-.28-.077.542.542,0,0,0-.306.077.356.356,0,0,0-.126.254v.483c-.026,0-.052.026-.077.026s-.051-.026-.076-.026m0,.177v.511a.389.389,0,0,0,.178.3.653.653,0,0,0,.408.127.628.628,0,0,0,.382-.127.389.389,0,0,0,.179-.3v-.511a.1.1,0,0,0-.077-.025.1.1,0,0,0-.077.025v.485a.269.269,0,0,1-.127.229.386.386,0,0,1-.28.1.412.412,0,0,1-.306-.1.27.27,0,0,1-.126-.229v-.485a.1.1,0,0,0-.077-.025.1.1,0,0,0-.076.025m-3.285-3.691h4.558a.392.392,0,0,1,.383.382v.535a.392.392,0,0,1-.383.382H2077a.391.391,0,0,1-.381-.382v-.535a.39.39,0,0,1,.381-.382m-6.544,7.46h2.47a.12.12,0,0,0,.127-.127v-.458a.121.121,0,0,0-.127-.128h-2.47a.12.12,0,0,0-.127.128v.458a.12.12,0,0,0,.127.127m10.44,9.473v1.249a.4.4,0,0,1-.407.406h-1.249a.4.4,0,0,1-.381-.406v-3.718a.392.392,0,0,1,.381-.382h1.249a.4.4,0,0,1,.407.382Zm-1.681-5.653h1.248a.4.4,0,0,1,.408.408v1.248a.4.4,0,0,1-.408.383h-1.248a.393.393,0,0,1-.383-.383v-1.248a.4.4,0,0,1,.383-.408m0-2.622h1.248a.4.4,0,0,1,.408.382v1.247a.4.4,0,0,1-.408.408h-1.248a.4.4,0,0,1-.383-.408v-1.247a.392.392,0,0,1,.383-.382m-2.877,7.893h1.247a.4.4,0,0,1,.407.382v1.249a.4.4,0,0,1-.407.406h-1.247a.418.418,0,0,1-.407-.406v-1.249a.415.415,0,0,1,.407-.382m0-2.648h1.247a.4.4,0,0,1,.407.407v1.248a.418.418,0,0,1-.407.407h-1.247a.439.439,0,0,1-.407-.407v-1.248a.419.419,0,0,1,.407-.407m-.025-2.623h1.248a.4.4,0,0,1,.407.408v1.248a.4.4,0,0,1-.407.383h-1.248a.392.392,0,0,1-.382-.383v-1.248a.4.4,0,0,1,.382-.408m0-2.622h1.248a.4.4,0,0,1,.407.382v1.247a.4.4,0,0,1-.407.408h-1.248a.4.4,0,0,1-.382-.408v-1.247a.391.391,0,0,1,.382-.382m-2.877,7.893h1.247a.415.415,0,0,1,.407.382v1.249a.418.418,0,0,1-.407.406h-1.247a.4.4,0,0,1-.408-.406v-1.249a.4.4,0,0,1,.408-.382m0-2.648h1.247a.419.419,0,0,1,.407.407v1.248a.438.438,0,0,1-.407.407h-1.247a.419.419,0,0,1-.408-.407v-1.248a.4.4,0,0,1,.408-.407m0-2.623h1.247a.4.4,0,0,1,.382.408v1.248a.392.392,0,0,1-.382.383h-1.247a.4.4,0,0,1-.408-.383v-1.248a.4.4,0,0,1,.408-.408m0-2.622h1.247a.391.391,0,0,1,.382.382v1.247a.4.4,0,0,1-.382.408h-1.247a.4.4,0,0,1-.408-.408v-1.247a.4.4,0,0,1,.408-.382m-2.9,7.893h1.249a.392.392,0,0,1,.382.382v1.249a.4.4,0,0,1-.382.406h-1.249a.4.4,0,0,1-.407-.406v-1.249a.4.4,0,0,1,.407-.382m0-2.648h1.249a.4.4,0,0,1,.382.407v1.248a.415.415,0,0,1-.382.407h-1.249a.419.419,0,0,1-.407-.407v-1.248a.4.4,0,0,1,.407-.407m0-2.623h1.249a.4.4,0,0,1,.382.408v1.248a.392.392,0,0,1-.382.383h-1.249a.4.4,0,0,1-.407-.383v-1.248a.4.4,0,0,1,.407-.408m3.744-3.82h2.469a.12.12,0,0,0,.128-.127v-.458a.121.121,0,0,0-.128-.128h-2.469a.121.121,0,0,0-.128.128v.458a.12.12,0,0,0,.128.127m3.819,0h2.47a.121.121,0,0,0,.129-.127v-.458a.121.121,0,0,0-.129-.128h-2.47a.121.121,0,0,0-.127.128v.458a.12.12,0,0,0,.127.127m-7.563,1.2h1.249a.392.392,0,0,1,.382.382v1.247a.4.4,0,0,1-.382.408h-1.249a.4.4,0,0,1-.407-.408v-1.247a.4.4,0,0,1,.407-.382m-1.578-6.341h12.987v2.6h-12.987Z" transform="translate(-1239.854 -1693.302)" fill="#25c77e" fill-rule="evenodd"/>
    <path id="Path_71949" data-name="Path 71949" d="M4552.267,641.424h5.782l-.026-.306-.025-.331h-5.652l-.051.331a1.165,1.165,0,0,1-.027.306m4.2,21.16a27.273,27.273,0,0,0,5.45,3.438,14.46,14.46,0,0,0,5.755,1.349v-7.614h2.953a4.477,4.477,0,0,0,3.234-1.349,4.57,4.57,0,0,0,1.349-3.234v-4.991h4.15c-.992-1.4-2.825-4.049-4.048-6.06l-.1-.306V636.79h-8.631V652.5a3.566,3.566,0,0,1-3.565,3.566h-6.545Zm19.812-26.992a2.584,2.584,0,0,0,1.808-.738,2.544,2.544,0,0,0,.738-1.808v-.458a2.544,2.544,0,0,0-.738-1.808,2.63,2.63,0,0,0-1.808-.738H4564.8a8.867,8.867,0,0,1-.255.865,9.852,9.852,0,0,1-1.325,2.7,10.458,10.458,0,0,1-1.935,2.037,9.92,9.92,0,0,1-2.292,1.375v.051a1.243,1.243,0,0,1,.025.306,1.541,1.541,0,0,1,.026.331c0,.484.026.917.051,1.324.025.433.076.815.127,1.2a22.767,22.767,0,0,1,.152,2.369,1.5,1.5,0,0,1-.1.586,1.653,1.653,0,0,1-.33.483,1.547,1.547,0,0,1-1.1.459h-4.812V652.5a2.345,2.345,0,0,0,.687,1.681,2.427,2.427,0,0,0,1.707.713h7.589a2.414,2.414,0,0,0,1.68-.713,2.346,2.346,0,0,0,.688-1.681V635.593h10.9Zm-11.306-6.748h11.306a3.843,3.843,0,0,1,2.647,1.095,3.8,3.8,0,0,1,1.1,2.649v.458a3.841,3.841,0,0,1-1.1,2.648h-.025a3.821,3.821,0,0,1-2.5,1.1v6.875c1.731,2.8,4.584,6.748,4.584,6.773l.688.942h-5.272v3.794a5.827,5.827,0,0,1-5.78,5.78h-1.757v7.588l-.584.026a15.638,15.638,0,0,1-6.851-1.477,28.116,28.116,0,0,1-5.933-3.768l-.2-.178v-7.079a3.524,3.524,0,0,1-2.421-1.044,3.564,3.564,0,0,1-1.044-2.522v-8.529a1.687,1.687,0,0,1-.433-.306,1.252,1.252,0,0,1-.331-.483,1.5,1.5,0,0,1-.128-.586,17.367,17.367,0,0,1,.178-2.369,24.335,24.335,0,0,0,.18-2.52v-.331c0-.1.025-.2.025-.306l.025-.051a10.123,10.123,0,0,1-2.318-1.375,10.372,10.372,0,0,1-1.909-2.037,9.277,9.277,0,0,1-1.35-2.7,9.459,9.459,0,0,1-.458-2.953,9.657,9.657,0,0,1,.737-3.769,10.252,10.252,0,0,1,2.14-3.208,10.112,10.112,0,0,1,3.208-2.139,9.652,9.652,0,0,1,3.769-.739,9.85,9.85,0,0,1,3.77.739,10.023,10.023,0,0,1,3.182,2.139,9.441,9.441,0,0,1,2.139,3.208,9.649,9.649,0,0,1,.738,3.769c0,.28,0,.585-.024.891m-9.524-13.776h-.585a.229.229,0,0,1-.23-.229v-3.718a.23.23,0,0,1,.23-.229h.585a.229.229,0,0,1,.23.229v3.718a.228.228,0,0,1-.23.229m-10.949,6.952-.23.535a.2.2,0,0,1-.279.127l-2.648-1.069a.228.228,0,0,1-.127-.281l.229-.56a.225.225,0,0,1,.306-.127l2.623,1.069a.225.225,0,0,1,.127.306m6.493-6.188-.56.229a.2.2,0,0,1-.28-.127l-1.1-2.623a.236.236,0,0,1,.1-.306l.561-.229a.224.224,0,0,1,.306.128l1.1,2.648a.255.255,0,0,1-.127.28m-7.206,8.352-.1.586a.22.22,0,0,1-.253.179l-1.834-.331a.236.236,0,0,1-.179-.28l.1-.586a.221.221,0,0,1,.254-.178l1.834.357a.21.21,0,0,1,.178.254m1.833-4.176-.332.51a.208.208,0,0,1-.306.051l-1.552-1.019a.211.211,0,0,1-.053-.306l.333-.509a.235.235,0,0,1,.3-.076l1.553,1.044a.211.211,0,0,1,.052.305m3.284-3.132-.509.331a.212.212,0,0,1-.306-.051l-1.044-1.553a.213.213,0,0,1,.052-.306l.509-.331a.212.212,0,0,1,.306.051l1.043,1.553a.208.208,0,0,1-.051.306m4.228-1.63-.586.1a.221.221,0,0,1-.254-.179l-.383-1.808a.235.235,0,0,1,.179-.28l.585-.1a.241.241,0,0,1,.28.152v.026l.357,1.808a.236.236,0,0,1-.179.28m-10.237-.2.408-.407v-.025a.269.269,0,0,1,.332,0l.381.382a.217.217,0,0,1,0,.331l-.407.407v.026a.268.268,0,0,1-.331,0l-.383-.382a.273.273,0,0,1,0-.331m4.177,3.285-.407.407a.241.241,0,0,1-.332.025l-2.648-2.623a.218.218,0,0,1,0-.331l.408-.407a.208.208,0,0,1,.305-.026l2.674,2.623a.22.22,0,0,1,0,.331m18.97,4.227-.228-.535a.246.246,0,0,1,.126-.306l2.649-1.069a.2.2,0,0,1,.279.127l.229.56a.206.206,0,0,1-.127.281l-2.622,1.069a.226.226,0,0,1-.307-.127m-6.161-6.494-.535-.229a.206.206,0,0,1-.127-.28l1.094-2.648a.207.207,0,0,1,.281-.128l.56.229a.225.225,0,0,1,.127.306l-1.095,2.623a.225.225,0,0,1-.305.127m6.773,8.708-.127-.586a.21.21,0,0,1,.178-.254l1.835-.357a.2.2,0,0,1,.253.178l.127.586a.235.235,0,0,1-.179.28l-1.834.331a.2.2,0,0,1-.253-.179m-1.629-4.252-.331-.51a.212.212,0,0,1,.051-.305l1.58-1.044a.241.241,0,0,1,.3.076l.331.509a.218.218,0,0,1-.077.306l-1.552,1.019a.211.211,0,0,1-.305-.051m-3.107-3.311-.484-.331a.235.235,0,0,1-.076-.306l1.042-1.553a.242.242,0,0,1,.332-.051l.484.331a.211.211,0,0,1,.051.306l-1.044,1.553a.207.207,0,0,1-.305.051m-4.15-1.858-.586-.1a.234.234,0,0,1-.178-.28l.381-1.808v-.026a.212.212,0,0,1,.255-.152l.586.1a.234.234,0,0,1,.178.28l-.356,1.808h-.026a.2.2,0,0,1-.253.179m9.242-.739v.025l.408.407a.218.218,0,0,1,0,.331l-.384.382a.23.23,0,0,1-.3,0l-.026-.026-.406-.407a.263.263,0,0,1,0-.331l.406-.382a.233.233,0,0,1,.306,0m-12.146-4.813h.585a.228.228,0,0,1,.23.229v.535a.229.229,0,0,1-.23.229h-.585a.23.23,0,0,1-.23-.229v-.535a.229.229,0,0,1,.23-.229m8.811,8.938-.435-.407a.269.269,0,0,1,0-.331l2.675-2.623a.208.208,0,0,1,.3.026l.434.407a.266.266,0,0,1,0,.331l-2.673,2.623a.21.21,0,0,1-.306-.025m-8.862,11.815h0v.025a.613.613,0,0,1,.179.458.763.763,0,0,1-.205.433h-.025a.513.513,0,0,1-.458.153.924.924,0,0,1-.255-.051.692.692,0,0,0,.179.2,1.157,1.157,0,0,0,.432.28,1.325,1.325,0,0,0,1.019,0,.913.913,0,0,0,.408-.28.687.687,0,0,0,.178-.2.765.765,0,0,1-.255.051.536.536,0,0,1-.458-.153.627.627,0,0,1-.2-.433.705.705,0,0,1,.153-.458l.025-.025c.076-.077.178-.179.306-.306.1-.076.2-.178.332-.281-.025,0-.052-.026-.076-.051a.912.912,0,0,0-.408-.28,1.211,1.211,0,0,0-.509-.1,1.141,1.141,0,0,0-.51.1,1.157,1.157,0,0,0-.432.28l-.052.051a3.358,3.358,0,0,0,.306.281c.128.127.256.229.332.306m-2.189-.2c-.2-.152-.382-.305-.586-.433-.409-.331-.738-.56-.738-.56a.792.792,0,0,1-.229-.433.623.623,0,0,1,.024-.306l-.024-.026.152-.178,1.859-2.139a.531.531,0,0,1,.432-.229.768.768,0,0,1,.459.152.813.813,0,0,1,.229.433.71.71,0,0,1-.153.458l-1.425,1.655.279.2.28.23c.052-.051.1-.128.152-.179a2.436,2.436,0,0,1,.84-.56,2.569,2.569,0,0,1,.994-.2,2.666,2.666,0,0,1,.993.2,3.044,3.044,0,0,1,.84.56,1.16,1.16,0,0,1,.152.179l.306-.255.255-.178-1.427-1.655a.512.512,0,0,1-.152-.458.63.63,0,0,1,.2-.433.842.842,0,0,1,.484-.152.567.567,0,0,1,.433.229l1.859,2.139.126.178-.024.026a.648.648,0,0,1,.051.306.858.858,0,0,1-.255.433s-.33.23-.739.56c-.178.128-.355.281-.559.433,0,.051.025.127.025.179,0,.1.025.2.025.305a2.567,2.567,0,0,1-.2.993,2.8,2.8,0,0,1-.56.866,3.038,3.038,0,0,1-.84.56,2.669,2.669,0,0,1-.993.2,2.572,2.572,0,0,1-.994-.2,2.432,2.432,0,0,1-.84-.56,2.572,2.572,0,0,1-.764-1.859v-.305c.026-.051.026-.128.052-.179m5.448,12.35h-5.83c.023.025.023.051.051.076s.051.026.075.051c.026,0,.077.025.1.025h5.373c.051,0,.077-.025.1-.025.026-.025.051-.025.076-.051s.051-.051.051-.076m-5.475-5.347a.189.189,0,0,0-.026.127v.127h5.17v-.255Zm-.077,1.528a1.713,1.713,0,0,1-.025.356,1.169,1.169,0,0,1-.025.281h5.373c0-.1-.024-.2-.024-.281,0-.127-.026-.229-.026-.356Zm5.425-2.826h0c.026,0,.051-.026.076-.026a9.175,9.175,0,0,0,2.318-1.247,8.185,8.185,0,0,0,1.833-1.91,8.8,8.8,0,0,0,1.172-2.343,8.55,8.55,0,0,0-2.113-8.633,8.917,8.917,0,0,0-2.8-1.884,8.642,8.642,0,0,0-3.259-.637,8.791,8.791,0,0,0-3.286.637,9.083,9.083,0,0,0-2.774,1.884,8.558,8.558,0,0,0-1.857,2.776,8.2,8.2,0,0,0-.663,3.285,8.652,8.652,0,0,0,.407,2.572,7.526,7.526,0,0,0,1.171,2.343,8.626,8.626,0,0,0,1.808,1.91,9.7,9.7,0,0,0,2.318,1.247l.126.026Z" transform="translate(-3582.81 -395.938)" fill="#d7526d"/>
    <path id="Path_71950" data-name="Path 71950" d="M2667.812,1973c-5.143,0-9.345,3.284-9.345,7.308,0,4.049,4.2,7.308,9.345,7.308a11.3,11.3,0,0,0,4.4-.866l4.863,1.6-2.087-3.361a6.445,6.445,0,0,0,2.165-4.685c0-4.024-4.176-7.308-9.345-7.308m-3.844,10.338h.508l-.025-.2h-.839a.773.773,0,0,1-.79-.765.794.794,0,0,1,.79-.789h.61l-.025-.2h-1.044a.777.777,0,0,1,0-1.553h.816l-.052-.2h-1.1a.789.789,0,0,1-.765-.789.768.768,0,0,1,.765-.765h3.616c-.382-1.935-.382-3.335.611-3.513.637-.1.509.1.586.585a3.617,3.617,0,0,0,2.572,3.26v5.321a9.09,9.09,0,0,1-3.26.713h-2.978a.538.538,0,0,1-.536-.535.544.544,0,0,1,.536-.56m7.944-5.372h-1.044a.282.282,0,0,0-.281.279v5.73a.283.283,0,0,0,.281.28h1.044a.283.283,0,0,0,.281-.28v-5.73a.282.282,0,0,0-.281-.279" transform="translate(-1799.216 -1687.354)" fill="#d7526d" fill-rule="evenodd"/>
    <path id="Path_71951" data-name="Path 71951" d="M5289.8,1940.109a2.508,2.508,0,1,1-2.521,2.5,2.505,2.505,0,0,1,2.521-2.5m7.181,2.369a1.935,1.935,0,0,1,1.936,1.935,1.936,1.936,0,0,1-3.872,0,1.935,1.935,0,0,1,1.936-1.935m-2.7,11.357h5.4v-3.87a2.7,2.7,0,0,0-5.4,0Zm-11.662-11.357a1.935,1.935,0,0,1,1.935,1.935,1.935,1.935,0,0,1-3.871,0,1.934,1.934,0,0,1,1.936-1.935m-2.7,11.357h5.4v-3.87a2.7,2.7,0,0,0-5.4,0Zm6.367,1.07h7.026v-5.017a3.513,3.513,0,1,0-7.026,0Z" transform="translate(-4282.635 -1656.198)" fill="#d7526d" fill-rule="evenodd"/>
    <path id="Path_71952" data-name="Path 71952" d="M2952.552,2205.041a.886.886,0,0,1,.891-.891.9.9,0,0,1,.892.891v14.387a.9.9,0,0,1-.892.89H2814.59a.9.9,0,0,1-.892-.89v-12.834a.9.9,0,0,1,.892-.892.887.887,0,0,1,.891.892v11.943h137.071Z" transform="translate(-1946.273 -1906.335)" fill="#d7526d"/>
    <rect id="Rectangle_25226" data-name="Rectangle 25226" width="368.601" height="133.71" transform="translate(719.263 173.547)" fill="none"/>
  </g>
</svg>
