<svg xmlns="http://www.w3.org/2000/svg" width="41" height="41" viewBox="0 0 41 41">
  <g id="Group_57920" data-name="Group 57920" transform="translate(-958 -7614)">
    <circle id="Ellipse_1376" data-name="Ellipse 1376" cx="20.5" cy="20.5" r="20.5" transform="translate(958 7614)" fill="#6dbd45"/>
    <g id="Group_54752" data-name="Group 54752" transform="translate(434.75 6278.22)">
      <path id="Path_10716" data-name="Path 10716" d="M503.6,1342.636h-18.65a.693.693,0,1,1,0-1.385H503.6a.693.693,0,1,1,0,1.385Z" transform="translate(49 23.699)" fill="#fff"/>
      <path id="Path_10717" data-name="Path 10717" d="M486.6,1340.645l-1.4-.006.047-11.222a2.591,2.591,0,0,1,.984-2.01l0,0,6.534-5.084a2.58,2.58,0,0,1,3.152,0l6.537,5.077a2.545,2.545,0,0,1,.989,2.026v11.222h-1.4V1329.42a1.155,1.155,0,0,0-.448-.921l-6.534-5.075a1.177,1.177,0,0,0-1.437,0l-6.531,5.082a1.182,1.182,0,0,0-.451.914Z" transform="translate(48.927 25)" fill="#fff"/>
      <path id="Path_10718" data-name="Path 10718" d="M493.828,1336.25h1.847a2.081,2.081,0,0,1,2.078,2.078v3.233a.693.693,0,0,1-.693.693h-4.619a.693.693,0,0,1-.693-.693v-3.233A2.081,2.081,0,0,1,493.828,1336.25Zm2.54,4.619v-2.54a.694.694,0,0,0-.693-.693h-1.847a.694.694,0,0,0-.693.693v2.54Z" transform="translate(48.522 24.08)" fill="#fff"/>
      <path id="Path_10719" data-name="Path 10719" d="M492.214,1334.119h-1.848a1.618,1.618,0,0,1-1.617-1.616v-1.385a1.618,1.618,0,0,1,1.617-1.616h1.848a1.618,1.618,0,0,1,1.617,1.616v1.385A1.618,1.618,0,0,1,492.214,1334.119Zm-1.848-3.233a.234.234,0,0,0-.231.231v1.385a.234.234,0,0,0,.231.231h1.848a.234.234,0,0,0,.231-.231v-1.385a.234.234,0,0,0-.231-.231Z" transform="translate(48.71 24.5)" fill="#fff"/>
      <path id="Path_10720" data-name="Path 10720" d="M499.214,1334.119h-1.847a1.618,1.618,0,0,1-1.617-1.616v-1.385a1.618,1.618,0,0,1,1.617-1.616h1.847a1.618,1.618,0,0,1,1.617,1.616v1.385A1.618,1.618,0,0,1,499.214,1334.119Zm-1.847-3.233a.234.234,0,0,0-.231.231v1.385a.234.234,0,0,0,.231.231h1.847a.234.234,0,0,0,.231-.231v-1.385a.234.234,0,0,0-.231-.231Z" transform="translate(48.258 24.5)" fill="#fff"/>
      <path id="Path_10721" data-name="Path 10721" d="M501.6,1327.407a.693.693,0,0,1-.693-.686l-.021-2.085h-3.378a.693.693,0,1,1,0-1.386h4.064a.693.693,0,0,1,.693.686l.028,2.771a.693.693,0,0,1-.686.7Z" transform="translate(48.23 24.888)" fill="#fff"/>
    </g>
  </g>
</svg>
