<svg xmlns="http://www.w3.org/2000/svg" width="22.121" height="22.121" viewBox="0 0 22.121 22.121">
  <g id="Group_57980" data-name="Group 57980" transform="translate(-1382.939 -586.939)">
    <path id="Path_10794" data-name="Path 10794" d="M254.53,1929.47l-5.06,5.06a3.578,3.578,0,1,1,5.06-5.06Z" transform="translate(1142 -1334)" fill="none" stroke="#2b2a29" stroke-linecap="round" stroke-linejoin="round" stroke-width="1.5"/>
    <path id="Path_10795" data-name="Path 10795" d="M257.82,1925.77a9.631,9.631,0,0,0-5.82-2.04c-3.53,0-6.82,2.08-9.11,5.68a5.326,5.326,0,0,0,0,5.19,14.326,14.326,0,0,0,2.71,3.17" transform="translate(1142 -1334)" fill="none" stroke="#2b2a29" stroke-linecap="round" stroke-linejoin="round" stroke-width="1.5"/>
    <path id="Path_10796" data-name="Path 10796" d="M248.42,1939.53a9.215,9.215,0,0,0,3.58.74c3.53,0,6.82-2.08,9.11-5.68a5.325,5.325,0,0,0,0-5.19,16.2,16.2,0,0,0-1.06-1.47" transform="translate(1142 -1334)" fill="none" stroke="#2b2a29" stroke-linecap="round" stroke-linejoin="round" stroke-width="1.5"/>
    <path id="Path_10797" data-name="Path 10797" d="M255.51,1932.7a3.565,3.565,0,0,1-2.82,2.82" transform="translate(1142 -1334)" fill="none" stroke="#2b2a29" stroke-linecap="round" stroke-linejoin="round" stroke-width="1.5"/>
    <path id="Path_10798" data-name="Path 10798" d="M249.47,1934.53,242,1942" transform="translate(1142 -1334)" fill="none" stroke="#2b2a29" stroke-linecap="round" stroke-linejoin="round" stroke-width="1.5"/>
    <path id="Path_10799" data-name="Path 10799" d="M262,1922l-7.47,7.47" transform="translate(1142 -1334)" fill="none" stroke="#2b2a29" stroke-linecap="round" stroke-linejoin="round" stroke-width="1.5"/>
  </g>
</svg>
