<svg xmlns="http://www.w3.org/2000/svg" width="41" height="41" viewBox="0 0 41 41">
  <g id="Group_57918" data-name="Group 57918" transform="translate(-958 -7507.916)">
    <circle id="Ellipse_1374" data-name="Ellipse 1374" cx="20.5" cy="20.5" r="20.5" transform="translate(958 7507.916)" fill="#6dbd45"/>
    <g id="Group_32057" data-name="Group 32057" transform="translate(747 7285.916)">
      <path id="Path_11210" data-name="Path 11210" d="M239.97,248.7a2.291,2.291,0,0,1-.225.981,3.713,3.713,0,0,1-.612.918,4.056,4.056,0,0,1-1.476,1.062A4.518,4.518,0,0,1,235.9,252a7.5,7.5,0,0,1-2.934-.657,15.807,15.807,0,0,1-3.1-1.782,25.876,25.876,0,0,1-2.952-2.52,25.573,25.573,0,0,1-2.511-2.943,16.044,16.044,0,0,1-1.764-3.069,7.582,7.582,0,0,1-.648-2.943,4.656,4.656,0,0,1,.324-1.737,4.143,4.143,0,0,1,1.035-1.5A2.636,2.636,0,0,1,225.23,234a1.691,1.691,0,0,1,.729.162,1.467,1.467,0,0,1,.6.5l2.088,2.943a3.081,3.081,0,0,1,.36.63,1.423,1.423,0,0,1,.126.549,1.222,1.222,0,0,1-.189.639,3.062,3.062,0,0,1-.5.639l-.684.711a.482.482,0,0,0-.144.36.817.817,0,0,0,.027.207c.027.072.054.126.072.18a7.465,7.465,0,0,0,.837,1.152c.4.468.837.945,1.3,1.422.486.477.954.918,1.431,1.323a6.906,6.906,0,0,0,1.161.828c.045.018.1.045.162.072a.622.622,0,0,0,.225.036.5.5,0,0,0,.369-.153l.684-.675a2.761,2.761,0,0,1,.648-.5,1.2,1.2,0,0,1,.639-.189,1.436,1.436,0,0,1,.549.117,3.481,3.481,0,0,1,.63.351l2.979,2.115a1.365,1.365,0,0,1,.495.576A1.847,1.847,0,0,1,239.97,248.7Z" fill="none" stroke="#fff" stroke-width="2"/>
      <path id="Path_11211" data-name="Path 11211" d="M238.5,241a3.965,3.965,0,0,0-1.17-2.27A3.416,3.416,0,0,0,235,237.5" transform="translate(-1.576 -0.424)" fill="none" stroke="#fff" stroke-linecap="round" stroke-linejoin="round" stroke-width="2"/>
      <path id="Path_11212" data-name="Path 11212" d="M242,241a7,7,0,0,0-7-7" transform="translate(-2)" fill="none" stroke="#fff" stroke-linecap="round" stroke-linejoin="round" stroke-width="2"/>
    </g>
  </g>
</svg>
