<svg xmlns="http://www.w3.org/2000/svg" width="31.983" height="31.983" viewBox="0 0 31.983 31.983">
  <g id="Group_58777" data-name="Group 58777" transform="translate(-1288 -101.898)">
    <g id="Group_54745" data-name="Group 54745" transform="translate(1288 101.898)">
      <circle id="Ellipse_1260" data-name="Ellipse 1260" cx="15.991" cy="15.991" r="15.991" fill="#6dbd45"/>
      <path id="Icon_simple-instagram" data-name="Icon simple-instagram" d="M8.428,0C6.139,0,5.853.011,4.954.051A6.215,6.215,0,0,0,2.908.442a4.127,4.127,0,0,0-1.493.972A4.112,4.112,0,0,0,.442,2.908,6.2,6.2,0,0,0,.051,4.954C.008,5.853,0,6.139,0,8.428S.011,11,.051,11.9a6.219,6.219,0,0,0,.392,2.046,4.133,4.133,0,0,0,.972,1.493,4.121,4.121,0,0,0,1.493.972,6.222,6.222,0,0,0,2.046.392c.9.042,1.185.051,3.475.051S11,16.846,11.9,16.806a6.237,6.237,0,0,0,2.046-.392,4.307,4.307,0,0,0,2.465-2.465,6.219,6.219,0,0,0,.392-2.046c.042-.9.051-1.185.051-3.475s-.011-2.576-.051-3.475a6.233,6.233,0,0,0-.392-2.046,4.136,4.136,0,0,0-.972-1.493A4.106,4.106,0,0,0,13.949.442,6.2,6.2,0,0,0,11.9.051C11,.008,10.718,0,8.428,0Zm0,1.517c2.25,0,2.518.011,3.406.05a4.644,4.644,0,0,1,1.564.291,2.774,2.774,0,0,1,1.6,1.6,4.653,4.653,0,0,1,.29,1.564c.04.889.049,1.156.049,3.406s-.011,2.518-.052,3.406a4.743,4.743,0,0,1-.3,1.564,2.676,2.676,0,0,1-.631.971A2.629,2.629,0,0,1,13.39,15a4.687,4.687,0,0,1-1.57.29c-.895.04-1.158.049-3.413.049s-2.519-.011-3.413-.052a4.779,4.779,0,0,1-1.57-.3,2.61,2.61,0,0,1-.969-.631,2.559,2.559,0,0,1-.632-.969,4.783,4.783,0,0,1-.295-1.57c-.032-.885-.043-1.158-.043-3.4S1.5,5.9,1.528,5a4.778,4.778,0,0,1,.295-1.569,2.5,2.5,0,0,1,.632-.97,2.493,2.493,0,0,1,.969-.631,4.665,4.665,0,0,1,1.56-.3C5.879,1.507,6.143,1.5,8.4,1.5l.032.021Zm0,2.583a4.328,4.328,0,1,0,4.328,4.328A4.328,4.328,0,0,0,8.428,4.1Zm0,7.137a2.809,2.809,0,1,1,2.809-2.809A2.809,2.809,0,0,1,8.428,11.238ZM13.939,3.93a1.011,1.011,0,1,1-1.011-1.011A1.012,1.012,0,0,1,13.939,3.93Z" transform="translate(7.572 7.995)" fill="#fff"/>
      <circle id="Ellipse_1373" data-name="Ellipse 1373" cx="15.991" cy="15.991" r="15.991" fill="#6dbd45"/>
    </g>
    <path id="Icon_simple-instagram-2" data-name="Icon simple-instagram" d="M7.2,0C5.243,0,5,.009,4.231.043A5.308,5.308,0,0,0,2.483.378a3.525,3.525,0,0,0-1.275.83,3.512,3.512,0,0,0-.83,1.275A5.293,5.293,0,0,0,.043,4.231C.007,5,0,5.243,0,7.2s.009,2.2.043,2.968a5.311,5.311,0,0,0,.335,1.747,3.53,3.53,0,0,0,.83,1.275,3.52,3.52,0,0,0,1.275.83,5.315,5.315,0,0,0,1.747.335C5,14.39,5.243,14.4,7.2,14.4s2.2-.009,2.968-.043a5.327,5.327,0,0,0,1.747-.335,3.679,3.679,0,0,0,2.106-2.106,5.311,5.311,0,0,0,.335-1.747C14.39,9.4,14.4,9.154,14.4,7.2s-.009-2.2-.043-2.968a5.324,5.324,0,0,0-.335-1.747,3.533,3.533,0,0,0-.83-1.275,3.507,3.507,0,0,0-1.275-.83A5.3,5.3,0,0,0,10.166.043C9.4.007,9.154,0,7.2,0Zm0,1.3c1.921,0,2.151.01,2.909.043a3.966,3.966,0,0,1,1.336.249A2.369,2.369,0,0,1,12.81,2.953a3.974,3.974,0,0,1,.248,1.336c.034.759.042.987.042,2.909s-.009,2.151-.044,2.909a4.051,4.051,0,0,1-.253,1.336,2.286,2.286,0,0,1-.539.829,2.246,2.246,0,0,1-.828.537,4,4,0,0,1-1.341.248c-.764.034-.989.042-2.915.042s-2.151-.009-2.915-.044A4.082,4.082,0,0,1,2.924,12.8a2.229,2.229,0,0,1-.827-.539,2.186,2.186,0,0,1-.54-.828A4.085,4.085,0,0,1,1.305,10.1c-.027-.756-.037-.989-.037-2.906s.01-2.151.037-2.916a4.081,4.081,0,0,1,.252-1.34A2.134,2.134,0,0,1,2.1,2.1a2.129,2.129,0,0,1,.827-.539,3.984,3.984,0,0,1,1.332-.253c.765-.027.99-.036,2.915-.036L7.2,1.3ZM7.2,3.5a3.7,3.7,0,1,0,3.7,3.7A3.7,3.7,0,0,0,7.2,3.5Zm0,6.1A2.4,2.4,0,1,1,9.6,7.2,2.4,2.4,0,0,1,7.2,9.6Zm4.707-6.242a.864.864,0,1,1-.864-.863A.864.864,0,0,1,11.905,3.356Z" transform="translate(1296.121 110.529)" fill="#fff"/>
  </g>
</svg>
