<svg xmlns="http://www.w3.org/2000/svg" width="21.5" height="21.5" viewBox="0 0 21.5 21.5">
  <g id="Group_57064" data-name="Group 57064" transform="translate(-762.149 -486.25)">
    <path id="Path_13517" data-name="Path 13517" d="M162,370v-2c0-3.31,1-6,6-6s6,2.69,6,6v2" transform="translate(604.899 125)" fill="none" stroke="#707070" stroke-linecap="round" stroke-linejoin="round" stroke-width="1.5"/>
    <path id="Path_13518" data-name="Path 13518" d="M173,382H163c-4,0-5-1-5-5v-2c0-4,1-5,5-5h10c4,0,5,1,5,5v2C178,381,177,382,173,382Z" transform="translate(604.899 125)" fill="none" stroke="#707070" stroke-linecap="round" stroke-linejoin="round" stroke-width="1.5"/>
    <path id="Path_13519" data-name="Path 13519" d="M172,376h.009" transform="translate(604.899 125)" fill="none" stroke="#707070" stroke-linecap="round" stroke-linejoin="round" stroke-width="2"/>
    <path id="Path_13520" data-name="Path 13520" d="M167.995,376H168" transform="translate(604.899 125)" fill="none" stroke="#707070" stroke-linecap="round" stroke-linejoin="round" stroke-width="2"/>
    <path id="Path_13521" data-name="Path 13521" d="M163.995,376H164" transform="translate(604.899 125)" fill="none" stroke="#707070" stroke-linecap="round" stroke-linejoin="round" stroke-width="2"/>
  </g>
</svg>
