<svg xmlns="http://www.w3.org/2000/svg" xmlns:xlink="http://www.w3.org/1999/xlink" width="578.864" height="520.783" viewBox="0 0 578.864 520.783">
  <defs>
    <clipPath id="clip-path">
      <rect id="Rectangle_24850" data-name="Rectangle 24850" width="498.33" height="428.57" fill="none"/>
    </clipPath>
    <clipPath id="clip-path-2">
      <rect id="Rectangle_24846" data-name="Rectangle 24846" width="439.099" height="428.57" fill="none"/>
    </clipPath>
    <clipPath id="clip-path-3">
      <rect id="Rectangle_24847" data-name="Rectangle 24847" width="272.789" height="266.248" fill="none"/>
    </clipPath>
    <clipPath id="clip-path-4">
      <rect id="Rectangle_24848" data-name="Rectangle 24848" width="76.919" height="76.919" fill="none"/>
    </clipPath>
    <clipPath id="clip-path-5">
      <rect id="Rectangle_24849" data-name="Rectangle 24849" width="26.9" height="26.902" fill="none"/>
    </clipPath>
    <clipPath id="clip-path-6">
      <rect id="Rectangle_24867" data-name="Rectangle 24867" width="8.86" height="7.711" fill="none"/>
    </clipPath>
    <clipPath id="clip-path-7">
      <rect id="Rectangle_24868" data-name="Rectangle 24868" width="6.567" height="6.022" fill="none"/>
    </clipPath>
    <clipPath id="clip-path-8">
      <rect id="Rectangle_24869" data-name="Rectangle 24869" width="7.707" height="6.707" fill="none"/>
    </clipPath>
    <clipPath id="clip-path-9">
      <rect id="Rectangle_24870" data-name="Rectangle 24870" width="4.721" height="8.561" fill="none"/>
    </clipPath>
    <clipPath id="clip-path-10">
      <rect id="Rectangle_24871" data-name="Rectangle 24871" width="5.599" height="8.909" fill="none"/>
    </clipPath>
    <clipPath id="clip-path-11">
      <rect id="Rectangle_24872" data-name="Rectangle 24872" width="5.052" height="3.857" fill="none"/>
    </clipPath>
    <clipPath id="clip-path-12">
      <rect id="Rectangle_24873" data-name="Rectangle 24873" width="5.586" height="12.79" fill="none"/>
    </clipPath>
    <clipPath id="clip-path-13">
      <rect id="Rectangle_24874" data-name="Rectangle 24874" width="4.846" height="12.871" fill="none"/>
    </clipPath>
    <clipPath id="clip-path-14">
      <rect id="Rectangle_24875" data-name="Rectangle 24875" width="3.174" height="9.633" fill="none"/>
    </clipPath>
    <clipPath id="clip-path-15">
      <rect id="Rectangle_24876" data-name="Rectangle 24876" width="8.562" height="24.164" fill="none"/>
    </clipPath>
    <clipPath id="clip-path-16">
      <rect id="Rectangle_24877" data-name="Rectangle 24877" width="94.521" height="161.176" fill="none"/>
    </clipPath>
    <clipPath id="clip-path-17">
      <rect id="Rectangle_24880" data-name="Rectangle 24880" width="200.111" height="193.935" fill="none"/>
    </clipPath>
    <clipPath id="clip-path-18">
      <rect id="Rectangle_24882" data-name="Rectangle 24882" width="2.927" height="9.214" fill="none"/>
    </clipPath>
    <clipPath id="clip-path-19">
      <rect id="Rectangle_24883" data-name="Rectangle 24883" width="3.722" height="8.741" fill="none"/>
    </clipPath>
    <clipPath id="clip-path-20">
      <rect id="Rectangle_24884" data-name="Rectangle 24884" width="33.186" height="13.62" fill="none"/>
    </clipPath>
    <clipPath id="clip-path-21">
      <rect id="Rectangle_24885" data-name="Rectangle 24885" width="5.975" height="38.681" fill="none"/>
    </clipPath>
    <clipPath id="clip-path-22">
      <rect id="Rectangle_24886" data-name="Rectangle 24886" width="5.707" height="30.733" fill="none"/>
    </clipPath>
    <clipPath id="clip-path-23">
      <rect id="Rectangle_24887" data-name="Rectangle 24887" width="4.384" height="22.291" fill="none"/>
    </clipPath>
    <clipPath id="clip-path-24">
      <rect id="Rectangle_24888" data-name="Rectangle 24888" width="11.073" height="18.155" fill="none"/>
    </clipPath>
    <clipPath id="clip-path-25">
      <rect id="Rectangle_24889" data-name="Rectangle 24889" width="18.86" height="10.477" fill="none"/>
    </clipPath>
    <clipPath id="clip-path-26">
      <rect id="Rectangle_24890" data-name="Rectangle 24890" width="8.459" height="29.173" fill="none"/>
    </clipPath>
    <clipPath id="clip-path-27">
      <rect id="Rectangle_24891" data-name="Rectangle 24891" width="7.461" height="8.564" fill="none"/>
    </clipPath>
    <clipPath id="clip-path-28">
      <rect id="Rectangle_24892" data-name="Rectangle 24892" width="7.98" height="7.98" fill="none"/>
    </clipPath>
    <clipPath id="clip-path-30">
      <rect id="Rectangle_24894" data-name="Rectangle 24894" width="46.355" height="50.634" fill="none"/>
    </clipPath>
  </defs>
  <g id="Group_58585" data-name="Group 58585" transform="translate(21055.445 3306)">
    <g id="Group_58132" data-name="Group 58132" transform="translate(-21055.445 -3224.144)" opacity="0.62">
      <g id="Group_58131" data-name="Group 58131">
        <g id="Group_58130" data-name="Group 58130" clip-path="url(#clip-path)">
          <g id="Group_58120" data-name="Group 58120" opacity="0.37">
            <g id="Group_58119" data-name="Group 58119">
              <g id="Group_58118" data-name="Group 58118" clip-path="url(#clip-path-2)">
                <path id="Path_71192" data-name="Path 71192" d="M209.049,67a147.16,147.16,0,0,0-32.819,52.81,165.59,165.59,0,1,0,98.992,306.742A109.3,109.3,0,0,0,424.4,269.111,147.682,147.682,0,0,0,209.049,67" transform="translate(-23.908 -21.863)" fill="#f8e500"/>
              </g>
            </g>
          </g>
          <g id="Group_58123" data-name="Group 58123" transform="translate(38.078 99.994)" opacity="0.37">
            <g id="Group_58122" data-name="Group 58122">
              <g id="Group_58121" data-name="Group 58121" clip-path="url(#clip-path-3)">
                <path id="Path_71193" data-name="Path 71193" d="M162.874,112.792A91.416,91.416,0,0,0,142.486,145.6a102.873,102.873,0,1,0,61.5,190.563,67.9,67.9,0,0,0,92.675-97.81,91.747,91.747,0,0,0-133.784-125.56" transform="translate(-47.856 -84.75)" fill="#f8e500"/>
              </g>
            </g>
          </g>
          <g id="Group_58126" data-name="Group 58126" transform="translate(421.411 219.189)" opacity="0.37">
            <g id="Group_58125" data-name="Group 58125">
              <g id="Group_58124" data-name="Group 58124" clip-path="url(#clip-path-4)">
                <path id="Path_71194" data-name="Path 71194" d="M299.722,171.468A38.459,38.459,0,1,0,354.1,170.5a38.459,38.459,0,0,0-54.381.972" transform="translate(-288.938 -159.713)" fill="#f8e500"/>
              </g>
            </g>
          </g>
          <g id="Group_58129" data-name="Group 58129" transform="translate(443.19 181.956)" opacity="0.37">
            <g id="Group_58128" data-name="Group 58128">
              <g id="Group_58127" data-name="Group 58127" clip-path="url(#clip-path-5)">
                <path id="Path_71195" data-name="Path 71195" d="M306.405,140.408a13.451,13.451,0,1,0,19.02-.34,13.452,13.452,0,0,0-19.02.34" transform="translate(-302.635 -136.297)" fill="#f8e500"/>
              </g>
            </g>
          </g>
        </g>
      </g>
    </g>
    <path id="Path_71196" data-name="Path 71196" d="M29.732,399.946s119.89-491.049,276.4-1.97Z" transform="translate(-21036.176 -3199.132)" fill="#64891a"/>
    <path id="Path_71197" data-name="Path 71197" d="M43,372.259s168.517-272.862,441.379,0Z" transform="translate(-21028.346 -3157.905)" fill="#a1c343"/>
    <path id="Path_71198" data-name="Path 71198" d="M130.239,265.372c.367,1.243-1.35,2.848-3.837,3.584s-4.8.324-5.168-.919,1.348-2.848,3.835-3.584,4.8-.324,5.169.919" transform="translate(-20982.213 -3150.175)" fill="#64891a"/>
    <path id="Path_71199" data-name="Path 71199" d="M212.507,261.489c.367,1.243-1.35,2.848-3.837,3.584s-4.8.324-5.168-.919,1.348-2.848,3.835-3.584,4.8-.324,5.169.919" transform="translate(-20933.672 -3152.465)" fill="#64891a"/>
    <path id="Path_71200" data-name="Path 71200" d="M179.275,258.419c.369,1.243-1.35,2.848-3.835,3.584s-4.8.324-5.169-.919,1.35-2.848,3.835-3.584,4.8-.324,5.169.919" transform="translate(-20953.279 -3154.277)" fill="#64891a"/>
    <path id="Path_71201" data-name="Path 71201" d="M138.755,266.937c.232.784-.851,1.8-2.417,2.258s-3.026.205-3.256-.579.849-1.794,2.417-2.258,3.024-.205,3.256.579" transform="translate(-20975.213 -3148.971)" fill="#64891a"/>
    <path id="Path_71202" data-name="Path 71202" d="M200.439,261c-.165.8-1.6,1.181-3.2.851s-2.763-1.247-2.6-2.046,1.6-1.181,3.2-.851,2.763,1.247,2.6,2.046" transform="translate(-20938.879 -3153.276)" fill="#64891a"/>
    <path id="Path_71203" data-name="Path 71203" d="M220.513,270.944c-.165.8-1.6,1.181-3.2.851s-2.764-1.247-2.6-2.046,1.6-1.181,3.2-.851,2.763,1.247,2.6,2.046" transform="translate(-20927.033 -3147.407)" fill="#64891a"/>
    <path id="Path_71204" data-name="Path 71204" d="M154.108,256.516c.232.784-.851,1.794-2.417,2.258s-3.026.205-3.256-.579.849-1.794,2.417-2.258,3.024-.205,3.256.579" transform="translate(-20966.152 -3155.12)" fill="#64891a"/>
    <path id="Path_71205" data-name="Path 71205" d="M188.67,256.516c.232.784-.851,1.794-2.417,2.258s-3.024.205-3.256-.579.851-1.794,2.417-2.258,3.024-.205,3.256.579" transform="translate(-20945.76 -3155.12)" fill="#64891a"/>
    <path id="Path_71206" data-name="Path 71206" d="M151.378,260.378c.254,1.746-3.608,3.754-8.624,4.482s-9.289-.1-9.543-1.843,3.608-3.754,8.624-4.482,9.289.1,9.543,1.843" transform="translate(-20975.125 -3153.607)" fill="#64891a"/>
    <path id="Path_71207" data-name="Path 71207" d="M173.675,263.632c-.356,1.728-4.67,2.3-9.636,1.275s-8.7-3.256-8.345-4.985,4.672-2.3,9.636-1.275,8.7,3.256,8.345,4.985" transform="translate(-20961.865 -3153.686)" fill="#64891a"/>
    <path id="Path_71208" data-name="Path 71208" d="M198.246,266.651c-.356,1.728-4.67,2.3-9.636,1.275s-8.7-3.256-8.345-4.985,4.672-2.3,9.636-1.275,8.7,3.256,8.345,4.985" transform="translate(-20947.367 -3151.904)" fill="#64891a"/>
    <path id="Path_71209" data-name="Path 71209" d="M412.549,339.859a30.019,30.019,0,0,0-36.384-24.471,49.492,49.492,0,1,0-95.8,24.471h0v19.019H412.98V339.859Z" transform="translate(-20889.561 -3144.808)" fill="#e59a00"/>
    <path id="Path_71210" data-name="Path 71210" d="M397.329,337.646a25.052,25.052,0,0,0-30.362-20.419,41.3,41.3,0,1,0-79.948,20.419h0v15.87H397.688v-15.87Z" transform="translate(-20885.422 -3139.253)" fill="#ce8402"/>
    <rect id="Rectangle_24851" data-name="Rectangle 24851" width="1.566" height="65.295" transform="translate(-20562.57 -2850.609)" fill="#fff"/>
    <rect id="Rectangle_24852" data-name="Rectangle 24852" width="1.566" height="50.602" transform="translate(-20589.061 -2840.458) rotate(-31.723)" fill="#fff"/>
    <rect id="Rectangle_24853" data-name="Rectangle 24853" width="35.719" height="1.565" transform="translate(-20562.359 -2815.183) rotate(-47.225)" fill="#fff"/>
    <rect id="Rectangle_24854" data-name="Rectangle 24854" width="59.639" height="1.567" transform="translate(-20562.111 -2787.98) rotate(-24.406)" fill="#fff"/>
    <rect id="Rectangle_24855" data-name="Rectangle 24855" width="24.161" height="1.566" transform="translate(-20539.27 -2799.622) rotate(-76.43)" fill="#fff"/>
    <rect id="Rectangle_24856" data-name="Rectangle 24856" width="1.567" height="25.839" transform="translate(-20526.834 -2802.403) rotate(-82.013)" fill="#fff"/>
    <path id="Path_71211" data-name="Path 71211" d="M135.208,337.154a30.025,30.025,0,0,0-36.382-24.471A49.492,49.492,0,1,0,3.021,337.154h0v19.019H135.641V337.154Z" transform="translate(-21053.205 -3141.819)" fill="#e59a00"/>
    <path id="Path_71212" data-name="Path 71212" d="M119.987,334.941a25.05,25.05,0,0,0-30.36-20.419A41.3,41.3,0,1,0,9.678,334.941h0v15.872H120.348V334.941Z" transform="translate(-21049.316 -3136.459)" fill="#ce8402"/>
    <rect id="Rectangle_24857" data-name="Rectangle 24857" width="1.566" height="68.264" transform="translate(-21003.555 -2853.91)" fill="#fff"/>
    <path id="Path_71213" data-name="Path 71213" d="M41.5,333.429,14.889,290.386l1.331-.825L42.828,332.6Z" transform="translate(-21044.934 -3135.145)" fill="#fff"/>
    <rect id="Rectangle_24858" data-name="Rectangle 24858" width="35.719" height="1.565" transform="translate(-21003.344 -2819.483) rotate(-47.225)" fill="#fff"/>
    <rect id="Rectangle_24859" data-name="Rectangle 24859" width="59.639" height="1.567" transform="translate(-21003.096 -2792.281) rotate(-24.406)" fill="#fff"/>
    <rect id="Rectangle_24860" data-name="Rectangle 24860" width="24.16" height="1.566" transform="translate(-20980.266 -2802.311) rotate(-76.373)" fill="#fff"/>
    <rect id="Rectangle_24861" data-name="Rectangle 24861" width="1.567" height="25.84" transform="matrix(0.139, -0.99, 0.99, 0.139, -20967.818, -2806.704)" fill="#fff"/>
    <path id="Path_71214" data-name="Path 71214" d="M209.493,335.824a21.826,21.826,0,0,1,26.452-17.791A35.983,35.983,0,1,1,305.6,335.824h0v13.827H209.178V335.824Z" transform="translate(-20930.293 -3135.274)" fill="#eec300"/>
    <path id="Path_71215" data-name="Path 71215" d="M214.541,334.215a18.21,18.21,0,0,1,22.072-14.846,30.029,30.029,0,1,1,58.129,14.846h0v11.539H214.277V334.215Z" transform="translate(-20927.285 -3131.685)" fill="#f8e500"/>
    <rect id="Rectangle_24862" data-name="Rectangle 24862" width="1.138" height="47.473" transform="translate(-20659.736 -2833.097)" fill="#fff"/>
    <path id="Path_71216" data-name="Path 71216" d="M248.8,333.115l19.345-31.294-.967-.6-19.345,31.294Z" transform="translate(-20907.484 -3128.264)" fill="#fff"/>
    <rect id="Rectangle_24863" data-name="Rectangle 24863" width="1.138" height="25.969" transform="matrix(0.734, -0.679, 0.679, 0.734, -20677.225, -2826.354)" fill="#fff"/>
    <rect id="Rectangle_24864" data-name="Rectangle 24864" width="1.139" height="43.36" transform="translate(-20698.885 -2805.172) rotate(-65.583)" fill="#fff"/>
    <rect id="Rectangle_24865" data-name="Rectangle 24865" width="1.139" height="17.566" transform="translate(-20680.766 -2812.386) rotate(-13.57)" fill="#fff"/>
    <rect id="Rectangle_24866" data-name="Rectangle 24866" width="18.787" height="1.14" transform="translate(-20703.342 -2797.294) rotate(-7.988)" fill="#fff"/>
    <path id="Path_71217" data-name="Path 71217" d="M36.456,347.834s77.059-124.771,201.83,0Z" transform="translate(-21032.207 -3133.48)" fill="#64891a"/>
    <path id="Path_71218" data-name="Path 71218" d="M76.348,298.958c.169.568-.617,1.3-1.754,1.639s-2.2.148-2.364-.421.617-1.3,1.754-1.638,2.2-.15,2.364.42" transform="translate(-21011.113 -3129.946)" fill="#a1c343"/>
    <path id="Path_71219" data-name="Path 71219" d="M113.967,297.183c.169.569-.617,1.3-1.754,1.639s-2.2.148-2.364-.42.617-1.3,1.755-1.639,2.194-.148,2.363.42" transform="translate(-20988.916 -3130.993)" fill="#a1c343"/>
    <path id="Path_71220" data-name="Path 71220" d="M98.771,295.779c.169.569-.617,1.3-1.754,1.639s-2.2.148-2.364-.421.617-1.3,1.755-1.638,2.194-.148,2.363.42" transform="translate(-20997.883 -3131.822)" fill="#a1c343"/>
    <path id="Path_71221" data-name="Path 71221" d="M80.241,299.673c.107.358-.39.82-1.105,1.034s-1.383.092-1.49-.266.39-.82,1.105-1.032,1.383-.094,1.49.264" transform="translate(-21007.912 -3129.396)" fill="#a1c343"/>
    <path id="Path_71222" data-name="Path 71222" d="M108.448,296.957c-.075.366-.73.541-1.461.39s-1.264-.571-1.189-.937.73-.539,1.463-.39,1.264.571,1.188.937" transform="translate(-20991.297 -3131.364)" fill="#a1c343"/>
    <path id="Path_71223" data-name="Path 71223" d="M117.627,301.506c-.075.366-.73.541-1.461.39s-1.264-.571-1.188-.937.73-.541,1.461-.39,1.264.571,1.188.937" transform="translate(-20985.881 -3128.681)" fill="#a1c343"/>
    <path id="Path_71224" data-name="Path 71224" d="M87.262,294.908c.107.358-.39.82-1.105,1.034s-1.383.092-1.49-.266.39-.82,1.105-1.032,1.383-.094,1.49.264" transform="translate(-21003.77 -3132.207)" fill="#a1c343"/>
    <path id="Path_71225" data-name="Path 71225" d="M103.066,294.908c.107.358-.388.82-1.105,1.034s-1.383.092-1.49-.266.39-.82,1.105-1.032,1.383-.094,1.49.264" transform="translate(-20994.443 -3132.207)" fill="#a1c343"/>
    <path id="Path_71226" data-name="Path 71226" d="M86.014,296.675c.116.8-1.649,1.716-3.943,2.05s-4.249-.044-4.365-.843,1.65-1.716,3.943-2.05,4.249.045,4.365.843" transform="translate(-21007.871 -3131.516)" fill="#a1c343"/>
    <path id="Path_71227" data-name="Path 71227" d="M96.211,298.162c-.165.79-2.135,1.051-4.408.583s-3.977-1.49-3.816-2.28,2.137-1.051,4.408-.584,3.978,1.49,3.816,2.28" transform="translate(-21001.809 -3131.552)" fill="#a1c343"/>
    <path id="Path_71228" data-name="Path 71228" d="M107.445,299.542c-.164.79-2.135,1.051-4.406.584s-3.978-1.49-3.816-2.28,2.137-1.051,4.406-.584,3.978,1.49,3.816,2.28" transform="translate(-20995.178 -3130.737)" fill="#a1c343"/>
    <path id="Path_71229" data-name="Path 71229" d="M267.451,188.915c-6.344,37.064-24.56,71.789-42.273,103.934,23.237,21.9,44.628,47.019,66.763,70.323-5.451,10.99-13.911,20.873-20.855,30.742-20.47-4.532-40.829-10.426-59.74-20.254s-36.406-23.786-49.016-42.451a80.919,80.919,0,0,1-9.308-17.815c-5.57-15.484-5.095-33.129-1.466-49.436s10.234-31.577,16.793-46.706q10.287-23.734,20.575-47.468c22.941,16.142,51.68,24.1,78.528,19.132" transform="translate(-20965.902 -3205.819)" fill="#62a6f6"/>
    <path id="Path_71230" data-name="Path 71230" d="M255.412,292.716l12.8,19.029a11.783,11.783,0,0,1,1.919,9.265,3.581,3.581,0,0,1-.4,1,6.142,6.142,0,0,1-2.12,1.849c-8.837,5.55-17.342,11.635-26.355,16.9a115.094,115.094,0,0,1-14.015,7.074c-1.611.665-13.575,5.5-14.169,3.8-1.984-5.678,2.255-12.232,5.359-16.808,3.678-5.422,8.39-10.034,13.13-14.51.852-.8,18.352-17.639,23.85-27.6" transform="translate(-20931.295 -3137.343)" fill="#656565"/>
    <g id="Group_58135" data-name="Group 58135" transform="translate(-20708.146 -2800.891)" style="mix-blend-mode: multiply;isolation: isolate">
      <g id="Group_58134" data-name="Group 58134">
        <g id="Group_58133" data-name="Group 58133" clip-path="url(#clip-path-6)">
          <path id="Path_71231" data-name="Path 71231" d="M217.614,318.5a14.528,14.528,0,0,1,4.2,2.62,15.972,15.972,0,0,1,1.746,1.817,25.952,25.952,0,0,1,1.472,2.151.625.625,0,0,0,1.078-.631,13.069,13.069,0,0,0-1.66-2.234,16.589,16.589,0,0,0-1.988-1.924,15.269,15.269,0,0,0-4.624-2.6c-.514-.18-.706.607-.221.8" transform="translate(-217.334 -317.669)" fill="#cfcfcf"/>
        </g>
      </g>
    </g>
    <g id="Group_58138" data-name="Group 58138" transform="translate(-20702.111 -2806.083)" style="mix-blend-mode: multiply;isolation: isolate">
      <g id="Group_58137" data-name="Group 58137">
        <g id="Group_58136" data-name="Group 58136" clip-path="url(#clip-path-7)">
          <path id="Path_71232" data-name="Path 71232" d="M221.373,315.058a7.317,7.317,0,0,1,5.109,4.913.624.624,0,1,0,1.142-.48c-1.107-2.425-3.326-4.689-6.071-5.083-.417-.06-.611.533-.18.65" transform="translate(-221.13 -314.403)" fill="#cfcfcf"/>
        </g>
      </g>
    </g>
    <g id="Group_58141" data-name="Group 58141" transform="translate(-20697.516 -2812.376)" style="mix-blend-mode: multiply;isolation: isolate">
      <g id="Group_58140" data-name="Group 58140">
        <g id="Group_58139" data-name="Group 58139" clip-path="url(#clip-path-8)">
          <path id="Path_71233" data-name="Path 71233" d="M224.179,311.066a27.324,27.324,0,0,1,3.543,2.625,25.844,25.844,0,0,1,3.066,3.272c.439.556,1.278-.246.792-.792a26.064,26.064,0,0,0-7.063-5.683.334.334,0,0,0-.337.577" transform="translate(-224.02 -310.446)" fill="#cfcfcf"/>
        </g>
      </g>
    </g>
    <path id="Path_71234" data-name="Path 71234" d="M192.857,124.88a26.119,26.119,0,0,0-7.157,6.559c-7.5,9.583-10.276,21.973-12.034,34.013a202.325,202.325,0,0,0-2.3,28.823c-.008,4.009.162,8.139,1.813,11.793,2.053,4.544,6.185,7.837,10.587,10.181,7.793,4.15,16.645,5.805,25.38,7.081a221.325,221.325,0,0,0,39.788,2.636,17.665,17.665,0,0,0,6.874-1.223,17.31,17.31,0,0,0,5.067-4.1,120.72,120.72,0,0,0,23.243-35.67c4.645-10.99,7.659-23.18,5.182-34.851a24.747,24.747,0,0,0-5.452-11.584c-3.008-3.325-7.143-5.406-11.32-7.038-11.275-4.4-23.39-5.982-35.4-6.7-9.1-.539-17.92-2.244-26.962-2.9-5.91-.426-12.081-.111-17.311,2.969" transform="translate(-20952.602 -3234.156)" fill="#6d6a93"/>
    <path id="Path_71235" data-name="Path 71235" d="M184.689,146.51c-8.756-6.182-12.739-17.055-15.425-27.432-2.7-10.421-4.6-21.227-3.457-31.931s5.646-21.381,13.948-28.238c1.73-1.429,3.76-2.93,4.058-5.157s-2.865-4.428-4.171-2.6c2.25-3.144,5.559-10.8,1.022-13.523a2.414,2.414,0,0,0-3.422.531c1.908-3.336-6.406-8.133-7.973-3.353.778-2.376-2.965-3.654-4.662-3.465-3.765.42-6.675,3.767-9.02,6.433-2.861,3.253-5.853,6.363-8.481,9.819a91.88,91.88,0,0,0-12.175,21.666,99.367,99.367,0,0,0-6.564,27.153c-2.35,24.294,3.824,48.964,15.063,70.632a82.882,82.882,0,0,0,10.79,16.511c9.865-6.821,18.635-16.5,25.552-26.291,2.436-3.45,4.325-6.57,4.916-10.752" transform="translate(-20978.268 -3287.519)" fill="#edd6a6"/>
    <g id="Group_58144" data-name="Group 58144" transform="translate(-20813.242 -3253.26)" style="mix-blend-mode: multiply;isolation: isolate">
      <g id="Group_58143" data-name="Group 58143">
        <g id="Group_58142" data-name="Group 58142" clip-path="url(#clip-path-9)">
          <path id="Path_71236" data-name="Path 71236" d="M155.925,33.344c-.429-.561-.984.38-1.194.692a22.556,22.556,0,0,0-1.387,2.315,33.787,33.787,0,0,0-2.081,4.862c-.175.534.625.727.827.229.549-1.364,1.111-2.719,1.752-4.042.318-.658.639-1.315.97-1.965.154-.3.31-.607.464-.911.04-.079.42-.9.434-.9.142.027.326-.135.215-.28" transform="translate(-151.238 -33.169)" fill="#edd6a6"/>
        </g>
      </g>
    </g>
    <g id="Group_58147" data-name="Group 58147" transform="translate(-20806.279 -3250.226)" style="mix-blend-mode: multiply;isolation: isolate">
      <g id="Group_58146" data-name="Group 58146">
        <g id="Group_58145" data-name="Group 58145" clip-path="url(#clip-path-10)">
          <path id="Path_71237" data-name="Path 71237" d="M160.71,35.2c-.929,1.315-1.819,2.647-2.663,4.018a37.969,37.969,0,0,0-2.385,4.18.4.4,0,0,0,.682.4c.908-1.309,1.655-2.762,2.455-4.14s1.593-2.784,2.377-4.185a.27.27,0,0,0-.466-.272" transform="translate(-155.617 -35.077)" fill="#edd6a6"/>
        </g>
      </g>
    </g>
    <g id="Group_58150" data-name="Group 58150" transform="translate(-20802.842 -3237.216)" style="mix-blend-mode: multiply;isolation: isolate">
      <g id="Group_58149" data-name="Group 58149">
        <g id="Group_58148" data-name="Group 58148" clip-path="url(#clip-path-11)">
          <path id="Path_71238" data-name="Path 71238" d="M162.478,43.273a9.562,9.562,0,0,0-2.573,1.207,8.409,8.409,0,0,0-1.111.9q-.253.243-.487.506a3.358,3.358,0,0,0-.479.606.416.416,0,0,0,.65.5c.156-.149.278-.35.42-.515s.294-.334.45-.493a10.478,10.478,0,0,1,1-.881,8.288,8.288,0,0,1,2.288-1.274c.345-.126.208-.669-.154-.56" transform="translate(-157.779 -43.259)" fill="#edd6a6"/>
        </g>
      </g>
    </g>
    <path id="Path_71239" data-name="Path 71239" d="M225.413,134.875c-9.615-1.568-18.483-6.333-26.134-12.363S185.074,109.2,178.621,101.9a461.467,461.467,0,0,1-35.507,42.59c11.221,18.433,29.909,30.419,48.8,40.852,1.547-4.465,3.075-9.749,5.581-13.754l6.731-10.757c5.878-9.4,12.1-19.607,21.189-25.953" transform="translate(-20969.273 -3245.875)" fill="#6d6a93"/>
    <path id="Path_71240" data-name="Path 71240" d="M277.178,190.594c-2.706,28.279-15.058,54.641-27.923,79.97-22.957,45.205-50.769,88.569-78.1,131.273-11.58-4.5-22.774-9.06-34.444-13.328A1810.333,1810.333,0,0,0,208.7,181.537c6.209,3.08,11.89,5.751,18.769,6.592,15.924,1.948,33.677,1.951,49.711,2.465" transform="translate(-20973.051 -3198.884)" fill="#89bef4"/>
    <path id="Path_71241" data-name="Path 71241" d="M182.441,324.955a46.246,46.246,0,0,1-10.593,15.516,7.068,7.068,0,0,1-2.733,1.856,7.663,7.663,0,0,1-4.158-.332c-16.659-4.519-33.525-9.122-48.509-17.689,6.61-10.467,20.577-15.632,32.405-11.984,11.022,3.4,22.353,10.028,33.588,12.635" transform="translate(-20981.008 -3127.72)" fill="#656565"/>
    <g id="Group_58153" data-name="Group 58153" transform="translate(-20854.031 -2809.933)" style="mix-blend-mode: multiply;isolation: isolate">
      <g id="Group_58152" data-name="Group 58152">
        <g id="Group_58151" data-name="Group 58151" clip-path="url(#clip-path-12)">
          <path id="Path_71242" data-name="Path 71242" d="M125.755,312.629a7.957,7.957,0,0,1,3.462,4.617c.711,2.283.531,4.581.7,6.925a.622.622,0,0,0,1.243,0,24.123,24.123,0,0,0-.27-3.859,14.984,14.984,0,0,0-.9-3.656,8.8,8.8,0,0,0-3.884-4.63.349.349,0,0,0-.353.6" transform="translate(-125.585 -311.982)" fill="#cfcfcf"/>
        </g>
      </g>
    </g>
    <g id="Group_58156" data-name="Group 58156" transform="translate(-20846.033 -2811.292)" style="mix-blend-mode: multiply;isolation: isolate">
      <g id="Group_58155" data-name="Group 58155">
        <g id="Group_58154" data-name="Group 58154" clip-path="url(#clip-path-13)">
          <path id="Path_71243" data-name="Path 71243" d="M130.708,311.777a15.6,15.6,0,0,1,2.962,5.538,18.529,18.529,0,0,1,.584,6.136c-.029.747,1.056.709,1.138,0a15.315,15.315,0,0,0-.911-6.562,17.515,17.515,0,0,0-3.247-5.638c-.313-.366-.83.162-.526.526" transform="translate(-130.616 -311.127)" fill="#cfcfcf"/>
        </g>
      </g>
    </g>
    <g id="Group_58159" data-name="Group 58159" transform="translate(-20838.129 -2810.134)" style="mix-blend-mode: multiply;isolation: isolate">
      <g id="Group_58158" data-name="Group 58158">
        <g id="Group_58157" data-name="Group 58157" clip-path="url(#clip-path-14)">
          <path id="Path_71244" data-name="Path 71244" d="M135.648,312.318a11.674,11.674,0,0,1,2.105,8.582.479.479,0,1,0,.944.127,12.93,12.93,0,0,0-2.493-9.035c-.245-.324-.8-.014-.557.326" transform="translate(-135.587 -311.856)" fill="#cfcfcf"/>
        </g>
      </g>
    </g>
    <g id="Group_58162" data-name="Group 58162" transform="translate(-20714.609 -3001.881)" style="mix-blend-mode: multiply;isolation: isolate">
      <g id="Group_58161" data-name="Group 58161">
        <g id="Group_58160" data-name="Group 58160" clip-path="url(#clip-path-15)">
          <path id="Path_71245" data-name="Path 71245" d="M214.439,191.523a21.986,21.986,0,0,0-.363,12.989,22.5,22.5,0,0,0,2.579,5.917,15.889,15.889,0,0,0,4.381,4.913c.523.342,1.061-.412.65-.843a33.264,33.264,0,0,1-4.066-4.635,21.606,21.606,0,0,1-2.639-5.751,20.714,20.714,0,0,1,.181-12.39c.154-.461-.566-.654-.723-.2" transform="translate(-213.27 -191.264)" fill="#cfcfcf"/>
        </g>
      </g>
    </g>
    <g id="Group_58165" data-name="Group 58165" transform="translate(-20803.594 -2970.405)" style="mix-blend-mode: multiply;isolation: isolate">
      <g id="Group_58164" data-name="Group 58164">
        <g id="Group_58163" data-name="Group 58163" clip-path="url(#clip-path-16)">
          <path id="Path_71246" data-name="Path 71246" d="M251.187,211.232c-11.549,21.343-23.24,42.61-35.294,63.674q-17.988,31.431-36.988,62.266-5.321,8.648-10.725,17.246c-3.6,5.726-7.391,11.358-10.809,17.19-.283.483.428.878.739.433,3.519-5.013,6.7-10.284,9.971-15.462q4.813-7.611,9.564-15.261,9.6-15.465,18.933-31.1,18.568-31.092,36.056-62.81,9.81-17.79,19.151-35.83c.2-.394-.385-.743-.6-.35" transform="translate(-157.306 -211.059)" fill="#cfcfcf"/>
        </g>
      </g>
    </g>
    <rect id="Rectangle_24878" data-name="Rectangle 24878" width="126.946" height="202.496" transform="matrix(0.657, -0.754, 0.754, 0.657, -20716.73, -3210.324)" fill="#f8e500"/>
    <g id="Group_58168" data-name="Group 58168" transform="translate(-20697.75 -3288.584)" opacity="0.5">
      <g id="Group_58167" data-name="Group 58167">
        <g id="Group_58166" data-name="Group 58166" clip-path="url(#clip-path-17)">
          <rect id="Rectangle_24879" data-name="Rectangle 24879" width="107.617" height="171.666" transform="translate(0 81.108) rotate(-48.91)" fill="#fff"/>
        </g>
      </g>
    </g>
    <path id="Path_71247" data-name="Path 71247" d="M292.19,49.819A8.1,8.1,0,0,0,287.775,37.2c-5.552-1.339-10.781,2.846-11.784,8.2-.952,5.069,1.827,10.439.258,15.371a5.985,5.985,0,0,1-7.55,3.807c-3.509-1.216-4.414-5.6-2.881-8.634.962-1.9-1.752-3.614-2.868-1.735a9.713,9.713,0,0,0,4.336,13.628A9.935,9.935,0,0,0,280.3,62.212c1.824-5.026-.59-10.183.016-15.29.342-2.891,2.436-5.471,5.541-5.529a4.678,4.678,0,0,1,3.975,7c-.967,1.531,1.3,2.8,2.358,1.425" transform="translate(-20899.322 -3284.197)" fill="#6dbd45"/>
    <path id="Path_71248" data-name="Path 71248" d="M273.642,68.527q6.366-4.133,12.762-8.219,2.8-1.8,5.578-3.6c.668-.434,5.317-4.117,6.08-3.42,1.083.987-1.221,4.784-1.62,5.589q-1.491,2.991-3.18,5.877a110.453,110.453,0,0,1-8.644,12.585c-1.372,1.741,1.662,4.212,3.066,2.471A100.373,100.373,0,0,0,298.5,63.456c1.717-3.269,5.513-8.99,2.552-12.635-3.477-4.279-9.469,1.746-12.366,3.783-5.455,3.835-10.873,7.726-16.328,11.563-1.388.975-.186,3.314,1.283,2.36" transform="translate(-20893.375 -3276.898)" fill="#6dbd45"/>
    <path id="Path_71249" data-name="Path 71249" d="M277.423,59.77a44,44,0,0,1,9.6,7.2c1.738,1.72,4.113-1.076,2.127-2.639a54.315,54.315,0,0,0-10.552-6.5c-1.294-.609-2.479,1.221-1.177,1.946" transform="translate(-20890.359 -3271.953)" fill="#6dbd45"/>
    <path id="Path_71250" data-name="Path 71250" d="M304.3,59.748c-4.172,5.19-7.4,11.544-10.6,17.371-2.019,3.681-4.46,9.583-.644,13.037,4.056,3.671,8.815-1.838,11.676-4.354,4.956-4.36,9.9-8.736,14.636-13.341,1.79-1.743-.857-4.54-2.67-2.818C313.058,73.107,309.441,76.6,305.731,80c-1.622,1.487-3.25,2.964-4.908,4.411-1.293,1.129-4.362,4.783-5.53,1.954-.785-1.9.743-4.786,1.588-6.413.991-1.908,2.069-3.773,3.083-5.67,2.344-4.382,5.012-8.822,6.677-13.517.529-1.5-1.514-2.042-2.339-1.014" transform="translate(-20881.98 -3271.057)" fill="#6dbd45"/>
    <path id="Path_71251" data-name="Path 71251" d="M335.884,80.206q-3.511-2.633-7.02-5.268c-1.79-1.342-3.827-3.512-6.037-4.133-1.841-.517-3.326.6-4.565,1.824-2.118,2.085-4.18,4.253-6.168,6.462-1.887,2.1-3.683,4.29-5.46,6.481-1.549,1.908-3.915,4.077-4.721,6.433-.693,2.027.181,3.6,1.657,4.972a78.21,78.21,0,0,0,7.166,5.958c1.717,1.243,3.7-1.372,2.3-2.853-1.563-1.649-3.326-3.117-5.013-4.64-.375-.339-1.784-1.2-1.9-1.741-.2-.889.927-1.825,1.468-2.528,2.573-3.338,5.263-6.57,7.936-9.828,1.3-1.584,2.606-3.159,3.94-4.715a10.586,10.586,0,0,1,1.959-2.256c1.234-.708,1.69-.073,2.619.55,3.568,2.39,7.122,4.8,10.682,7.206,1.216.82,2.3-1.072,1.164-1.926" transform="translate(-20875.717 -3264.297)" fill="#6dbd45"/>
    <path id="Path_71252" data-name="Path 71252" d="M306.207,79.02q3.995,4.064,7.928,8.186c1.342,1.41,3.59-.8,2.167-2.053q-4.288-3.783-8.512-7.632c-1.027-.935-2.577.487-1.584,1.5" transform="translate(-20873.23 -3260.439)" fill="#6dbd45"/>
    <g id="Group_58582" data-name="Group 58582" transform="translate(-7.719 1560)">
      <path id="Path_71253" data-name="Path 71253" d="M252.952,50.987c-2.353,1.989-4.125,4.991-5.934,7.467a80.557,80.557,0,0,0-5.537,7.944c-.916,1.638,1.635,2.811,2.733,1.546a78.153,78.153,0,0,0,5.521-7.891c1.646-2.457,3.808-5.05,4.839-7.834.345-.933-.8-1.929-1.622-1.231" transform="translate(-20903.629 -4836.054)" fill="#e59a00"/>
      <path id="Path_71254" data-name="Path 71254" d="M244.252,50.728c5.231,2.471,10.116,5.433,15.164,8.23,1.372.76,2.732-1.608,1.372-2.428a116.767,116.767,0,0,0-15.832-7.567c-1.137-.471-1.8,1.245-.7,1.765" transform="translate(-20902.209 -4837.157)" fill="#e59a00"/>
      <path id="Path_71255" data-name="Path 71255" d="M258.192,56.295c-1.859,2.406-3.687,4.834-5.511,7.267-1.709,2.279-3.848,4.571-5.075,7.149-.739,1.555,1.4,2.385,2.414,1.364,1.991-2.011,3.417-4.859,4.97-7.219q2.416-3.666,4.786-7.359c.679-1.065-.79-2.229-1.584-1.2" transform="translate(-20899.99 -4833.018)" fill="#e59a00"/>
      <path id="Path_71256" data-name="Path 71256" d="M249.414,62.1c1.924,1.266,3.87,2.495,5.813,3.729a61.465,61.465,0,0,0,5.559,3.489c1.377.679,2.476-1.409,1.305-2.307a41.963,41.963,0,0,0-5.677-3.282c-2.029-1.1-4.08-2.126-6.185-3.07-.848-.38-1.611.919-.816,1.442" transform="translate(-20899.031 -4830.251)" fill="#e59a00"/>
      <path id="Path_71257" data-name="Path 71257" d="M264.452,58.909C260.49,64.3,256.47,69.58,252.183,74.721c-1.326,1.588,1.262,3.563,2.565,1.946A109.8,109.8,0,0,0,266,59.784c.482-.9-.96-1.674-1.549-.875" transform="translate(-20897.416 -4831.438)" fill="#e59a00"/>
      <path id="Path_71258" data-name="Path 71258" d="M275.358,68.754c-1.372-1.385-2.686-2.87-4.133-4.172a2.147,2.147,0,0,0-2.646-.547c-1.546.728-2.94,2.444-4.195,3.566-1.552,1.388-3.112,2.767-4.64,4.18-2,1.848-5.756,4.253-3.8,7.354a20.5,20.5,0,0,0,8.936,7.033,1.458,1.458,0,0,0,1.417-2.5,44.622,44.622,0,0,1-6.268-4.889c-.184-.189-1.317-1.131-1.282-1.452.043-.382,1.142-1.212,1.367-1.434.929-.913,1.864-1.816,2.781-2.738q2.791-2.8,5.554-5.635c.2-.2,1.038-1.391,1.326-1.4a10.626,10.626,0,0,1,1.107,1.034l3.177,2.9c.76.693,2.026-.557,1.294-1.3" transform="translate(-20895.303 -4828.363)" fill="#e59a00"/>
      <path id="Path_71259" data-name="Path 71259" d="M260.089,68.977a40.379,40.379,0,0,1,6.925,6.077,1.226,1.226,0,1,0,1.724-1.73,43.107,43.107,0,0,0-7.521-5.832c-1-.614-2.128.785-1.127,1.485" transform="translate(-20892.764 -4826.266)" fill="#e59a00"/>
      <path id="Path_71260" data-name="Path 71260" d="M283.117,76.224c-2.773,2.708-5.314,5.724-7.885,8.624l-3.907,4.414a37.146,37.146,0,0,0-4.039,4.773c-.833,1.35.749,3.35,2.137,2.129,2.881-2.533,5.142-6.091,7.545-9.076,2.52-3.129,5.185-6.243,7.47-9.548.569-.822-.525-2.094-1.321-1.317" transform="translate(-20888.424 -4821.167)" fill="#e59a00"/>
      <path id="Path_71261" data-name="Path 71261" d="M279.454,76.432c3.9.475,6.1,5.182,2.808,7.936-2.771,2.315-6.527,1.56-9.795,1.193a1.356,1.356,0,0,0-.324,2.69c4.662.782,10.973.782,13.318-4.241,1.975-4.23-1.379-8.9-5.807-9.237a.836.836,0,0,0-.2,1.658" transform="translate(-20886.098 -4821.881)" fill="#e59a00"/>
      <path id="Path_71262" data-name="Path 71262" d="M287.6,80.709q-3.513,3.442-6.883,7.025c-2.073,2.2-4.734,4.381-6.3,6.971a5,5,0,0,0,5.1,7.486c1.954-.353,1.56-3.369-.421-3.069a2.037,2.037,0,0,1-2.3-2.089c.1-.878,1.045-1.736,1.584-2.356q1.078-1.247,2.147-2.5c2.843-3.35,5.681-6.7,8.391-10.159.63-.8-.542-2.056-1.309-1.305" transform="translate(-20884.502 -4818.514)" fill="#e59a00"/>
      <path id="Path_71263" data-name="Path 71263" d="M280.7,100.023a82.387,82.387,0,0,1,7.429-6.371c1.3-.984,2.633-1.937,4-2.835.684-.45,1.377-.882,2.077-1.307.477-.289,2.056-.852,2.223-1.266q-.279-.975-.493-.173l-.353.634c-.521.946-1.07,1.879-1.625,2.806q-1.3,2.18-2.682,4.309t-2.851,4.2q-.627.89-1.27,1.768a17.82,17.82,0,0,0-1.394,2.231l1.129.855-.1-.258c-.555-1.517-2.717-.776-2.611.708.008.092.014.184.021.277a1.371,1.371,0,0,0,.87,1.113c1.911.6,2.9-.728,3.934-2.155,1.495-2.054,2.908-4.172,4.268-6.317q1.853-2.924,3.552-5.945c.787-1.394,2.492-3.442,2.091-5.172-.97-4.2-6.783.711-8.268,1.752a83.234,83.234,0,0,0-11.229,9.466c-.937.943.3,2.627,1.283,1.677" transform="translate(-20881.328 -4815.576)" fill="#e59a00"/>
      <path id="Path_71264" data-name="Path 71264" d="M282.062,93.317c3.151,1.83,6.285,3.654,9.542,5.29,1.037.523,2-1.159,1.013-1.79-3.07-1.965-6.239-3.729-9.423-5.5-1.129-.63-2.266,1.347-1.132,2" transform="translate(-20879.846 -4812.192)" fill="#e59a00"/>
      <path id="Path_71265" data-name="Path 71265" d="M298.208,91.075q-6.537,7.823-12.994,15.711l2.391,1.813c1.9-2.554,3.762-5.142,5.64-7.715,1.013-1.385,2.021-2.771,3.047-4.148q.658-.882,1.317-1.768c.146-.194,1.722-2.329,1-1.541-1.633,1.771-2.3,5.449-2.905,7.777a56.251,56.251,0,0,0-1.511,8.5,1.335,1.335,0,0,0,2.368.959,138.288,138.288,0,0,0,14-17.759c.921-1.441-1.075-3.021-2.143-1.627-4.6,6-9.025,12.056-13.969,17.785l2.369.959a50.955,50.955,0,0,1,2.128-11.189c.563-1.8,3.393-6.521.817-7.941-1.049-.577-2.051.065-2.736.863-1.352,1.574-2.55,3.306-3.834,4.936-2.651,3.371-5.347,6.707-7.977,10.1a1.5,1.5,0,0,0,2.391,1.813q6.151-8.116,12.227-16.29a1.021,1.021,0,0,0-1.625-1.234" transform="translate(-20877.896 -4812.5)" fill="#e59a00"/>
      <path id="Path_71266" data-name="Path 71266" d="M311.674,100.64l1.089.426a1.048,1.048,0,0,0,1.415-1.107,5.17,5.17,0,0,0-5.979-3.829c-3.651.5-6.139,3.892-8.313,6.519a57.823,57.823,0,0,0-4.018,5.323c-.957,1.474-2.169,3.214-2.4,4.993a3.177,3.177,0,0,0,2.169,3.479,45.452,45.452,0,0,0,6.694,1.609c1.63.345,2.352-2.38.73-2.857-1.4-.415-2.814-.8-4.23-1.167-1.323-.347-2.508-.242-1.819-1.8a40.909,40.909,0,0,1,4.309-7.165c1.374-1.916,2.77-4.212,4.656-5.672,1.918-1.487,5.4-1.771,6.214,1.108l1.345-1.363-1.11-.375a1.013,1.013,0,0,0-.75,1.879" transform="translate(-20872.857 -4809.311)" fill="#e59a00"/>
      <path id="Path_71267" data-name="Path 71267" d="M296.041,102.412c2.687,1.98,5.306,4.037,7.963,6.053,1.751,1.329,3.838-1.6,2.021-2.662-2.9-1.7-5.821-3.347-8.7-5.087-1.145-.693-2.414.865-1.286,1.695" transform="translate(-20871.58 -4806.674)" fill="#e59a00"/>
      <path id="Path_71268" data-name="Path 71268" d="M319.469,100.014c-6.149,6.443-12.056,13.058-18.446,19.276a1.874,1.874,0,1,0,2.643,2.633,162.35,162.35,0,0,0,17.346-20.739.969.969,0,0,0-1.542-1.17" transform="translate(-20868.779 -4807.188)" fill="#e59a00"/>
      <path id="Path_71269" data-name="Path 71269" d="M308.26,98.3c5.005,3.594,10.067,7.119,14.951,10.876,1.835,1.412,4.04-1.684,2.128-2.8-5.341-3.124-10.536-6.5-15.77-9.8-1.159-.73-2.457.9-1.309,1.724" transform="translate(-20864.373 -4809.122)" fill="#e59a00"/>
    </g>
    <rect id="Rectangle_24881" data-name="Rectangle 24881" width="202.497" height="7.829" transform="translate(-20783.43 -2999.917) rotate(-48.909)" fill="#c46d0e"/>
    <path id="Path_71270" data-name="Path 71270" d="M238.569,126.9c7.454.833,14.39,4.654,19.734,9.916a54.459,54.459,0,0,1,11.957,18.869,78.325,78.325,0,0,1,4.5,41.287c-18.324,1.49-37.346,3.862-55.49.89-.89-20.636.69-42.262,9.467-60.958,1.838-3.916,5.831-8.359,9.831-10" transform="translate(-20924.467 -3231.12)" fill="#6d6a93"/>
    <path id="Path_71271" data-name="Path 71271" d="M285.934,178.384a3.934,3.934,0,0,1,1.789.291,114.465,114.465,0,0,1-8.135,33.207,55.3,55.3,0,0,1-7.174,13.053c-7.85,10.092-21.141,15.49-33.874,14.322s-24.606-8.658-31.664-19.321a79.631,79.631,0,0,1-4.719-8.461,319.626,319.626,0,0,1-12.875-29.368c-1.434-3.778-2.786-8.073-1.08-11.736a5.836,5.836,0,0,1,5.01-3.555,4.218,4.218,0,0,1,2.155-3.078,4.121,4.121,0,0,1,3.713.008,6.459,6.459,0,0,1,2.7-4.133,5.57,5.57,0,0,1,4.524-.619c.251.076.547.251.5.509a30.309,30.309,0,0,0,2.024,2.663c1.089,1.049,2.433,2.091,3.939,1.94,1.234-1.118,2.213-2.188,3.447-3.306a3.076,3.076,0,0,1,1.274-.816,2.162,2.162,0,0,1,2.061.867c1.665,2.026.553,5.044-.649,7.375a3.657,3.657,0,0,0-.536,1.627,3.543,3.543,0,0,0,.421,1.45,91.768,91.768,0,0,0,17.26,25.366c1.366.385,2.473-.7,3.487-1.7a21.863,21.863,0,0,0,6.476-14.325c.019-.363-.072-.343.008-.7,13.364-.693,26.916,1.6,39.92-1.566" transform="translate(-20943.141 -3212.32)" fill="#edd6a6"/>
    <path id="Path_71272" data-name="Path 71272" d="M195.3,161.663c-.033,0-.067,0-.1,0h-.049a.11.11,0,0,0-.04,0,.069.069,0,0,0-.032.017.072.072,0,0,0-.033.049.065.065,0,0,0,.019.056l.027.022a.116.116,0,0,0,.052.011l.052,0c.035,0,.068.008.1.011a.088.088,0,0,0,0-.176" transform="translate(-20938.629 -3210.61)"/>
    <g id="Group_58171" data-name="Group 58171" transform="translate(-20744.291 -3049.562)" style="mix-blend-mode: multiply;isolation: isolate">
      <g id="Group_58170" data-name="Group 58170">
        <g id="Group_58169" data-name="Group 58169" clip-path="url(#clip-path-18)">
          <path id="Path_71273" data-name="Path 71273" d="M194.706,161.579a13.521,13.521,0,0,0,.183,4.49,11.625,11.625,0,0,0,1.682,4.177.523.523,0,0,0,.9-.528c-.3-.668-.657-1.3-.921-1.989a16.706,16.706,0,0,1-.631-1.945,17.49,17.49,0,0,1-.587-4.206c0-.413-.584-.391-.628,0" transform="translate(-194.602 -161.277)" fill="#edd6a6"/>
        </g>
      </g>
    </g>
    <g id="Group_58174" data-name="Group 58174" transform="translate(-20750.293 -3045.811)" style="mix-blend-mode: multiply;isolation: isolate">
      <g id="Group_58173" data-name="Group 58173">
        <g id="Group_58172" data-name="Group 58172" clip-path="url(#clip-path-19)">
          <path id="Path_71274" data-name="Path 71274" d="M190.871,163.87a11.128,11.128,0,0,0,2.9,8.359c.4.442,1.051-.211.655-.655a12.314,12.314,0,0,1-3.069-7.7.243.243,0,0,0-.487,0" transform="translate(-190.828 -163.636)" fill="#edd6a6"/>
        </g>
      </g>
    </g>
    <path id="Path_71275" data-name="Path 71275" d="M240.853,117.339c-.528.064-.774.674-.913,1.188L238.724,123c-.464,1.708-.1,6.147,1.161,7.387-1.579,8.348-6.7,14.124-13.756,18.85A32.491,32.491,0,0,1,201.771,154c-3.353-.693-6.853-2.139-8.55-5.114-1.625-2.851-1.181-6.519.318-9.439s3.915-5.246,6.3-7.5c1.749-1.652,4.217-3.656,6.616-3.477,4.133-2.744,6.336-8.72,5.7-13.641a43.7,43.7,0,0,0,28.465.5c-.029.606.542,1.493.235,2.015" transform="translate(-20940.316 -3238.246)" fill="#edd6a6"/>
    <g id="Group_58177" data-name="Group 58177" transform="translate(-20733.861 -3122.842)" style="mix-blend-mode: multiply;isolation: isolate">
      <g id="Group_58176" data-name="Group 58176">
        <g id="Group_58175" data-name="Group 58175" clip-path="url(#clip-path-20)">
          <path id="Path_71276" data-name="Path 71276" d="M206.921,115.19a26.132,26.132,0,0,0,8.111,2.426l5.236.754c4.769.687,10,1.283,14.08-1.27a14.078,14.078,0,0,1-5.034,4.441,62.7,62.7,0,0,1-23.227,7.139,9.364,9.364,0,0,1-4.923-.425,14.794,14.794,0,0,0,5.758-13.065" transform="translate(-201.161 -115.19)" fill="#cfcfcf"/>
        </g>
      </g>
    </g>
    <path id="Path_71277" data-name="Path 71277" d="M202.1,92.483c-5.08,7.138-8.554,16-6.936,24.614,1.4,7.446,6.575,13.892,13.121,17.705s14.336,5.157,21.9,4.738a31.653,31.653,0,0,0,13-3.21c6.535-3.433,11.044-9.871,13.856-16.7,2-4.845,3.271-10.1,2.74-15.317-.929-9.1-7.5-17.085-15.783-20.966-14.409-6.751-32.582-3.956-41.9,9.132" transform="translate(-20938.799 -3258.913)" fill="#edd6a6"/>
    <path id="Path_71278" data-name="Path 71278" d="M250.443,143.274c7.925-.285,12.9-8.313,14.9-15.129,1.9-6.47-.8-12.763-3.129-18.713-2.9-7.4-3.495-13.224-3.035-21.125.455-7.793.116-15.918-3.388-22.894s-10.866-12.495-18.635-11.744c-4.311.418-8.268,2.668-11.537,5.51a23.346,23.346,0,0,0-6.454,8.523,17.848,17.848,0,0,0-.884,10.774c-.11-4.265-6.64-5.7-10.237-3.409s-4.285,7.715-2.086,11.37c-2.562-2.283-6.842-.854-9.044,1.778-3.821,4.565-3.38,11.722-.008,16.627s9.086,7.783,14.9,9.055c7.877,1.722,16.829.552,22.712-4.961-3.6,1.65-4.158,7.2-1.436,10.078s7.527,3.054,10.971,1.1c-1.517.868-3.175,2.008-3.39,3.743s2.349,3.347,3.3,1.881a10.5,10.5,0,0,0-3.274,10.585,9.48,9.48,0,0,0,9.757,6.956" transform="translate(-20939.127 -3274.373)" fill="#e59a00"/>
    <g id="Group_58180" data-name="Group 58180" transform="translate(-20712.797 -3215.512)" style="mix-blend-mode: multiply;isolation: isolate">
      <g id="Group_58179" data-name="Group 58179">
        <g id="Group_58178" data-name="Group 58178" clip-path="url(#clip-path-21)">
          <path id="Path_71279" data-name="Path 71279" d="M219.822,57.055c-6.79,11.522-7.356,26.511-.758,38.255.356.634,1.3.073.97-.568-5.993-11.563-6.138-25.962.308-37.382a.3.3,0,0,0-.52-.305" transform="translate(-214.41 -56.909)" fill="#e59a00"/>
        </g>
      </g>
    </g>
    <g id="Group_58183" data-name="Group 58183" transform="translate(-20705.516 -3208.134)" style="mix-blend-mode: multiply;isolation: isolate">
      <g id="Group_58182" data-name="Group 58182">
        <g id="Group_58181" data-name="Group 58181" clip-path="url(#clip-path-22)">
          <path id="Path_71280" data-name="Path 71280" d="M220,61.716a57.384,57.384,0,0,0-.685,16.851,49.12,49.12,0,0,0,1.444,7.842,11.712,11.712,0,0,0,3.172,5.751c.421.38,1.037-.226.626-.625a12.39,12.39,0,0,1-3.05-5.974,56.7,56.7,0,0,1-1.442-7.747,57.712,57.712,0,0,1,.382-15.977c.048-.289-.391-.418-.447-.122" transform="translate(-218.989 -61.549)" fill="#e59a00"/>
        </g>
      </g>
    </g>
    <g id="Group_58186" data-name="Group 58186" transform="translate(-20697.58 -3200.926)" style="mix-blend-mode: multiply;isolation: isolate">
      <g id="Group_58185" data-name="Group 58185">
        <g id="Group_58184" data-name="Group 58184" clip-path="url(#clip-path-23)">
          <path id="Path_71281" data-name="Path 71281" d="M224.593,66.26a34.243,34.243,0,0,0,3.051,21.916c.229.448.9.054.674-.394a34.78,34.78,0,0,1-3.25-21.391c.052-.308-.417-.444-.475-.13" transform="translate(-223.979 -66.082)" fill="#e59a00"/>
        </g>
      </g>
    </g>
    <g id="Group_58189" data-name="Group 58189" transform="translate(-20726.506 -3192.378)" style="mix-blend-mode: multiply;isolation: isolate">
      <g id="Group_58188" data-name="Group 58188">
        <g id="Group_58187" data-name="Group 58187" clip-path="url(#clip-path-24)">
          <path id="Path_71282" data-name="Path 71282" d="M205.793,71.838c1.089,6.933,3.385,14.87,10.547,17.742.523.21.744-.633.232-.843-6.8-2.8-9.022-10.475-10.2-17.06-.068-.385-.641-.218-.582.161" transform="translate(-205.788 -71.458)" fill="#e59a00"/>
        </g>
      </g>
    </g>
    <g id="Group_58192" data-name="Group 58192" transform="translate(-20735.162 -3179.791)" style="mix-blend-mode: multiply;isolation: isolate">
      <g id="Group_58191" data-name="Group 58191">
        <g id="Group_58190" data-name="Group 58190" clip-path="url(#clip-path-25)">
          <path id="Path_71283" data-name="Path 71283" d="M200.379,79.792a19.076,19.076,0,0,0,18.433,9.968c.514-.052.53-.855,0-.816a19.245,19.245,0,0,1-17.952-9.434.279.279,0,0,0-.482.281" transform="translate(-200.344 -79.374)" fill="#e59a00"/>
        </g>
      </g>
    </g>
    <g id="Group_58195" data-name="Group 58195" transform="translate(-20688.475 -3167.775)" style="mix-blend-mode: multiply;isolation: isolate">
      <g id="Group_58194" data-name="Group 58194">
        <g id="Group_58193" data-name="Group 58193" clip-path="url(#clip-path-26)">
          <path id="Path_71284" data-name="Path 71284" d="M231.471,87.419a20.919,20.919,0,0,1,5.936,15.1,16.26,16.26,0,0,1-7.55,13,.314.314,0,0,0,.316.542,16.5,16.5,0,0,0,7.955-13.24c.385-5.9-2.25-11.59-6.255-15.8-.253-.267-.652.134-.4.4" transform="translate(-229.706 -86.931)" fill="#e59a00"/>
        </g>
      </g>
    </g>
    <g id="Group_58198" data-name="Group 58198" transform="translate(-20691.754 -3148.248)" style="mix-blend-mode: multiply;isolation: isolate">
      <g id="Group_58197" data-name="Group 58197">
        <g id="Group_58196" data-name="Group 58196" clip-path="url(#clip-path-27)">
          <path id="Path_71285" data-name="Path 71285" d="M227.9,107.754a15.9,15.9,0,0,0,7.19-8.2c.13-.339-.417-.488-.542-.149a15.553,15.553,0,0,1-6.817,8.062.168.168,0,0,0,.169.289" transform="translate(-227.644 -99.212)" fill="#e59a00"/>
        </g>
      </g>
    </g>
    <path id="Path_71286" data-name="Path 71286" d="M206.334,95.117a1.809,1.809,0,1,1-1.73-1.886,1.809,1.809,0,0,1,1.73,1.886" transform="translate(-20934.105 -3250.989)"/>
    <path id="Path_71287" data-name="Path 71287" d="M217.172,97.306a1.809,1.809,0,1,1-1.73-1.886,1.809,1.809,0,0,1,1.73,1.886" transform="translate(-20927.709 -3249.698)"/>
    <path id="Path_71288" data-name="Path 71288" d="M214.551,93.5a13.608,13.608,0,0,0-2.67,1.3,16.886,16.886,0,0,0-2.3,1.628c-1.329,1.158-2.349,2.969-1.7,4.753.157.429.846.246.69-.189-.6-1.668.523-3.228,1.741-4.263a20.693,20.693,0,0,1,4.389-2.868c.2-.1.059-.437-.154-.364" transform="translate(-20931.176 -3250.839)"/>
    <g id="Group_58201" data-name="Group 58201" transform="translate(-20741.895 -3153.568)" style="mix-blend-mode: multiply;isolation: isolate">
      <g id="Group_58200" data-name="Group 58200">
        <g id="Group_58199" data-name="Group 58199" clip-path="url(#clip-path-28)">
          <path id="Path_71289" data-name="Path 71289" d="M196.113,99.684a3.99,3.99,0,1,0,4.158-3.815,3.988,3.988,0,0,0-4.158,3.815" transform="translate(-196.11 -95.866)" fill="#edd6a6"/>
        </g>
      </g>
    </g>
    <g id="Group_58204" data-name="Group 58204" transform="translate(-20709.139 -3146.922)" style="mix-blend-mode: multiply;isolation: isolate">
      <g id="Group_58203" data-name="Group 58203">
        <g id="Group_58202" data-name="Group 58202" clip-path="url(#clip-path-28)">
          <path id="Path_71290" data-name="Path 71290" d="M216.713,103.865a3.99,3.99,0,1,0,4.158-3.815,3.988,3.988,0,0,0-4.158,3.815" transform="translate(-216.71 -100.046)" fill="#edd6a6"/>
        </g>
      </g>
    </g>
    <path id="Path_71291" data-name="Path 71291" d="M213.752,102.072a18.1,18.1,0,0,1,10.591,6.338,4.5,4.5,0,0,1,1.1,2.145,3.261,3.261,0,0,1-1.522,3,6.411,6.411,0,0,1-3.368.925c-3.012.11-5.953-.852-8.954-1.134a55.439,55.439,0,0,1-6.09-.48c-3.829-.79-7.053-4.883-4.016-8.485,2.49-2.951,8.887-2.945,12.255-2.306" transform="translate(-20935.535 -3245.975)" fill="#fff"/>
    <g id="Group_58207" data-name="Group 58207" transform="translate(-20796.154 -3112.55)" style="mix-blend-mode: multiply;isolation: isolate">
      <g id="Group_58206" data-name="Group 58206">
        <g id="Group_58205" data-name="Group 58205" clip-path="url(#clip-path-30)">
          <path id="Path_71292" data-name="Path 71292" d="M208.34,121.816S180.215,135.43,178.307,172.3l-16.322-9.92s12.026-43.609,46.355-40.561" transform="translate(-161.985 -121.663)" fill="#cfcfcf"/>
        </g>
      </g>
    </g>
  </g>
</svg>
