<svg xmlns="http://www.w3.org/2000/svg" width="40" height="44.1" viewBox="0 0 40 44.1">
  <g id="Group_57983" data-name="Group 57983" transform="translate(-943 -352.95)">
    <path id="Path_8039" data-name="Path 8039" d="M257.682,243.807a17.687,17.687,0,0,0-4.5-.507,6.311,6.311,0,0,0-4.609,1.543,1.432,1.432,0,0,0-.2.176l-2.095,2.227a4.7,4.7,0,0,1-6.7,0l-2.095-2.205a.844.844,0,0,0-.2-.2,6.385,6.385,0,0,0-4.609-1.543,16.743,16.743,0,0,0-4.5.507c-5.248,1.411-5.248,5.579-5.248,9.239V255.1c0,5.535,0,11.8,11.8,11.8h16.406c7.828,0,11.8-3.969,11.8-11.8v-2.051C262.93,249.386,262.93,245.218,257.682,243.807Z" transform="translate(720.07 130.156)" fill="#2c5ab4"/>
    <path id="Path_8040" data-name="Path 8040" d="M246.84,234h-12.3c-9.746,0-9.746,5.182-9.746,9.746v12.767a1.515,1.515,0,0,0,.6,1.213,1.544,1.544,0,0,0,1.345.265,14.634,14.634,0,0,1,3.7-.4,3.344,3.344,0,0,1,2.668.838l2.007,2.117a7.679,7.679,0,0,0,11.2,0l2.007-2.117a3.343,3.343,0,0,1,2.668-.838,14.634,14.634,0,0,1,3.7.4,1.533,1.533,0,0,0,1.94-1.477V243.746C256.586,239.182,256.586,234,246.84,234Z" transform="translate(722.311 118.95)" fill="#6dbd45"/>
    <path id="Path_8041" data-name="Path 8041" d="M238.129,243.6h-6.836a1.544,1.544,0,1,1,0-3.087h6.836a1.534,1.534,0,0,1,1.544,1.544A1.563,1.563,0,0,1,238.129,243.6Z" transform="translate(728.289 126.795)" fill="#fff"/>
    <path id="Path_8042" data-name="Path 8042" d="M240.79,240.807H230.515a1.543,1.543,0,1,1,0-3.087h10.254a1.544,1.544,0,0,1,.022,3.087Z" transform="translate(727.35 123.433)" fill="#fff"/>
  </g>
</svg>
