<svg xmlns="http://www.w3.org/2000/svg" width="21.399" height="18.05" viewBox="0 0 21.399 18.05">
  <g id="Group_57981" data-name="Group 57981" transform="translate(-1263.301 -588.97)">
    <path id="Path_10792" data-name="Path 10792" d="M135.58,1932a3.58,3.58,0,1,1-3.58-3.58A3.576,3.576,0,0,1,135.58,1932Z" transform="translate(1142 -1334)" fill="none" stroke="#2b2a29" stroke-linecap="round" stroke-linejoin="round" stroke-width="1.5"/>
    <path id="Path_10793" data-name="Path 10793" d="M132,1940.27c3.53,0,6.82-2.08,9.11-5.68a5.326,5.326,0,0,0,0-5.19c-2.29-3.6-5.58-5.68-9.11-5.68s-6.82,2.08-9.11,5.68a5.326,5.326,0,0,0,0,5.19C125.18,1938.19,128.47,1940.27,132,1940.27Z" transform="translate(1142 -1334)" fill="none" stroke="#2b2a29" stroke-linecap="round" stroke-linejoin="round" stroke-width="1.5"/>
  </g>
</svg>
