<svg xmlns="http://www.w3.org/2000/svg" width="23.997" height="23.997" viewBox="0 0 23.997 23.997">
  <g id="Group_25993" data-name="Group 25993" transform="translate(-1586.25 -78.25)">
    <g id="Group_346" data-name="Group 346" transform="translate(1586.25 78.25)">
      <path id="Path_14133" data-name="Path 14133" d="M552.334,310.465h-.029a4.5,4.5,0,1,1,.325,0,.832.832,0,0,1-.144-.007.4.4,0,0,0-.049,0A.833.833,0,0,1,552.334,310.465Zm.134-7.311a2.819,2.819,0,0,0-.158,5.635,1.951,1.951,0,0,1,.319,0,2.819,2.819,0,0,0-.161-5.635Z" transform="translate(-540.47 -296.759)" fill="#2b2a29"/>
      <path id="Path_14134" data-name="Path 14134" d="M552.87,319.687a11.948,11.948,0,0,1-8.088-3.144.837.837,0,0,1-.267-.706,4.936,4.936,0,0,1,2.341-3.486,11.689,11.689,0,0,1,12.027,0,4.937,4.937,0,0,1,2.342,3.487.837.837,0,0,1-.267.706A11.948,11.948,0,0,1,552.87,319.687Zm-6.609-4.074a10.3,10.3,0,0,0,13.219,0,3.607,3.607,0,0,0-1.53-1.872,10.033,10.033,0,0,0-10.164,0A3.6,3.6,0,0,0,546.26,315.613Z" transform="translate(-540.871 -295.69)" fill="#2b2a29"/>
      <path id="Path_14135" data-name="Path 14135" d="M553.248,321.247a12,12,0,1,1,8.484-3.514A11.92,11.92,0,0,1,553.248,321.247Zm0-22.323a10.324,10.324,0,1,0,10.324,10.324A10.336,10.336,0,0,0,553.248,298.924Z" transform="translate(-541.25 -297.25)" fill="#2b2a29"/>
    </g>
  </g>
</svg>
