<svg xmlns="http://www.w3.org/2000/svg" width="31.983" height="31.983" viewBox="0 0 31.983 31.983">
  <g id="Group_58772" data-name="Group 58772" transform="translate(-1335.721 -101.898)">
    <circle id="Ellipse_1261" data-name="Ellipse 1261" cx="15.991" cy="15.991" r="15.991" transform="translate(1335.721 101.898)" fill="#6dbd45"/>
    <g id="Icon_feather-youtube" data-name="Icon feather-youtube" transform="translate(1342.281 111.037)">
      <path id="Path_69096" data-name="Path 69096" d="M19.938,8.072A2.38,2.38,0,0,0,18.277,6.36,61.644,61.644,0,0,0,10.916,6a56.329,56.329,0,0,0-7.362.394A2.38,2.38,0,0,0,1.893,8.106,24.824,24.824,0,0,0,1.5,12.634,24.824,24.824,0,0,0,1.893,17.2,2.38,2.38,0,0,0,3.554,18.84a56.328,56.328,0,0,0,7.362.394,56.329,56.329,0,0,0,7.362-.394,2.38,2.38,0,0,0,1.661-1.712,24.824,24.824,0,0,0,.394-4.494,24.824,24.824,0,0,0-.394-4.563Z" transform="translate(-1.499 -6)" fill="none" stroke="#fff" stroke-linecap="round" stroke-linejoin="round" stroke-width="1"/>
      <path id="Path_69097" data-name="Path 69097" d="M14.625,18.318l4.922-2.8-4.922-2.8Z" transform="translate(-7.134 -8.885)" fill="none" stroke="#fff" stroke-linecap="round" stroke-linejoin="round" stroke-width="1"/>
    </g>
  </g>
</svg>
