<svg id="delete" xmlns="http://www.w3.org/2000/svg" width="17.41" height="21.436" viewBox="0 0 17.41 21.436">
  <path id="Path_2113" data-name="Path 2113" d="M.5,0A.5.5,0,0,0,0,.5V9.99a.5.5,0,0,0,1,0V.5A.5.5,0,0,0,.5,0Zm0,0" transform="matrix(0.998, -0.07, 0.07, 0.998, 4.982, 10.788)" fill="#2c5ab4"/>
  <path id="Path_2114" data-name="Path 2114" d="M1.423,6.38l.917,12.369a2.77,2.77,0,0,0,.736,1.91,2.472,2.472,0,0,0,1.794.776h7.665a2.472,2.472,0,0,0,1.794-.776,2.77,2.77,0,0,0,.736-1.91L15.981,6.38a1.918,1.918,0,0,0-.492-3.771h-2.57V1.982A1.972,1.972,0,0,0,10.931,0H6.473A1.972,1.972,0,0,0,4.485,1.982v.628H1.915A1.918,1.918,0,0,0,1.423,6.38Zm11.112,14.05H4.869a1.59,1.59,0,0,1-1.526-1.682L2.427,6.424h12.55L14.06,18.749a1.59,1.59,0,0,1-1.526,1.682ZM5.489,1.982A.967.967,0,0,1,6.473,1h4.458a.967.967,0,0,1,.984.979v.628H5.489ZM1.915,3.613H15.489a.9.9,0,0,1,0,1.807H1.915a.9.9,0,0,1,0-1.807Zm0,0" transform="translate(0.003 0.002)" fill="#2c5ab4"/>
  <path id="Path_2115" data-name="Path 2115" d="M.5,0A.5.5,0,0,0,0,.5V9.99a.5.5,0,0,0,1,0V.5A.5.5,0,0,0,.5,0Zm0,0" transform="translate(11.427 10.718) rotate(4)" fill="#2c5ab4"/>
</svg>
