<svg xmlns="http://www.w3.org/2000/svg" width="31" height="31" viewBox="0 0 31 31">
  <g id="Group_58008" data-name="Group 58008" transform="translate(-0.383)">
    <circle id="Ellipse_1244" data-name="Ellipse 1244" cx="15.5" cy="15.5" r="15.5" transform="translate(0.383)" fill="#fff"/>
    <g id="Group_22108" data-name="Group 22108" transform="translate(8.183 7.8)">
      <g id="Rectangle_15725" data-name="Rectangle 15725" transform="translate(0.2 0.2)" fill="#2c5ab4" stroke="#707070" stroke-width="1" opacity="0">
        <rect width="15" height="15" stroke="none"/>
        <rect x="0.5" y="0.5" width="14" height="14" fill="none"/>
      </g>
      <g id="Group_344" data-name="Group 344" transform="translate(0.863 1.195)">
        <path id="Path_11600" data-name="Path 11600" d="M677.7,310.46h-3.687a4.1,4.1,0,0,1-4.762-4.762v-3.687a4.1,4.1,0,0,1,4.762-4.762h1.229a.461.461,0,1,1,0,.922h-1.229a3.214,3.214,0,0,0-3.84,3.84V305.7a3.214,3.214,0,0,0,3.84,3.84H677.7a3.214,3.214,0,0,0,3.84-3.84V304.47a.461.461,0,0,1,.922,0V305.7a4.1,4.1,0,0,1-4.762,4.762Z" transform="translate(-669.25 -297.096)" fill="#2c5ab4"/>
        <path id="Path_11601" data-name="Path 11601" d="M681.795,297h0a2.666,2.666,0,0,1,1.85.916,2.55,2.55,0,0,1,.907,2.036,2.753,2.753,0,0,1-.907,1.651l-4.842,4.842-.005.005a2.156,2.156,0,0,1-1.066.531l-1.849.264a1.694,1.694,0,0,1-.231.016,1.338,1.338,0,0,1-1.034-.451,1.392,1.392,0,0,1-.3-1.133l.264-1.848a2.1,2.1,0,0,1,.536-1.072l4.842-4.842A2.62,2.62,0,0,1,681.795,297Zm-3.64,8.79,4.839-4.839a1.9,1.9,0,0,0,.641-1.089,1.68,1.68,0,0,0-.641-1.294,1.808,1.808,0,0,0-1.2-.646h0a1.777,1.777,0,0,0-1.185.646l-4.842,4.842a1.229,1.229,0,0,0-.275.549l-.264,1.851a.491.491,0,0,0,.086.4.427.427,0,0,0,.336.132.757.757,0,0,0,.1-.007l1.847-.264A1.291,1.291,0,0,0,678.155,305.789Z" transform="translate(-671.197 -296.999)" fill="#2c5ab4"/>
        <path id="Path_11602" data-name="Path 11602" d="M685.656,303.357a.462.462,0,0,1-.126-.018,4.851,4.851,0,0,1-3.353-3.354.461.461,0,1,1,.887-.249,3.955,3.955,0,0,0,2.717,2.716.461.461,0,0,1-.125.9Z" transform="translate(-674.228 -297.925)" fill="#2c5ab4"/>
      </g>
    </g>
  </g>
</svg>
