<svg xmlns="http://www.w3.org/2000/svg" width="18.489" height="15.55" viewBox="0 0 18.489 15.55">
  <g id="Group_57568" data-name="Group 57568" transform="translate(-831.135 -979.725)">
    <g id="Group_58010" data-name="Group 58010">
      <path id="Path_10792" data-name="Path 10792" d="M135.33,1931.875a3.455,3.455,0,1,1-3.455-3.455A3.452,3.452,0,0,1,135.33,1931.875Z" transform="translate(708.504 -944.371)" fill="#2c5ab4" stroke="#2c5ab4" stroke-linecap="round" stroke-linejoin="round" stroke-width="1"/>
      <path id="Path_10793" data-name="Path 10793" d="M130.818,1938.27c3.1,0,6-1.829,8.009-4.994a4.682,4.682,0,0,0,0-4.563c-2.013-3.165-4.906-4.994-8.009-4.994s-6,1.829-8.009,4.994a4.682,4.682,0,0,0,0,4.563C124.822,1936.441,127.714,1938.27,130.818,1938.27Z" transform="translate(709.562 -943.495)" fill="none" stroke="#2c5ab4" stroke-linecap="round" stroke-linejoin="round" stroke-width="1"/>
    </g>
  </g>
</svg>
