<svg xmlns="http://www.w3.org/2000/svg" width="22.553" height="22.553" viewBox="0 0 22.553 22.553">
  <g id="Group_57937" data-name="Group 57937" transform="translate(1 1)">
    <path id="Path_14112" data-name="Path 14112" d="M814.479,253.749a11.462,11.462,0,0,1-3.227.391h-6.166a11.461,11.461,0,0,1-3.227-.391c.226-2.672,2.97-4.779,6.31-4.779S814.253,251.077,814.479,253.749Z" transform="translate(-797.893 -233.586)" fill="none" stroke="#6dbd45" stroke-linecap="round" stroke-linejoin="round" stroke-width="2"/>
    <path id="Path_14113" data-name="Path 14113" d="M811.359,234h-6.166c-5.138,0-7.193,2.055-7.193,7.193v6.166c0,3.884,1.172,6.012,3.967,6.8.226-2.672,2.97-4.778,6.31-4.778s6.083,2.107,6.31,4.778c2.8-.791,3.967-2.918,3.967-6.8v-6.166C818.553,236.055,816.5,234,811.359,234Zm-3.083,12.506a3.684,3.684,0,1,1,3.679-3.689A3.684,3.684,0,0,1,808.277,246.506Z" transform="translate(-798 -234)" fill="none" stroke="#6dbd45" stroke-linecap="round" stroke-linejoin="round" stroke-width="2"/>
    <path id="Path_14114" data-name="Path 14114" d="M811.778,242.679A3.679,3.679,0,1,1,808.1,239,3.684,3.684,0,0,1,811.778,242.679Z" transform="translate(-797.823 -233.862)" fill="none" stroke="#6dbd45" stroke-linecap="round" stroke-linejoin="round" stroke-width="2"/>
  </g>
</svg>
