<svg xmlns="http://www.w3.org/2000/svg" width="22.553" height="21.221" viewBox="0 0 22.553 21.221">
  <g id="Group_57936" data-name="Group 57936" transform="translate(1 1.002)">
    <path id="Path_71145" data-name="Path 71145" d="M626.552,249.128v-12.4a2.024,2.024,0,0,0-2.23-2.045h-.062A19.373,19.373,0,0,0,617,237.116l-.175.113a1.139,1.139,0,0,1-1.089,0l-.257-.154a19.275,19.275,0,0,0-7.255-2.4,2.022,2.022,0,0,0-2.22,2.045v12.413a2.112,2.112,0,0,0,1.788,2.035l.3.041a26.4,26.4,0,0,1,7.645,2.507l.041.021a1.11,1.11,0,0,0,.986,0,26.165,26.165,0,0,1,7.666-2.528l.339-.041A2.112,2.112,0,0,0,626.552,249.128Z" transform="translate(-606 -234.662)" fill="none" stroke="#6dbd45" stroke-linecap="round" stroke-linejoin="round" stroke-width="2"/>
    <path id="Path_71146" data-name="Path 71146" d="M616,237.49V252.9" transform="translate(-605.724 -234.584)" fill="none" stroke="#6dbd45" stroke-linecap="round" stroke-linejoin="round" stroke-width="2"/>
    <path id="Path_71147" data-name="Path 71147" d="M611.812,240.49H609.5" transform="translate(-605.903 -234.502)" fill="none" stroke="#6dbd45" stroke-linecap="round" stroke-linejoin="round" stroke-width="2"/>
    <path id="Path_71148" data-name="Path 71148" d="M612.583,243.49H609.5" transform="translate(-605.903 -234.419)" fill="none" stroke="#6dbd45" stroke-linecap="round" stroke-linejoin="round" stroke-width="2"/>
  </g>
</svg>
